<ttFont>
    <TTGlyph name=".notdef" xMin="33" yMin="0" xMax="298" yMax="666">
      <contour>
        <pt x="33" y="0" on="1"/>
        <pt x="33" y="666" on="1"/>
        <pt x="298" y="666" on="1"/>
        <pt x="298" y="0" on="1"/>
      </contour>
      <contour>
        <pt x="66" y="33" on="1"/>
        <pt x="265" y="33" on="1"/>
        <pt x="265" y="633" on="1"/>
        <pt x="66" y="633" on="1"/>
      </contour>
    </TTGlyph>
    <TTGlyph name="A" xMin="65" yMin="0" xMax="613" yMax="699">
      <contour>
        <pt x="510" y="35" on="1"/>
        <pt x="461" y="165" on="1"/>
        <pt x="218" y="165" on="1"/>
        <pt x="169" y="35" on="1"/>
        <pt x="155" y="0" on="0"/>
        <pt x="86" y="0" on="0"/>
        <pt x="56" y="49" on="0"/>
        <pt x="65" y="75" on="1"/>
        <pt x="286" y="664" on="1"/>
        <pt x="293" y="680" on="0"/>
        <pt x="322" y="700" on="0"/>
        <pt x="339" y="699" on="1"/>
        <pt x="377" y="701" on="0"/>
        <pt x="392" y="664" on="1"/>
        <pt x="613" y="75" on="1"/>
        <pt x="622" y="49" on="0"/>
        <pt x="592" y="0" on="0"/>
        <pt x="523" y="0" on="0"/>
      </contour>
      <contour>
        <pt x="258" y="275" on="1"/>
        <pt x="420" y="275" on="1"/>
        <pt x="339" y="490" on="1"/>
      </contour>
    </TTGlyph>
    <TTGlyph name="AE" xMin="35" yMin="-6" xMax="995" yMax="700">
      <contour>
        <pt x="66" y="-6" on="0"/>
        <pt x="35" y="23" on="0"/>
        <pt x="35" y="65" on="0"/>
        <pt x="45" y="80" on="1"/>
        <pt x="382" y="657" on="1"/>
        <pt x="406" y="700" on="0"/>
        <pt x="454" y="700" on="1"/>
        <pt x="935" y="700" on="1"/>
        <pt x="958" y="700" on="0"/>
        <pt x="990" y="668" on="0"/>
        <pt x="990" y="622" on="0"/>
        <pt x="958" y="590" on="0"/>
        <pt x="935" y="590" on="1"/>
        <pt x="611" y="590" on="1"/>
        <pt x="611" y="408" on="1"/>
        <pt x="890" y="408" on="1"/>
        <pt x="913" y="408" on="0"/>
        <pt x="945" y="375" on="0"/>
        <pt x="945" y="330" on="0"/>
        <pt x="913" y="298" on="0"/>
        <pt x="890" y="298" on="1"/>
        <pt x="611" y="298" on="1"/>
        <pt x="611" y="110" on="1"/>
        <pt x="940" y="110" on="1"/>
        <pt x="962" y="110" on="0"/>
        <pt x="995" y="78" on="0"/>
        <pt x="995" y="32" on="0"/>
        <pt x="963" y="0" on="0"/>
        <pt x="940" y="0" on="1"/>
        <pt x="550" y="0" on="1"/>
        <pt x="524" y="0" on="0"/>
        <pt x="488" y="36" on="0"/>
        <pt x="488" y="62" on="1"/>
        <pt x="488" y="169" on="1"/>
        <pt x="224" y="169" on="1"/>
        <pt x="143" y="28" on="1"/>
        <pt x="123" y="-6" on="0"/>
        <pt x="89" y="-6" on="1"/>
      </contour>
      <contour>
        <pt x="287" y="278" on="1"/>
        <pt x="488" y="278" on="1"/>
        <pt x="488" y="593" on="1"/>
        <pt x="468" y="593" on="1"/>
      </contour>
    </TTGlyph>
    <TTGlyph name="Aacute" xMin="65" yMin="0" xMax="613" yMax="950">
      <component glyphName="A" x="0" y="0" flags="0x1004"/>
      <component glyphName="acute" x="162" y="200" flags="0x1004"/>
    </TTGlyph>
    <TTGlyph name="Acircumflex" xMin="66" yMin="0" xMax="614" yMax="946">
      <contour>
        <pt x="511" y="35" on="1"/>
        <pt x="462" y="165" on="1"/>
        <pt x="219" y="165" on="1"/>
        <pt x="170" y="35" on="1"/>
        <pt x="156" y="0" on="0"/>
        <pt x="87" y="0" on="0"/>
        <pt x="57" y="49" on="0"/>
        <pt x="66" y="75" on="1"/>
        <pt x="287" y="664" on="1"/>
        <pt x="294" y="680" on="0"/>
        <pt x="323" y="700" on="0"/>
        <pt x="340" y="699" on="1"/>
        <pt x="378" y="701" on="0"/>
        <pt x="393" y="664" on="1"/>
        <pt x="614" y="75" on="1"/>
        <pt x="623" y="49" on="0"/>
        <pt x="593" y="0" on="0"/>
        <pt x="524" y="0" on="0"/>
      </contour>
      <contour>
        <pt x="259" y="275" on="1"/>
        <pt x="421" y="275" on="1"/>
        <pt x="340" y="490" on="1"/>
      </contour>
      <contour>
        <pt x="339" y="862" on="1"/>
        <pt x="287" y="817" on="1"/>
        <pt x="255" y="790" on="0"/>
        <pt x="213" y="790" on="1"/>
        <pt x="186" y="790" on="0"/>
        <pt x="186" y="810" on="1"/>
        <pt x="186" y="818" on="0"/>
        <pt x="198" y="834" on="1"/>
        <pt x="264" y="917" on="1"/>
        <pt x="288" y="946" on="0"/>
        <pt x="322" y="946" on="1"/>
        <pt x="358" y="946" on="1"/>
        <pt x="393" y="946" on="0"/>
        <pt x="416" y="917" on="1"/>
        <pt x="482" y="834" on="1"/>
        <pt x="494" y="818" on="0"/>
        <pt x="494" y="810" on="1"/>
        <pt x="494" y="790" on="0"/>
        <pt x="424" y="790" on="0"/>
        <pt x="391" y="817" on="1"/>
      </contour>
    </TTGlyph>
    <TTGlyph name="Adieresis" xMin="66" yMin="0" xMax="614" yMax="901">
      <contour>
        <pt x="511" y="35" on="1"/>
        <pt x="462" y="165" on="1"/>
        <pt x="219" y="165" on="1"/>
        <pt x="170" y="35" on="1"/>
        <pt x="156" y="0" on="0"/>
        <pt x="87" y="0" on="0"/>
        <pt x="57" y="49" on="0"/>
        <pt x="66" y="75" on="1"/>
        <pt x="287" y="664" on="1"/>
        <pt x="294" y="680" on="0"/>
        <pt x="323" y="700" on="0"/>
        <pt x="340" y="699" on="1"/>
        <pt x="378" y="701" on="0"/>
        <pt x="393" y="664" on="1"/>
        <pt x="614" y="75" on="1"/>
        <pt x="623" y="49" on="0"/>
        <pt x="593" y="0" on="0"/>
        <pt x="524" y="0" on="0"/>
      </contour>
      <contour>
        <pt x="259" y="275" on="1"/>
        <pt x="421" y="275" on="1"/>
        <pt x="340" y="490" on="1"/>
      </contour>
      <contour>
        <pt x="177" y="809" on="0"/>
        <pt x="177" y="863" on="0"/>
        <pt x="214" y="901" on="0"/>
        <pt x="268" y="901" on="0"/>
        <pt x="306" y="863" on="0"/>
        <pt x="306" y="809" on="0"/>
        <pt x="268" y="772" on="0"/>
        <pt x="214" y="772" on="0"/>
      </contour>
      <contour>
        <pt x="377" y="809" on="0"/>
        <pt x="377" y="863" on="0"/>
        <pt x="414" y="901" on="0"/>
        <pt x="468" y="901" on="0"/>
        <pt x="506" y="863" on="0"/>
        <pt x="506" y="809" on="0"/>
        <pt x="468" y="772" on="0"/>
        <pt x="414" y="772" on="0"/>
      </contour>
    </TTGlyph>
    <TTGlyph name="Agrave" xMin="65" yMin="0" xMax="613" yMax="950">
      <contour>
        <pt x="510" y="35" on="1"/>
        <pt x="461" y="165" on="1"/>
        <pt x="218" y="165" on="1"/>
        <pt x="169" y="35" on="1"/>
        <pt x="155" y="0" on="0"/>
        <pt x="86" y="0" on="0"/>
        <pt x="56" y="49" on="0"/>
        <pt x="65" y="75" on="1"/>
        <pt x="286" y="664" on="1"/>
        <pt x="293" y="680" on="0"/>
        <pt x="322" y="700" on="0"/>
        <pt x="339" y="699" on="1"/>
        <pt x="377" y="701" on="0"/>
        <pt x="392" y="664" on="1"/>
        <pt x="613" y="75" on="1"/>
        <pt x="622" y="49" on="0"/>
        <pt x="592" y="0" on="0"/>
        <pt x="523" y="0" on="0"/>
      </contour>
      <contour>
        <pt x="258" y="275" on="1"/>
        <pt x="420" y="275" on="1"/>
        <pt x="339" y="490" on="1"/>
      </contour>
      <contour>
        <pt x="457" y="811" on="1"/>
        <pt x="457" y="790" on="0"/>
        <pt x="384" y="790" on="0"/>
        <pt x="356" y="817" on="1"/>
        <pt x="288" y="881" on="1"/>
        <pt x="271" y="896" on="0"/>
        <pt x="271" y="925" on="0"/>
        <pt x="318" y="950" on="0"/>
        <pt x="373" y="950" on="0"/>
        <pt x="391" y="921" on="1"/>
        <pt x="448" y="833" on="1"/>
        <pt x="457" y="819" on="0"/>
      </contour>
    </TTGlyph>
    <TTGlyph name="Aring" xMin="53" yMin="0" xMax="601" yMax="857">
      <contour>
        <pt x="246" y="275" on="1"/>
        <pt x="408" y="275" on="1"/>
        <pt x="327" y="490" on="1"/>
      </contour>
      <contour>
        <pt x="498" y="35" on="1"/>
        <pt x="449" y="165" on="1"/>
        <pt x="206" y="165" on="1"/>
        <pt x="157" y="35" on="1"/>
        <pt x="143" y="0" on="0"/>
        <pt x="74" y="0" on="0"/>
        <pt x="44" y="49" on="0"/>
        <pt x="53" y="75" on="1"/>
        <pt x="260" y="628" on="1"/>
        <pt x="198" y="666" on="0"/>
        <pt x="198" y="732" on="1"/>
        <pt x="198" y="734" on="1"/>
        <pt x="198" y="784" on="0"/>
        <pt x="275" y="857" on="0"/>
        <pt x="377" y="857" on="0"/>
        <pt x="454" y="784" on="0"/>
        <pt x="454" y="734" on="1"/>
        <pt x="454" y="732" on="1"/>
        <pt x="454" y="666" on="0"/>
        <pt x="393" y="629" on="1"/>
        <pt x="601" y="75" on="1"/>
        <pt x="610" y="49" on="0"/>
        <pt x="580" y="0" on="0"/>
        <pt x="511" y="0" on="0"/>
      </contour>
      <contour>
        <pt x="306" y="685" on="0"/>
        <pt x="346" y="685" on="0"/>
        <pt x="374" y="712" on="0"/>
        <pt x="374" y="732" on="1"/>
        <pt x="374" y="734" on="1"/>
        <pt x="374" y="754" on="0"/>
        <pt x="346" y="781" on="0"/>
        <pt x="306" y="781" on="0"/>
        <pt x="278" y="754" on="0"/>
        <pt x="278" y="734" on="1"/>
        <pt x="278" y="732" on="1"/>
        <pt x="278" y="712" on="0"/>
      </contour>
    </TTGlyph>
    <TTGlyph name="Atilde" xMin="66" yMin="0" xMax="614" yMax="942">
      <contour>
        <pt x="511" y="35" on="1"/>
        <pt x="462" y="165" on="1"/>
        <pt x="219" y="165" on="1"/>
        <pt x="170" y="35" on="1"/>
        <pt x="156" y="0" on="0"/>
        <pt x="87" y="0" on="0"/>
        <pt x="57" y="49" on="0"/>
        <pt x="66" y="75" on="1"/>
        <pt x="287" y="664" on="1"/>
        <pt x="294" y="680" on="0"/>
        <pt x="323" y="700" on="0"/>
        <pt x="340" y="699" on="1"/>
        <pt x="378" y="701" on="0"/>
        <pt x="393" y="664" on="1"/>
        <pt x="614" y="75" on="1"/>
        <pt x="623" y="49" on="0"/>
        <pt x="593" y="0" on="0"/>
        <pt x="524" y="0" on="0"/>
      </contour>
      <contour>
        <pt x="259" y="275" on="1"/>
        <pt x="421" y="275" on="1"/>
        <pt x="340" y="490" on="1"/>
      </contour>
      <contour>
        <pt x="228" y="803" on="1"/>
        <pt x="215" y="783" on="0"/>
        <pt x="180" y="783" on="0"/>
        <pt x="158" y="803" on="0"/>
        <pt x="158" y="825" on="0"/>
        <pt x="162" y="839" on="1"/>
        <pt x="179" y="885" on="0"/>
        <pt x="226" y="930" on="0"/>
        <pt x="294" y="930" on="0"/>
        <pt x="392" y="890" on="0"/>
        <pt x="408" y="890" on="1"/>
        <pt x="437" y="890" on="0"/>
        <pt x="454" y="922" on="1"/>
        <pt x="467" y="942" on="0"/>
        <pt x="502" y="942" on="0"/>
        <pt x="524" y="922" on="0"/>
        <pt x="524" y="900" on="0"/>
        <pt x="520" y="886" on="1"/>
        <pt x="503" y="840" on="0"/>
        <pt x="456" y="795" on="0"/>
        <pt x="388" y="795" on="0"/>
        <pt x="290" y="835" on="0"/>
        <pt x="274" y="835" on="1"/>
        <pt x="245" y="835" on="0"/>
      </contour>
    </TTGlyph>
    <TTGlyph name="B" xMin="104" yMin="0" xMax="554" yMax="700">
      <contour>
        <pt x="163" y="0" on="1"/>
        <pt x="162" y="1" on="1"/>
        <pt x="161" y="1" on="0"/>
        <pt x="159" y="0" on="1"/>
        <pt x="136" y="0" on="0"/>
        <pt x="104" y="32" on="0"/>
        <pt x="104" y="55" on="1"/>
        <pt x="104" y="645" on="1"/>
        <pt x="104" y="668" on="0"/>
        <pt x="136" y="700" on="0"/>
        <pt x="159" y="700" on="1"/>
        <pt x="301" y="700" on="1"/>
        <pt x="380" y="700" on="0"/>
        <pt x="491" y="589" on="0"/>
        <pt x="491" y="447" on="0"/>
        <pt x="453" y="396" on="1"/>
        <pt x="499" y="367" on="0"/>
        <pt x="554" y="271" on="0"/>
        <pt x="554" y="215" on="1"/>
        <pt x="554" y="126" on="0"/>
        <pt x="429" y="0" on="0"/>
        <pt x="340" y="0" on="1"/>
      </contour>
      <contour>
        <pt x="215" y="589" on="1"/>
        <pt x="215" y="429" on="1"/>
        <pt x="301" y="429" on="1"/>
        <pt x="334" y="429" on="0"/>
        <pt x="380" y="477" on="0"/>
        <pt x="380" y="543" on="0"/>
        <pt x="334" y="589" on="0"/>
        <pt x="301" y="589" on="1"/>
      </contour>
      <contour>
        <pt x="215" y="318" on="1"/>
        <pt x="215" y="111" on="1"/>
        <pt x="340" y="111" on="1"/>
        <pt x="383" y="112" on="0"/>
        <pt x="443" y="172" on="0"/>
        <pt x="443" y="258" on="0"/>
        <pt x="383" y="317" on="0"/>
        <pt x="340" y="318" on="1"/>
      </contour>
    </TTGlyph>
    <TTGlyph name="C" xMin="73" yMin="0" xMax="692" yMax="720">
      <contour>
        <pt x="260" y="534" on="1"/>
        <pt x="187" y="459" on="0"/>
        <pt x="187" y="257" on="0"/>
        <pt x="336" y="114" on="0"/>
        <pt x="532" y="114" on="0"/>
        <pt x="601" y="169" on="1"/>
        <pt x="618" y="182" on="0"/>
        <pt x="666" y="176" on="0"/>
        <pt x="681" y="158" on="1"/>
        <pt x="695" y="139" on="0"/>
        <pt x="689" y="92" on="0"/>
        <pt x="671" y="78" on="1"/>
        <pt x="571" y="0" on="0"/>
        <pt x="440" y="0" on="1"/>
        <pt x="290" y="0" on="0"/>
        <pt x="74" y="211" on="0"/>
        <pt x="73" y="360" on="1"/>
        <pt x="74" y="508" on="0"/>
        <pt x="290" y="719" on="0"/>
        <pt x="440" y="720" on="1"/>
        <pt x="571" y="720" on="0"/>
        <pt x="671" y="642" on="1"/>
        <pt x="689" y="627" on="0"/>
        <pt x="695" y="581" on="0"/>
        <pt x="666" y="543" on="0"/>
        <pt x="618" y="537" on="0"/>
        <pt x="601" y="551" on="1"/>
        <pt x="534" y="606" on="0"/>
        <pt x="337" y="606" on="0"/>
      </contour>
    </TTGlyph>
    <TTGlyph name="Ccedilla" xMin="73" yMin="-160" xMax="692" yMax="720">
      <component glyphName="C" x="0" y="0" flags="0x1004"/>
      <component glyphName="cedilla" x="130" y="0" flags="0x1004"/>
    </TTGlyph>
    <TTGlyph name="D" xMin="104" yMin="0" xMax="626" yMax="700">
      <contour>
        <pt x="104" y="55" on="1"/>
        <pt x="104" y="645" on="1"/>
        <pt x="104" y="668" on="0"/>
        <pt x="136" y="700" on="0"/>
        <pt x="159" y="700" on="1"/>
        <pt x="277" y="700" on="1"/>
        <pt x="422" y="700" on="0"/>
        <pt x="626" y="495" on="0"/>
        <pt x="626" y="205" on="0"/>
        <pt x="422" y="0" on="0"/>
        <pt x="277" y="0" on="1"/>
        <pt x="159" y="0" on="1"/>
        <pt x="136" y="0" on="0"/>
        <pt x="104" y="32" on="0"/>
      </contour>
      <contour>
        <pt x="215" y="589" on="1"/>
        <pt x="215" y="111" on="1"/>
        <pt x="277" y="111" on="1"/>
        <pt x="376" y="112" on="0"/>
        <pt x="515" y="251" on="0"/>
        <pt x="515" y="449" on="0"/>
        <pt x="376" y="589" on="0"/>
        <pt x="277" y="589" on="1"/>
      </contour>
    </TTGlyph>
    <TTGlyph name="E" xMin="104" yMin="0" xMax="541" yMax="700">
      <contour>
        <pt x="159" y="0" on="1"/>
        <pt x="136" y="0" on="0"/>
        <pt x="104" y="32" on="0"/>
        <pt x="104" y="55" on="1"/>
        <pt x="104" y="645" on="1"/>
        <pt x="104" y="668" on="0"/>
        <pt x="136" y="700" on="0"/>
        <pt x="159" y="700" on="1"/>
        <pt x="486" y="700" on="1"/>
        <pt x="508" y="700" on="0"/>
        <pt x="541" y="668" on="0"/>
        <pt x="541" y="622" on="0"/>
        <pt x="508" y="589" on="0"/>
        <pt x="486" y="589" on="1"/>
        <pt x="215" y="589" on="1"/>
        <pt x="215" y="406" on="1"/>
        <pt x="448" y="406" on="1"/>
        <pt x="470" y="406" on="0"/>
        <pt x="503" y="373" on="0"/>
        <pt x="503" y="328" on="0"/>
        <pt x="471" y="295" on="0"/>
        <pt x="448" y="295" on="1"/>
        <pt x="215" y="295" on="1"/>
        <pt x="215" y="111" on="1"/>
        <pt x="486" y="111" on="1"/>
        <pt x="508" y="111" on="0"/>
        <pt x="541" y="78" on="0"/>
        <pt x="541" y="33" on="0"/>
        <pt x="508" y="0" on="0"/>
        <pt x="486" y="0" on="1"/>
        <pt x="162" y="0" on="1"/>
        <pt x="160" y="1" on="1"/>
      </contour>
    </TTGlyph>
    <TTGlyph name="Eacute" xMin="104" yMin="0" xMax="541" yMax="950">
      <contour>
        <pt x="159" y="0" on="1"/>
        <pt x="136" y="0" on="0"/>
        <pt x="104" y="32" on="0"/>
        <pt x="104" y="55" on="1"/>
        <pt x="104" y="645" on="1"/>
        <pt x="104" y="668" on="0"/>
        <pt x="136" y="700" on="0"/>
        <pt x="159" y="700" on="1"/>
        <pt x="486" y="700" on="1"/>
        <pt x="508" y="700" on="0"/>
        <pt x="541" y="668" on="0"/>
        <pt x="541" y="622" on="0"/>
        <pt x="508" y="589" on="0"/>
        <pt x="486" y="589" on="1"/>
        <pt x="215" y="589" on="1"/>
        <pt x="215" y="406" on="1"/>
        <pt x="448" y="406" on="1"/>
        <pt x="470" y="406" on="0"/>
        <pt x="503" y="373" on="0"/>
        <pt x="503" y="328" on="0"/>
        <pt x="471" y="295" on="0"/>
        <pt x="448" y="295" on="1"/>
        <pt x="215" y="295" on="1"/>
        <pt x="215" y="111" on="1"/>
        <pt x="486" y="111" on="1"/>
        <pt x="508" y="111" on="0"/>
        <pt x="541" y="78" on="0"/>
        <pt x="541" y="33" on="0"/>
        <pt x="508" y="0" on="0"/>
        <pt x="486" y="0" on="1"/>
        <pt x="162" y="0" on="1"/>
        <pt x="160" y="1" on="1"/>
      </contour>
      <contour>
        <pt x="446" y="817" on="1"/>
        <pt x="417" y="790" on="0"/>
        <pt x="345" y="790" on="0"/>
        <pt x="345" y="811" on="1"/>
        <pt x="345" y="821" on="0"/>
        <pt x="353" y="833" on="1"/>
        <pt x="410" y="921" on="1"/>
        <pt x="428" y="950" on="0"/>
        <pt x="483" y="950" on="0"/>
        <pt x="530" y="925" on="0"/>
        <pt x="530" y="896" on="0"/>
        <pt x="513" y="881" on="1"/>
      </contour>
    </TTGlyph>
    <TTGlyph name="Ecircumflex" xMin="104" yMin="0" xMax="541" yMax="946">
      <component glyphName="E" x="0" y="0" flags="0x1004"/>
      <component glyphName="circumflex" x="28" y="200" flags="0x1004"/>
    </TTGlyph>
    <TTGlyph name="Edieresis" xMin="104" yMin="0" xMax="541" yMax="901">
      <contour>
        <pt x="159" y="0" on="1"/>
        <pt x="136" y="0" on="0"/>
        <pt x="104" y="32" on="0"/>
        <pt x="104" y="55" on="1"/>
        <pt x="104" y="645" on="1"/>
        <pt x="104" y="668" on="0"/>
        <pt x="136" y="700" on="0"/>
        <pt x="159" y="700" on="1"/>
        <pt x="486" y="700" on="1"/>
        <pt x="508" y="700" on="0"/>
        <pt x="541" y="668" on="0"/>
        <pt x="541" y="622" on="0"/>
        <pt x="508" y="589" on="0"/>
        <pt x="486" y="589" on="1"/>
        <pt x="215" y="589" on="1"/>
        <pt x="215" y="406" on="1"/>
        <pt x="448" y="406" on="1"/>
        <pt x="470" y="406" on="0"/>
        <pt x="503" y="373" on="0"/>
        <pt x="503" y="328" on="0"/>
        <pt x="471" y="295" on="0"/>
        <pt x="448" y="295" on="1"/>
        <pt x="215" y="295" on="1"/>
        <pt x="215" y="111" on="1"/>
        <pt x="486" y="111" on="1"/>
        <pt x="508" y="111" on="0"/>
        <pt x="541" y="78" on="0"/>
        <pt x="541" y="33" on="0"/>
        <pt x="508" y="0" on="0"/>
        <pt x="486" y="0" on="1"/>
        <pt x="162" y="0" on="1"/>
        <pt x="160" y="1" on="1"/>
      </contour>
      <contour>
        <pt x="159" y="809" on="0"/>
        <pt x="159" y="863" on="0"/>
        <pt x="196" y="901" on="0"/>
        <pt x="250" y="901" on="0"/>
        <pt x="288" y="863" on="0"/>
        <pt x="288" y="809" on="0"/>
        <pt x="250" y="772" on="0"/>
        <pt x="196" y="772" on="0"/>
      </contour>
      <contour>
        <pt x="359" y="809" on="0"/>
        <pt x="359" y="863" on="0"/>
        <pt x="396" y="901" on="0"/>
        <pt x="450" y="901" on="0"/>
        <pt x="488" y="863" on="0"/>
        <pt x="488" y="809" on="0"/>
        <pt x="450" y="772" on="0"/>
        <pt x="396" y="772" on="0"/>
      </contour>
    </TTGlyph>
    <TTGlyph name="Egrave" xMin="104" yMin="0" xMax="541" yMax="950">
      <component glyphName="E" x="0" y="0" flags="0x1004"/>
      <component glyphName="grave" x="92" y="200" flags="0x1004"/>
    </TTGlyph>
    <TTGlyph name="Eth" xMin="55" yMin="0" xMax="673" yMax="700">
      <contour>
        <pt x="114" y="293" on="1"/>
        <pt x="90" y="293" on="0"/>
        <pt x="55" y="328" on="0"/>
        <pt x="55" y="377" on="0"/>
        <pt x="90" y="412" on="0"/>
        <pt x="114" y="412" on="1"/>
        <pt x="151" y="412" on="1"/>
        <pt x="151" y="645" on="1"/>
        <pt x="151" y="668" on="0"/>
        <pt x="183" y="700" on="0"/>
        <pt x="206" y="700" on="1"/>
        <pt x="324" y="700" on="1"/>
        <pt x="469" y="700" on="0"/>
        <pt x="673" y="495" on="0"/>
        <pt x="673" y="205" on="0"/>
        <pt x="469" y="0" on="0"/>
        <pt x="324" y="0" on="1"/>
        <pt x="206" y="0" on="1"/>
        <pt x="183" y="0" on="0"/>
        <pt x="151" y="32" on="0"/>
        <pt x="151" y="55" on="1"/>
        <pt x="151" y="293" on="1"/>
      </contour>
      <contour>
        <pt x="262" y="589" on="1"/>
        <pt x="262" y="412" on="1"/>
        <pt x="302" y="412" on="1"/>
        <pt x="326" y="412" on="0"/>
        <pt x="361" y="377" on="0"/>
        <pt x="361" y="328" on="0"/>
        <pt x="326" y="293" on="0"/>
        <pt x="302" y="293" on="1"/>
        <pt x="262" y="293" on="1"/>
        <pt x="262" y="111" on="1"/>
        <pt x="324" y="111" on="1"/>
        <pt x="423" y="112" on="0"/>
        <pt x="562" y="251" on="0"/>
        <pt x="562" y="449" on="0"/>
        <pt x="423" y="589" on="0"/>
        <pt x="324" y="589" on="1"/>
      </contour>
    </TTGlyph>
    <TTGlyph name="F" xMin="104" yMin="0" xMax="541" yMax="700">
      <contour>
        <pt x="182" y="0" on="0"/>
        <pt x="136" y="0" on="0"/>
        <pt x="104" y="32" on="0"/>
        <pt x="104" y="55" on="1"/>
        <pt x="104" y="645" on="1"/>
        <pt x="104" y="668" on="0"/>
        <pt x="136" y="700" on="0"/>
        <pt x="159" y="700" on="1"/>
        <pt x="486" y="700" on="1"/>
        <pt x="508" y="700" on="0"/>
        <pt x="541" y="667" on="0"/>
        <pt x="541" y="622" on="0"/>
        <pt x="508" y="589" on="0"/>
        <pt x="486" y="589" on="1"/>
        <pt x="215" y="589" on="1"/>
        <pt x="215" y="406" on="1"/>
        <pt x="448" y="406" on="1"/>
        <pt x="470" y="406" on="0"/>
        <pt x="503" y="373" on="0"/>
        <pt x="503" y="328" on="0"/>
        <pt x="471" y="295" on="0"/>
        <pt x="448" y="295" on="1"/>
        <pt x="215" y="295" on="1"/>
        <pt x="215" y="55" on="1"/>
        <pt x="215" y="32" on="0"/>
      </contour>
    </TTGlyph>
    <TTGlyph name="G" xMin="73" yMin="0" xMax="693" yMax="720">
      <contour>
        <pt x="693" y="125" on="1"/>
        <pt x="693" y="113" on="0"/>
        <pt x="688" y="103" on="1"/>
        <pt x="688" y="102" on="1"/>
        <pt x="683" y="88" on="0"/>
        <pt x="669" y="78" on="1"/>
        <pt x="569" y="0" on="0"/>
        <pt x="442" y="0" on="1"/>
        <pt x="289" y="0" on="0"/>
        <pt x="73" y="209" on="0"/>
        <pt x="73" y="509" on="0"/>
        <pt x="289" y="720" on="0"/>
        <pt x="442" y="720" on="1"/>
        <pt x="571" y="720" on="0"/>
        <pt x="670" y="642" on="1"/>
        <pt x="689" y="628" on="0"/>
        <pt x="695" y="580" on="0"/>
        <pt x="667" y="543" on="0"/>
        <pt x="619" y="537" on="0"/>
        <pt x="600" y="552" on="1"/>
        <pt x="530" y="606" on="0"/>
        <pt x="337" y="606" on="0"/>
        <pt x="187" y="462" on="0"/>
        <pt x="187" y="258" on="0"/>
        <pt x="338" y="114" on="0"/>
        <pt x="442" y="114" on="1"/>
        <pt x="513" y="114" on="0"/>
        <pt x="579" y="152" on="1"/>
        <pt x="579" y="289" on="1"/>
        <pt x="436" y="289" on="1"/>
        <pt x="413" y="289" on="0"/>
        <pt x="379" y="323" on="0"/>
        <pt x="379" y="370" on="0"/>
        <pt x="412" y="402" on="0"/>
        <pt x="436" y="402" on="1"/>
        <pt x="635" y="402" on="1"/>
        <pt x="659" y="402" on="0"/>
        <pt x="693" y="370" on="0"/>
        <pt x="693" y="346" on="1"/>
      </contour>
    </TTGlyph>
    <TTGlyph name="H" xMin="104" yMin="0" xMax="585" yMax="700">
      <contour>
        <pt x="182" y="0" on="0"/>
        <pt x="136" y="0" on="0"/>
        <pt x="104" y="32" on="0"/>
        <pt x="104" y="55" on="1"/>
        <pt x="104" y="645" on="1"/>
        <pt x="104" y="668" on="0"/>
        <pt x="136" y="700" on="0"/>
        <pt x="182" y="700" on="0"/>
        <pt x="215" y="668" on="0"/>
        <pt x="215" y="645" on="1"/>
        <pt x="215" y="405" on="1"/>
        <pt x="474" y="405" on="1"/>
        <pt x="474" y="645" on="1"/>
        <pt x="474" y="668" on="0"/>
        <pt x="506" y="700" on="0"/>
        <pt x="552" y="700" on="0"/>
        <pt x="585" y="668" on="0"/>
        <pt x="585" y="645" on="1"/>
        <pt x="585" y="55" on="1"/>
        <pt x="585" y="32" on="0"/>
        <pt x="552" y="0" on="0"/>
        <pt x="506" y="0" on="0"/>
        <pt x="474" y="32" on="0"/>
        <pt x="474" y="55" on="1"/>
        <pt x="474" y="295" on="1"/>
        <pt x="215" y="295" on="1"/>
        <pt x="215" y="55" on="1"/>
        <pt x="215" y="32" on="0"/>
      </contour>
    </TTGlyph>
    <TTGlyph name="I" xMin="111" yMin="0" xMax="222" yMax="700">
      <contour>
        <pt x="111" y="645" on="1"/>
        <pt x="111" y="668" on="0"/>
        <pt x="143" y="700" on="0"/>
        <pt x="189" y="700" on="0"/>
        <pt x="222" y="668" on="0"/>
        <pt x="222" y="645" on="1"/>
        <pt x="222" y="55" on="1"/>
        <pt x="222" y="32" on="0"/>
        <pt x="189" y="0" on="0"/>
        <pt x="143" y="0" on="0"/>
        <pt x="111" y="32" on="0"/>
        <pt x="111" y="55" on="1"/>
      </contour>
    </TTGlyph>
    <TTGlyph name="Iacute" xMin="83" yMin="0" xMax="347" yMax="950">
      <contour>
        <pt x="83" y="55" on="1"/>
        <pt x="83" y="32" on="0"/>
        <pt x="115" y="0" on="0"/>
        <pt x="161" y="0" on="0"/>
        <pt x="194" y="32" on="0"/>
        <pt x="194" y="55" on="1"/>
        <pt x="194" y="645" on="1"/>
        <pt x="194" y="668" on="0"/>
        <pt x="161" y="700" on="0"/>
        <pt x="115" y="700" on="0"/>
        <pt x="83" y="668" on="0"/>
        <pt x="83" y="645" on="1"/>
      </contour>
      <contour>
        <pt x="263" y="817" on="1"/>
        <pt x="234" y="790" on="0"/>
        <pt x="162" y="790" on="0"/>
        <pt x="162" y="811" on="1"/>
        <pt x="162" y="821" on="0"/>
        <pt x="170" y="833" on="1"/>
        <pt x="227" y="921" on="1"/>
        <pt x="245" y="950" on="0"/>
        <pt x="300" y="950" on="0"/>
        <pt x="347" y="925" on="0"/>
        <pt x="347" y="896" on="0"/>
        <pt x="330" y="881" on="1"/>
      </contour>
    </TTGlyph>
    <TTGlyph name="Icircumflex" xMin="1" yMin="0" xMax="309" yMax="946">
      <contour>
        <pt x="102" y="55" on="1"/>
        <pt x="102" y="32" on="0"/>
        <pt x="134" y="0" on="0"/>
        <pt x="180" y="0" on="0"/>
        <pt x="213" y="32" on="0"/>
        <pt x="213" y="55" on="1"/>
        <pt x="213" y="645" on="1"/>
        <pt x="213" y="668" on="0"/>
        <pt x="180" y="700" on="0"/>
        <pt x="134" y="700" on="0"/>
        <pt x="102" y="668" on="0"/>
        <pt x="102" y="645" on="1"/>
      </contour>
      <contour>
        <pt x="154" y="862" on="1"/>
        <pt x="102" y="817" on="1"/>
        <pt x="70" y="790" on="0"/>
        <pt x="28" y="790" on="1"/>
        <pt x="1" y="790" on="0"/>
        <pt x="1" y="810" on="1"/>
        <pt x="1" y="818" on="0"/>
        <pt x="13" y="834" on="1"/>
        <pt x="79" y="917" on="1"/>
        <pt x="103" y="946" on="0"/>
        <pt x="137" y="946" on="1"/>
        <pt x="173" y="946" on="1"/>
        <pt x="208" y="946" on="0"/>
        <pt x="231" y="917" on="1"/>
        <pt x="297" y="834" on="1"/>
        <pt x="309" y="818" on="0"/>
        <pt x="309" y="810" on="1"/>
        <pt x="309" y="790" on="0"/>
        <pt x="239" y="790" on="0"/>
        <pt x="206" y="817" on="1"/>
      </contour>
    </TTGlyph>
    <TTGlyph name="Idieresis" xMin="-8" yMin="0" xMax="321" yMax="901">
      <contour>
        <pt x="102" y="55" on="1"/>
        <pt x="102" y="32" on="0"/>
        <pt x="134" y="0" on="0"/>
        <pt x="180" y="0" on="0"/>
        <pt x="213" y="32" on="0"/>
        <pt x="213" y="55" on="1"/>
        <pt x="213" y="645" on="1"/>
        <pt x="213" y="668" on="0"/>
        <pt x="180" y="700" on="0"/>
        <pt x="134" y="700" on="0"/>
        <pt x="102" y="668" on="0"/>
        <pt x="102" y="645" on="1"/>
      </contour>
      <contour>
        <pt x="-8" y="809" on="0"/>
        <pt x="-8" y="863" on="0"/>
        <pt x="29" y="901" on="0"/>
        <pt x="83" y="901" on="0"/>
        <pt x="121" y="863" on="0"/>
        <pt x="121" y="809" on="0"/>
        <pt x="83" y="772" on="0"/>
        <pt x="29" y="772" on="0"/>
      </contour>
      <contour>
        <pt x="192" y="809" on="0"/>
        <pt x="192" y="863" on="0"/>
        <pt x="229" y="901" on="0"/>
        <pt x="283" y="901" on="0"/>
        <pt x="321" y="863" on="0"/>
        <pt x="321" y="809" on="0"/>
        <pt x="283" y="772" on="0"/>
        <pt x="229" y="772" on="0"/>
      </contour>
    </TTGlyph>
    <TTGlyph name="Igrave" xMin="148" yMin="0" xMax="334" yMax="950">
      <contour>
        <pt x="161" y="55" on="1"/>
        <pt x="161" y="32" on="0"/>
        <pt x="193" y="0" on="0"/>
        <pt x="239" y="0" on="0"/>
        <pt x="272" y="32" on="0"/>
        <pt x="272" y="55" on="1"/>
        <pt x="272" y="645" on="1"/>
        <pt x="272" y="668" on="0"/>
        <pt x="239" y="700" on="0"/>
        <pt x="193" y="700" on="0"/>
        <pt x="161" y="668" on="0"/>
        <pt x="161" y="645" on="1"/>
      </contour>
      <contour>
        <pt x="334" y="811" on="1"/>
        <pt x="334" y="790" on="0"/>
        <pt x="261" y="790" on="0"/>
        <pt x="233" y="817" on="1"/>
        <pt x="165" y="881" on="1"/>
        <pt x="148" y="896" on="0"/>
        <pt x="148" y="925" on="0"/>
        <pt x="195" y="950" on="0"/>
        <pt x="250" y="950" on="0"/>
        <pt x="268" y="921" on="1"/>
        <pt x="325" y="833" on="1"/>
        <pt x="334" y="819" on="0"/>
      </contour>
    </TTGlyph>
    <TTGlyph name="J" xMin="52" yMin="0" xMax="537" yMax="700">
      <contour>
        <pt x="45" y="194" on="0"/>
        <pt x="66" y="235" on="0"/>
        <pt x="109" y="248" on="0"/>
        <pt x="150" y="228" on="0"/>
        <pt x="157" y="206" on="1"/>
        <pt x="171" y="164" on="0"/>
        <pt x="243" y="111" on="0"/>
        <pt x="345" y="111" on="0"/>
        <pt x="426" y="192" on="0"/>
        <pt x="426" y="248" on="1"/>
        <pt x="426" y="645" on="1"/>
        <pt x="426" y="668" on="0"/>
        <pt x="459" y="700" on="0"/>
        <pt x="505" y="700" on="0"/>
        <pt x="537" y="668" on="0"/>
        <pt x="537" y="645" on="1"/>
        <pt x="537" y="248" on="1"/>
        <pt x="537" y="145" on="0"/>
        <pt x="391" y="0" on="0"/>
        <pt x="288" y="0" on="1"/>
        <pt x="206" y="0" on="0"/>
        <pt x="76" y="96" on="0"/>
        <pt x="52" y="172" on="1"/>
      </contour>
    </TTGlyph>
    <TTGlyph name="K" xMin="104" yMin="0" xMax="632" yMax="695">
      <contour>
        <pt x="182" y="0" on="0"/>
        <pt x="136" y="0" on="0"/>
        <pt x="104" y="32" on="0"/>
        <pt x="104" y="55" on="1"/>
        <pt x="104" y="640" on="1"/>
        <pt x="104" y="662" on="0"/>
        <pt x="136" y="695" on="0"/>
        <pt x="182" y="695" on="0"/>
        <pt x="214" y="662" on="0"/>
        <pt x="214" y="640" on="1"/>
        <pt x="214" y="353" on="1"/>
        <pt x="538" y="678" on="1"/>
        <pt x="554" y="694" on="0"/>
        <pt x="600" y="694" on="0"/>
        <pt x="632" y="662" on="0"/>
        <pt x="632" y="616" on="0"/>
        <pt x="616" y="600" on="1"/>
        <pt x="396" y="381" on="1"/>
        <pt x="618" y="90" on="1"/>
        <pt x="641" y="63" on="0"/>
        <pt x="608" y="0" on="0"/>
        <pt x="551" y="0" on="0"/>
        <pt x="534" y="20" on="1"/>
        <pt x="318" y="303" on="1"/>
        <pt x="214" y="197" on="1"/>
        <pt x="214" y="55" on="1"/>
        <pt x="214" y="32" on="0"/>
      </contour>
    </TTGlyph>
    <TTGlyph name="L" xMin="104" yMin="0" xMax="541" yMax="700">
      <contour>
        <pt x="159" y="0" on="1"/>
        <pt x="136" y="0" on="0"/>
        <pt x="104" y="32" on="0"/>
        <pt x="104" y="55" on="1"/>
        <pt x="104" y="645" on="1"/>
        <pt x="104" y="668" on="0"/>
        <pt x="136" y="700" on="0"/>
        <pt x="182" y="700" on="0"/>
        <pt x="215" y="668" on="0"/>
        <pt x="215" y="645" on="1"/>
        <pt x="215" y="111" on="1"/>
        <pt x="486" y="111" on="1"/>
        <pt x="508" y="111" on="0"/>
        <pt x="541" y="78" on="0"/>
        <pt x="541" y="33" on="0"/>
        <pt x="508" y="0" on="0"/>
        <pt x="486" y="0" on="1"/>
      </contour>
    </TTGlyph>
    <TTGlyph name="M" xMin="104" yMin="0" xMax="706" yMax="700">
      <contour>
        <pt x="406" y="253" on="1"/>
        <pt x="404" y="253" on="1"/>
        <pt x="375" y="253" on="0"/>
        <pt x="358" y="276" on="1"/>
        <pt x="215" y="476" on="1"/>
        <pt x="215" y="55" on="1"/>
        <pt x="215" y="32" on="0"/>
        <pt x="182" y="0" on="0"/>
        <pt x="136" y="0" on="0"/>
        <pt x="104" y="32" on="0"/>
        <pt x="104" y="55" on="1"/>
        <pt x="104" y="645" on="1"/>
        <pt x="104" y="668" on="0"/>
        <pt x="136" y="700" on="0"/>
        <pt x="159" y="700" on="1"/>
        <pt x="162" y="700" on="1"/>
        <pt x="191" y="700" on="0"/>
        <pt x="206" y="677" on="1"/>
        <pt x="405" y="401" on="1"/>
        <pt x="604" y="677" on="1"/>
        <pt x="621" y="700" on="0"/>
        <pt x="649" y="700" on="1"/>
        <pt x="650" y="700" on="1"/>
        <pt x="673" y="699" on="0"/>
        <pt x="706" y="667" on="0"/>
        <pt x="706" y="645" on="1"/>
        <pt x="706" y="55" on="1"/>
        <pt x="706" y="33" on="0"/>
        <pt x="673" y="0" on="0"/>
        <pt x="627" y="0" on="0"/>
        <pt x="595" y="32" on="0"/>
        <pt x="595" y="55" on="1"/>
        <pt x="595" y="476" on="1"/>
        <pt x="451" y="276" on="1"/>
        <pt x="434" y="253" on="0"/>
      </contour>
    </TTGlyph>
    <TTGlyph name="N" xMin="105" yMin="0" xMax="635" yMax="693">
      <contour>
        <pt x="214" y="470" on="1"/>
        <pt x="214" y="55" on="1"/>
        <pt x="214" y="33" on="0"/>
        <pt x="182" y="0" on="0"/>
        <pt x="137" y="0" on="0"/>
        <pt x="105" y="32" on="0"/>
        <pt x="105" y="55" on="1"/>
        <pt x="105" y="637" on="1"/>
        <pt x="103" y="666" on="0"/>
        <pt x="146" y="696" on="0"/>
        <pt x="190" y="689" on="0"/>
        <pt x="203" y="671" on="1"/>
        <pt x="526" y="224" on="1"/>
        <pt x="526" y="636" on="1"/>
        <pt x="526" y="658" on="0"/>
        <pt x="558" y="690" on="0"/>
        <pt x="602" y="690" on="0"/>
        <pt x="635" y="658" on="0"/>
        <pt x="635" y="636" on="1"/>
        <pt x="635" y="55" on="1"/>
        <pt x="635" y="32" on="0"/>
        <pt x="602" y="0" on="0"/>
        <pt x="556" y="0" on="0"/>
        <pt x="539" y="20" on="1"/>
        <pt x="535" y="24" on="0"/>
        <pt x="534" y="26" on="1"/>
      </contour>
    </TTGlyph>
    <TTGlyph name="Ntilde" xMin="105" yMin="0" xMax="635" yMax="942">
      <contour>
        <pt x="214" y="470" on="1"/>
        <pt x="214" y="55" on="1"/>
        <pt x="214" y="33" on="0"/>
        <pt x="182" y="0" on="0"/>
        <pt x="137" y="0" on="0"/>
        <pt x="105" y="32" on="0"/>
        <pt x="105" y="55" on="1"/>
        <pt x="105" y="637" on="1"/>
        <pt x="103" y="666" on="0"/>
        <pt x="146" y="696" on="0"/>
        <pt x="190" y="689" on="0"/>
        <pt x="203" y="671" on="1"/>
        <pt x="526" y="224" on="1"/>
        <pt x="526" y="636" on="1"/>
        <pt x="526" y="658" on="0"/>
        <pt x="558" y="690" on="0"/>
        <pt x="602" y="690" on="0"/>
        <pt x="635" y="658" on="0"/>
        <pt x="635" y="636" on="1"/>
        <pt x="635" y="55" on="1"/>
        <pt x="635" y="32" on="0"/>
        <pt x="602" y="0" on="0"/>
        <pt x="556" y="0" on="0"/>
        <pt x="539" y="20" on="1"/>
        <pt x="535" y="24" on="0"/>
        <pt x="534" y="26" on="1"/>
      </contour>
      <contour>
        <pt x="257" y="803" on="1"/>
        <pt x="244" y="783" on="0"/>
        <pt x="209" y="783" on="0"/>
        <pt x="187" y="803" on="0"/>
        <pt x="187" y="825" on="0"/>
        <pt x="191" y="839" on="1"/>
        <pt x="208" y="885" on="0"/>
        <pt x="255" y="930" on="0"/>
        <pt x="323" y="930" on="0"/>
        <pt x="421" y="890" on="0"/>
        <pt x="437" y="890" on="1"/>
        <pt x="466" y="890" on="0"/>
        <pt x="483" y="922" on="1"/>
        <pt x="496" y="942" on="0"/>
        <pt x="531" y="942" on="0"/>
        <pt x="553" y="922" on="0"/>
        <pt x="553" y="900" on="0"/>
        <pt x="549" y="886" on="1"/>
        <pt x="532" y="840" on="0"/>
        <pt x="485" y="795" on="0"/>
        <pt x="417" y="795" on="0"/>
        <pt x="319" y="835" on="0"/>
        <pt x="303" y="835" on="1"/>
        <pt x="274" y="835" on="0"/>
      </contour>
    </TTGlyph>
    <TTGlyph name="O" xMin="73" yMin="0" xMax="757" yMax="720">
      <contour>
        <pt x="73" y="212" on="0"/>
        <pt x="73" y="508" on="0"/>
        <pt x="272" y="720" on="0"/>
        <pt x="558" y="720" on="0"/>
        <pt x="757" y="505" on="0"/>
        <pt x="757" y="213" on="0"/>
        <pt x="656" y="107" on="1"/>
        <pt x="611" y="57" on="0"/>
        <pt x="485" y="0" on="0"/>
        <pt x="417" y="0" on="1"/>
        <pt x="272" y="0" on="0"/>
      </contour>
      <contour>
        <pt x="187" y="259" on="0"/>
        <pt x="321" y="114" on="0"/>
        <pt x="510" y="114" on="0"/>
        <pt x="643" y="261" on="0"/>
        <pt x="643" y="459" on="0"/>
        <pt x="511" y="606" on="0"/>
        <pt x="320" y="606" on="0"/>
        <pt x="187" y="461" on="0"/>
      </contour>
    </TTGlyph>
    <TTGlyph name="OE" xMin="73" yMin="0" xMax="1097" yMax="720">
      <contour>
        <pt x="73" y="212" on="0"/>
        <pt x="73" y="508" on="0"/>
        <pt x="272" y="720" on="0"/>
        <pt x="417" y="720" on="1"/>
        <pt x="485" y="720" on="0"/>
        <pt x="611" y="663" on="0"/>
        <pt x="656" y="613" on="1"/>
        <pt x="657" y="611" on="0"/>
        <pt x="660" y="608" on="1"/>
        <pt x="660" y="645" on="1"/>
        <pt x="660" y="668" on="0"/>
        <pt x="692" y="700" on="0"/>
        <pt x="715" y="700" on="1"/>
        <pt x="1042" y="700" on="1"/>
        <pt x="1064" y="700" on="0"/>
        <pt x="1097" y="668" on="0"/>
        <pt x="1097" y="622" on="0"/>
        <pt x="1064" y="589" on="0"/>
        <pt x="1042" y="589" on="1"/>
        <pt x="771" y="589" on="1"/>
        <pt x="771" y="406" on="1"/>
        <pt x="1004" y="406" on="1"/>
        <pt x="1026" y="406" on="0"/>
        <pt x="1059" y="373" on="0"/>
        <pt x="1059" y="328" on="0"/>
        <pt x="1027" y="295" on="0"/>
        <pt x="1004" y="295" on="1"/>
        <pt x="771" y="295" on="1"/>
        <pt x="771" y="111" on="1"/>
        <pt x="1042" y="111" on="1"/>
        <pt x="1064" y="111" on="0"/>
        <pt x="1097" y="78" on="0"/>
        <pt x="1097" y="33" on="0"/>
        <pt x="1064" y="0" on="0"/>
        <pt x="1042" y="0" on="1"/>
        <pt x="718" y="0" on="1"/>
        <pt x="716" y="1" on="1"/>
        <pt x="715" y="0" on="1"/>
        <pt x="692" y="0" on="0"/>
        <pt x="660" y="32" on="0"/>
        <pt x="660" y="55" on="1"/>
        <pt x="660" y="111" on="1"/>
        <pt x="656" y="107" on="1"/>
        <pt x="611" y="57" on="0"/>
        <pt x="485" y="0" on="0"/>
        <pt x="417" y="0" on="1"/>
        <pt x="272" y="0" on="0"/>
      </contour>
      <contour>
        <pt x="187" y="259" on="0"/>
        <pt x="321" y="114" on="0"/>
        <pt x="510" y="114" on="0"/>
        <pt x="643" y="261" on="0"/>
        <pt x="643" y="459" on="0"/>
        <pt x="511" y="606" on="0"/>
        <pt x="320" y="606" on="0"/>
        <pt x="187" y="461" on="0"/>
      </contour>
    </TTGlyph>
    <TTGlyph name="Oacute" xMin="73" yMin="0" xMax="757" yMax="950">
      <contour>
        <pt x="73" y="212" on="0"/>
        <pt x="73" y="508" on="0"/>
        <pt x="272" y="720" on="0"/>
        <pt x="558" y="720" on="0"/>
        <pt x="757" y="505" on="0"/>
        <pt x="757" y="213" on="0"/>
        <pt x="656" y="107" on="1"/>
        <pt x="611" y="57" on="0"/>
        <pt x="485" y="0" on="0"/>
        <pt x="417" y="0" on="1"/>
        <pt x="272" y="0" on="0"/>
      </contour>
      <contour>
        <pt x="187" y="259" on="0"/>
        <pt x="321" y="114" on="0"/>
        <pt x="510" y="114" on="0"/>
        <pt x="643" y="261" on="0"/>
        <pt x="643" y="459" on="0"/>
        <pt x="511" y="606" on="0"/>
        <pt x="320" y="606" on="0"/>
        <pt x="187" y="461" on="0"/>
      </contour>
      <contour>
        <pt x="541" y="817" on="1"/>
        <pt x="512" y="790" on="0"/>
        <pt x="440" y="790" on="0"/>
        <pt x="440" y="811" on="1"/>
        <pt x="440" y="821" on="0"/>
        <pt x="448" y="833" on="1"/>
        <pt x="505" y="921" on="1"/>
        <pt x="523" y="950" on="0"/>
        <pt x="578" y="950" on="0"/>
        <pt x="625" y="925" on="0"/>
        <pt x="625" y="896" on="0"/>
        <pt x="608" y="881" on="1"/>
      </contour>
    </TTGlyph>
    <TTGlyph name="Ocircumflex" xMin="73" yMin="0" xMax="757" yMax="946">
      <component glyphName="O" x="0" y="0" flags="0x1004"/>
      <component glyphName="circumflex" x="118" y="200" flags="0x1004"/>
    </TTGlyph>
    <TTGlyph name="Odieresis" xMin="73" yMin="0" xMax="757" yMax="901">
      <component glyphName="O" x="0" y="0" flags="0x1004"/>
      <component glyphName="dieresis" x="118" y="200" flags="0x1004"/>
    </TTGlyph>
    <TTGlyph name="Ograve" xMin="73" yMin="0" xMax="757" yMax="950">
      <component glyphName="O" x="0" y="0" flags="0x1004"/>
      <component glyphName="grave" x="185" y="200" flags="0x1004"/>
    </TTGlyph>
    <TTGlyph name="Oslash" xMin="73" yMin="-12" xMax="805" yMax="712">
      <contour>
        <pt x="438" y="-12" on="1"/>
        <pt x="314" y="-12" on="0"/>
        <pt x="220" y="55" on="1"/>
        <pt x="172" y="7" on="1"/>
        <pt x="157" y="-10" on="0"/>
        <pt x="115" y="-10" on="0"/>
        <pt x="91" y="13" on="0"/>
        <pt x="91" y="50" on="0"/>
        <pt x="108" y="67" on="1"/>
        <pt x="155" y="116" on="1"/>
        <pt x="73" y="215" on="0"/>
        <pt x="73" y="348" on="1"/>
        <pt x="73" y="350" on="1"/>
        <pt x="73" y="500" on="0"/>
        <pt x="281" y="712" on="0"/>
        <pt x="440" y="712" on="1"/>
        <pt x="565" y="712" on="0"/>
        <pt x="658" y="644" on="1"/>
        <pt x="706" y="693" on="1"/>
        <pt x="723" y="710" on="0"/>
        <pt x="762" y="710" on="0"/>
        <pt x="787" y="687" on="0"/>
        <pt x="787" y="650" on="0"/>
        <pt x="770" y="633" on="1"/>
        <pt x="723" y="584" on="1"/>
        <pt x="805" y="485" on="0"/>
        <pt x="805" y="352" on="1"/>
        <pt x="805" y="350" on="1"/>
        <pt x="805" y="200" on="0"/>
        <pt x="597" y="-12" on="0"/>
      </contour>
      <contour>
        <pt x="200" y="350" on="1"/>
        <pt x="200" y="271" on="0"/>
        <pt x="242" y="207" on="1"/>
        <pt x="576" y="556" on="1"/>
        <pt x="515" y="601" on="0"/>
        <pt x="438" y="601" on="1"/>
        <pt x="335" y="601" on="0"/>
        <pt x="200" y="456" on="0"/>
        <pt x="200" y="352" on="1"/>
      </contour>
      <contour>
        <pt x="440" y="99" on="1"/>
        <pt x="543" y="99" on="0"/>
        <pt x="678" y="244" on="0"/>
        <pt x="678" y="348" on="1"/>
        <pt x="678" y="350" on="1"/>
        <pt x="678" y="427" on="0"/>
        <pt x="636" y="493" on="1"/>
        <pt x="301" y="143" on="1"/>
        <pt x="362" y="99" on="0"/>
      </contour>
    </TTGlyph>
    <TTGlyph name="Otilde" xMin="73" yMin="0" xMax="757" yMax="942">
      <contour>
        <pt x="73" y="212" on="0"/>
        <pt x="73" y="508" on="0"/>
        <pt x="272" y="720" on="0"/>
        <pt x="558" y="720" on="0"/>
        <pt x="757" y="505" on="0"/>
        <pt x="757" y="213" on="0"/>
        <pt x="656" y="107" on="1"/>
        <pt x="611" y="57" on="0"/>
        <pt x="485" y="0" on="0"/>
        <pt x="417" y="0" on="1"/>
        <pt x="272" y="0" on="0"/>
      </contour>
      <contour>
        <pt x="187" y="259" on="0"/>
        <pt x="321" y="114" on="0"/>
        <pt x="510" y="114" on="0"/>
        <pt x="643" y="261" on="0"/>
        <pt x="643" y="459" on="0"/>
        <pt x="511" y="606" on="0"/>
        <pt x="320" y="606" on="0"/>
        <pt x="187" y="461" on="0"/>
      </contour>
      <contour>
        <pt x="301" y="803" on="1"/>
        <pt x="288" y="783" on="0"/>
        <pt x="253" y="783" on="0"/>
        <pt x="231" y="803" on="0"/>
        <pt x="231" y="825" on="0"/>
        <pt x="235" y="839" on="1"/>
        <pt x="252" y="885" on="0"/>
        <pt x="299" y="930" on="0"/>
        <pt x="367" y="930" on="0"/>
        <pt x="465" y="890" on="0"/>
        <pt x="481" y="890" on="1"/>
        <pt x="510" y="890" on="0"/>
        <pt x="527" y="922" on="1"/>
        <pt x="540" y="942" on="0"/>
        <pt x="575" y="942" on="0"/>
        <pt x="597" y="922" on="0"/>
        <pt x="597" y="900" on="0"/>
        <pt x="593" y="886" on="1"/>
        <pt x="576" y="840" on="0"/>
        <pt x="529" y="795" on="0"/>
        <pt x="461" y="795" on="0"/>
        <pt x="363" y="835" on="0"/>
        <pt x="347" y="835" on="1"/>
        <pt x="318" y="835" on="0"/>
      </contour>
    </TTGlyph>
    <TTGlyph name="P" xMin="104" yMin="0" xMax="553" yMax="700">
      <contour>
        <pt x="427" y="700" on="0"/>
        <pt x="553" y="574" on="0"/>
        <pt x="553" y="397" on="0"/>
        <pt x="427" y="272" on="0"/>
        <pt x="338" y="272" on="1"/>
        <pt x="215" y="272" on="1"/>
        <pt x="215" y="55" on="1"/>
        <pt x="215" y="32" on="0"/>
        <pt x="182" y="0" on="0"/>
        <pt x="136" y="0" on="0"/>
        <pt x="104" y="32" on="0"/>
        <pt x="104" y="55" on="1"/>
        <pt x="104" y="645" on="1"/>
        <pt x="104" y="668" on="0"/>
        <pt x="136" y="700" on="0"/>
        <pt x="159" y="700" on="1"/>
        <pt x="338" y="700" on="1"/>
      </contour>
      <contour>
        <pt x="215" y="589" on="1"/>
        <pt x="215" y="383" on="1"/>
        <pt x="338" y="383" on="1"/>
        <pt x="381" y="383" on="0"/>
        <pt x="441" y="443" on="0"/>
        <pt x="442" y="485" on="1"/>
        <pt x="441" y="529" on="0"/>
        <pt x="381" y="589" on="0"/>
        <pt x="338" y="589" on="1"/>
      </contour>
    </TTGlyph>
    <TTGlyph name="Q" xMin="66" yMin="-162" xMax="833" yMax="710">
      <contour>
        <pt x="166" y="80" on="1"/>
        <pt x="66" y="191" on="0"/>
        <pt x="66" y="492" on="0"/>
        <pt x="270" y="710" on="0"/>
        <pt x="566" y="710" on="0"/>
        <pt x="664" y="599" on="1"/>
        <pt x="766" y="492" on="0"/>
        <pt x="766" y="188" on="0"/>
        <pt x="664" y="80" on="1"/>
        <pt x="617" y="31" on="0"/>
        <pt x="553" y="1" on="1"/>
        <pt x="530" y="-8" on="1"/>
        <pt x="596" y="-44" on="0"/>
        <pt x="690" y="-44" on="0"/>
        <pt x="740" y="-6" on="1"/>
        <pt x="759" y="9" on="0"/>
        <pt x="806" y="3" on="0"/>
        <pt x="836" y="-35" on="0"/>
        <pt x="830" y="-83" on="0"/>
        <pt x="810" y="-99" on="1"/>
        <pt x="728" y="-162" on="0"/>
        <pt x="645" y="-162" on="1"/>
        <pt x="642" y="-162" on="1"/>
        <pt x="560" y="-162" on="0"/>
        <pt x="459" y="-102" on="1"/>
        <pt x="432" y="-87" on="0"/>
        <pt x="377" y="-87" on="0"/>
        <pt x="332" y="-100" on="0"/>
        <pt x="327" y="-104" on="1"/>
        <pt x="295" y="-122" on="0"/>
        <pt x="269" y="-101" on="1"/>
        <pt x="266" y="-98" on="0"/>
        <pt x="261" y="-98" on="1"/>
        <pt x="233" y="-59" on="0"/>
        <pt x="252" y="-9" on="0"/>
        <pt x="274" y="2" on="1"/>
        <pt x="277" y="4" on="1"/>
        <pt x="216" y="33" on="0"/>
      </contour>
      <contour>
        <pt x="515" y="89" on="0"/>
        <pt x="650" y="237" on="0"/>
        <pt x="650" y="444" on="0"/>
        <pt x="514" y="592" on="0"/>
        <pt x="318" y="592" on="0"/>
        <pt x="253" y="519" on="1"/>
        <pt x="184" y="448" on="0"/>
        <pt x="184" y="238" on="0"/>
        <pt x="317" y="89" on="0"/>
      </contour>
    </TTGlyph>
    <TTGlyph name="R" xMin="90" yMin="0" xMax="567" yMax="700">
      <contour>
        <pt x="460" y="321" on="1"/>
        <pt x="528" y="269" on="0"/>
        <pt x="528" y="176" on="1"/>
        <pt x="527" y="143" on="0"/>
        <pt x="532" y="117" on="1"/>
        <pt x="558" y="109" on="0"/>
        <pt x="576" y="56" on="0"/>
        <pt x="542" y="10" on="0"/>
        <pt x="510" y="10" on="1"/>
        <pt x="509" y="10" on="1"/>
        <pt x="464" y="10" on="0"/>
        <pt x="438" y="56" on="1"/>
        <pt x="417" y="100" on="0"/>
        <pt x="417" y="176" on="1"/>
        <pt x="415" y="222" on="0"/>
        <pt x="375" y="248" on="1"/>
        <pt x="349" y="265" on="0"/>
        <pt x="319" y="272" on="1"/>
        <pt x="201" y="272" on="1"/>
        <pt x="201" y="55" on="1"/>
        <pt x="201" y="32" on="0"/>
        <pt x="168" y="0" on="0"/>
        <pt x="122" y="0" on="0"/>
        <pt x="90" y="32" on="0"/>
        <pt x="90" y="55" on="1"/>
        <pt x="90" y="645" on="1"/>
        <pt x="90" y="668" on="0"/>
        <pt x="122" y="700" on="0"/>
        <pt x="145" y="700" on="1"/>
        <pt x="324" y="700" on="1"/>
        <pt x="413" y="700" on="0"/>
        <pt x="538" y="574" on="0"/>
        <pt x="538" y="386" on="0"/>
      </contour>
      <contour>
        <pt x="324" y="383" on="1"/>
        <pt x="367" y="383" on="0"/>
        <pt x="427" y="443" on="0"/>
        <pt x="427" y="528" on="0"/>
        <pt x="367" y="589" on="0"/>
        <pt x="324" y="589" on="1"/>
        <pt x="201" y="589" on="1"/>
        <pt x="201" y="383" on="1"/>
      </contour>
    </TTGlyph>
    <TTGlyph name="S" xMin="71" yMin="1" xMax="617" yMax="720">
      <contour>
        <pt x="514" y="213" on="1"/>
        <pt x="514" y="289" on="0"/>
        <pt x="338" y="322" on="1"/>
        <pt x="336" y="322" on="1"/>
        <pt x="258" y="337" on="0"/>
        <pt x="144" y="391" on="0"/>
        <pt x="91" y="476" on="0"/>
        <pt x="91" y="521" on="1"/>
        <pt x="91" y="608" on="0"/>
        <pt x="244" y="720" on="0"/>
        <pt x="344" y="720" on="1"/>
        <pt x="388" y="720" on="0"/>
        <pt x="480" y="690" on="0"/>
        <pt x="525" y="664" on="0"/>
        <pt x="562" y="640" on="1"/>
        <pt x="579" y="628" on="0"/>
        <pt x="588" y="586" on="0"/>
        <pt x="565" y="551" on="0"/>
        <pt x="523" y="542" on="0"/>
        <pt x="505" y="554" on="1"/>
        <pt x="458" y="586" on="0"/>
        <pt x="385" y="618" on="0"/>
        <pt x="344" y="618" on="1"/>
        <pt x="278" y="618" on="0"/>
        <pt x="194" y="556" on="0"/>
        <pt x="194" y="521" on="1"/>
        <pt x="194" y="504" on="0"/>
        <pt x="202" y="492" on="1"/>
        <pt x="230" y="446" on="0"/>
        <pt x="353" y="423" on="1"/>
        <pt x="355" y="423" on="1"/>
        <pt x="439" y="406" on="0"/>
        <pt x="493" y="381" on="1"/>
        <pt x="617" y="320" on="0"/>
        <pt x="617" y="213" on="1"/>
        <pt x="617" y="120" on="0"/>
        <pt x="453" y="1" on="0"/>
        <pt x="346" y="1" on="1"/>
        <pt x="215" y="2" on="0"/>
        <pt x="90" y="101" on="1"/>
        <pt x="74" y="114" on="0"/>
        <pt x="69" y="158" on="0"/>
        <pt x="95" y="190" on="0"/>
        <pt x="139" y="195" on="0"/>
        <pt x="155" y="181" on="1"/>
        <pt x="251" y="103" on="0"/>
        <pt x="346" y="104" on="1"/>
        <pt x="421" y="104" on="0"/>
        <pt x="514" y="173" on="0"/>
      </contour>
    </TTGlyph>
    <TTGlyph name="Scaron" xMin="71" yMin="1" xMax="617" yMax="938">
      <contour>
        <pt x="292" y="911" on="1"/>
        <pt x="344" y="866" on="1"/>
        <pt x="396" y="911" on="1"/>
        <pt x="429" y="938" on="0"/>
        <pt x="499" y="938" on="0"/>
        <pt x="499" y="918" on="1"/>
        <pt x="499" y="910" on="0"/>
        <pt x="487" y="894" on="1"/>
        <pt x="421" y="811" on="1"/>
        <pt x="398" y="782" on="0"/>
        <pt x="363" y="782" on="1"/>
        <pt x="327" y="782" on="1"/>
        <pt x="293" y="782" on="0"/>
        <pt x="269" y="811" on="1"/>
        <pt x="203" y="894" on="1"/>
        <pt x="191" y="910" on="0"/>
        <pt x="191" y="918" on="1"/>
        <pt x="191" y="938" on="0"/>
        <pt x="218" y="938" on="1"/>
        <pt x="260" y="938" on="0"/>
      </contour>
      <contour>
        <pt x="514" y="213" on="1"/>
        <pt x="514" y="289" on="0"/>
        <pt x="338" y="322" on="1"/>
        <pt x="336" y="322" on="1"/>
        <pt x="258" y="337" on="0"/>
        <pt x="144" y="391" on="0"/>
        <pt x="91" y="476" on="0"/>
        <pt x="91" y="521" on="1"/>
        <pt x="91" y="608" on="0"/>
        <pt x="244" y="720" on="0"/>
        <pt x="344" y="720" on="1"/>
        <pt x="388" y="720" on="0"/>
        <pt x="480" y="690" on="0"/>
        <pt x="525" y="664" on="0"/>
        <pt x="562" y="640" on="1"/>
        <pt x="579" y="628" on="0"/>
        <pt x="588" y="586" on="0"/>
        <pt x="565" y="551" on="0"/>
        <pt x="523" y="542" on="0"/>
        <pt x="505" y="554" on="1"/>
        <pt x="458" y="586" on="0"/>
        <pt x="385" y="618" on="0"/>
        <pt x="344" y="618" on="1"/>
        <pt x="278" y="618" on="0"/>
        <pt x="194" y="556" on="0"/>
        <pt x="194" y="521" on="1"/>
        <pt x="194" y="504" on="0"/>
        <pt x="202" y="492" on="1"/>
        <pt x="230" y="446" on="0"/>
        <pt x="353" y="423" on="1"/>
        <pt x="355" y="423" on="1"/>
        <pt x="439" y="406" on="0"/>
        <pt x="493" y="381" on="1"/>
        <pt x="617" y="320" on="0"/>
        <pt x="617" y="213" on="1"/>
        <pt x="617" y="120" on="0"/>
        <pt x="453" y="1" on="0"/>
        <pt x="346" y="1" on="1"/>
        <pt x="215" y="2" on="0"/>
        <pt x="90" y="101" on="1"/>
        <pt x="74" y="114" on="0"/>
        <pt x="69" y="158" on="0"/>
        <pt x="95" y="190" on="0"/>
        <pt x="139" y="195" on="0"/>
        <pt x="155" y="181" on="1"/>
        <pt x="251" y="103" on="0"/>
        <pt x="346" y="104" on="1"/>
        <pt x="421" y="104" on="0"/>
        <pt x="514" y="173" on="0"/>
      </contour>
    </TTGlyph>
    <TTGlyph name="T" xMin="50" yMin="0" xMax="587" yMax="700">
      <contour>
        <pt x="587" y="668" on="0"/>
        <pt x="587" y="622" on="0"/>
        <pt x="554" y="589" on="0"/>
        <pt x="532" y="589" on="1"/>
        <pt x="373" y="589" on="1"/>
        <pt x="373" y="55" on="1"/>
        <pt x="373" y="32" on="0"/>
        <pt x="341" y="0" on="0"/>
        <pt x="295" y="0" on="0"/>
        <pt x="263" y="32" on="0"/>
        <pt x="263" y="55" on="1"/>
        <pt x="263" y="589" on="1"/>
        <pt x="105" y="589" on="1"/>
        <pt x="82" y="589" on="0"/>
        <pt x="50" y="622" on="0"/>
        <pt x="50" y="668" on="0"/>
        <pt x="82" y="700" on="0"/>
        <pt x="105" y="700" on="1"/>
        <pt x="532" y="700" on="1"/>
        <pt x="555" y="700" on="0"/>
      </contour>
    </TTGlyph>
    <TTGlyph name="U" xMin="105" yMin="0" xMax="683" yMax="700">
      <contour>
        <pt x="683" y="289" on="1"/>
        <pt x="683" y="170" on="0"/>
        <pt x="514" y="0" on="0"/>
        <pt x="274" y="0" on="0"/>
        <pt x="105" y="169" on="0"/>
        <pt x="105" y="289" on="1"/>
        <pt x="105" y="645" on="1"/>
        <pt x="105" y="668" on="0"/>
        <pt x="137" y="700" on="0"/>
        <pt x="183" y="700" on="0"/>
        <pt x="216" y="668" on="0"/>
        <pt x="216" y="645" on="1"/>
        <pt x="216" y="289" on="1"/>
        <pt x="216" y="216" on="0"/>
        <pt x="320" y="111" on="0"/>
        <pt x="468" y="111" on="0"/>
        <pt x="572" y="215" on="0"/>
        <pt x="572" y="289" on="1"/>
        <pt x="572" y="645" on="1"/>
        <pt x="572" y="668" on="0"/>
        <pt x="605" y="700" on="0"/>
        <pt x="651" y="700" on="0"/>
        <pt x="683" y="668" on="0"/>
        <pt x="683" y="645" on="1"/>
      </contour>
    </TTGlyph>
    <TTGlyph name="Uacute" xMin="93" yMin="0" xMax="671" yMax="950">
      <contour>
        <pt x="671" y="289" on="1"/>
        <pt x="671" y="170" on="0"/>
        <pt x="502" y="0" on="0"/>
        <pt x="262" y="0" on="0"/>
        <pt x="93" y="169" on="0"/>
        <pt x="93" y="289" on="1"/>
        <pt x="93" y="645" on="1"/>
        <pt x="93" y="668" on="0"/>
        <pt x="125" y="700" on="0"/>
        <pt x="171" y="700" on="0"/>
        <pt x="204" y="668" on="0"/>
        <pt x="204" y="645" on="1"/>
        <pt x="204" y="289" on="1"/>
        <pt x="204" y="216" on="0"/>
        <pt x="308" y="111" on="0"/>
        <pt x="456" y="111" on="0"/>
        <pt x="560" y="215" on="0"/>
        <pt x="560" y="289" on="1"/>
        <pt x="560" y="645" on="1"/>
        <pt x="560" y="668" on="0"/>
        <pt x="593" y="700" on="0"/>
        <pt x="639" y="700" on="0"/>
        <pt x="671" y="668" on="0"/>
        <pt x="671" y="645" on="1"/>
      </contour>
      <contour>
        <pt x="509" y="817" on="1"/>
        <pt x="480" y="790" on="0"/>
        <pt x="408" y="790" on="0"/>
        <pt x="408" y="811" on="1"/>
        <pt x="408" y="821" on="0"/>
        <pt x="416" y="833" on="1"/>
        <pt x="473" y="921" on="1"/>
        <pt x="491" y="950" on="0"/>
        <pt x="546" y="950" on="0"/>
        <pt x="593" y="925" on="0"/>
        <pt x="593" y="896" on="0"/>
        <pt x="576" y="881" on="1"/>
      </contour>
    </TTGlyph>
    <TTGlyph name="Ucircumflex" xMin="93" yMin="0" xMax="671" yMax="946">
      <contour>
        <pt x="671" y="289" on="1"/>
        <pt x="671" y="170" on="0"/>
        <pt x="502" y="0" on="0"/>
        <pt x="262" y="0" on="0"/>
        <pt x="93" y="169" on="0"/>
        <pt x="93" y="289" on="1"/>
        <pt x="93" y="645" on="1"/>
        <pt x="93" y="668" on="0"/>
        <pt x="125" y="700" on="0"/>
        <pt x="171" y="700" on="0"/>
        <pt x="204" y="668" on="0"/>
        <pt x="204" y="645" on="1"/>
        <pt x="204" y="289" on="1"/>
        <pt x="204" y="216" on="0"/>
        <pt x="308" y="111" on="0"/>
        <pt x="456" y="111" on="0"/>
        <pt x="560" y="215" on="0"/>
        <pt x="560" y="289" on="1"/>
        <pt x="560" y="645" on="1"/>
        <pt x="560" y="668" on="0"/>
        <pt x="593" y="700" on="0"/>
        <pt x="639" y="700" on="0"/>
        <pt x="671" y="668" on="0"/>
        <pt x="671" y="645" on="1"/>
      </contour>
      <contour>
        <pt x="380" y="862" on="1"/>
        <pt x="328" y="817" on="1"/>
        <pt x="296" y="790" on="0"/>
        <pt x="254" y="790" on="1"/>
        <pt x="227" y="790" on="0"/>
        <pt x="227" y="810" on="1"/>
        <pt x="227" y="818" on="0"/>
        <pt x="239" y="834" on="1"/>
        <pt x="305" y="917" on="1"/>
        <pt x="329" y="946" on="0"/>
        <pt x="363" y="946" on="1"/>
        <pt x="399" y="946" on="1"/>
        <pt x="434" y="946" on="0"/>
        <pt x="457" y="917" on="1"/>
        <pt x="523" y="834" on="1"/>
        <pt x="535" y="818" on="0"/>
        <pt x="535" y="810" on="1"/>
        <pt x="535" y="790" on="0"/>
        <pt x="465" y="790" on="0"/>
        <pt x="432" y="817" on="1"/>
      </contour>
    </TTGlyph>
    <TTGlyph name="Udieresis" xMin="93" yMin="0" xMax="671" yMax="901">
      <contour>
        <pt x="671" y="289" on="1"/>
        <pt x="671" y="170" on="0"/>
        <pt x="502" y="0" on="0"/>
        <pt x="262" y="0" on="0"/>
        <pt x="93" y="169" on="0"/>
        <pt x="93" y="289" on="1"/>
        <pt x="93" y="645" on="1"/>
        <pt x="93" y="668" on="0"/>
        <pt x="125" y="700" on="0"/>
        <pt x="171" y="700" on="0"/>
        <pt x="204" y="668" on="0"/>
        <pt x="204" y="645" on="1"/>
        <pt x="204" y="289" on="1"/>
        <pt x="204" y="216" on="0"/>
        <pt x="308" y="111" on="0"/>
        <pt x="456" y="111" on="0"/>
        <pt x="560" y="215" on="0"/>
        <pt x="560" y="289" on="1"/>
        <pt x="560" y="645" on="1"/>
        <pt x="560" y="668" on="0"/>
        <pt x="593" y="700" on="0"/>
        <pt x="639" y="700" on="0"/>
        <pt x="671" y="668" on="0"/>
        <pt x="671" y="645" on="1"/>
      </contour>
      <contour>
        <pt x="216" y="809" on="0"/>
        <pt x="216" y="863" on="0"/>
        <pt x="253" y="901" on="0"/>
        <pt x="307" y="901" on="0"/>
        <pt x="345" y="863" on="0"/>
        <pt x="345" y="809" on="0"/>
        <pt x="307" y="772" on="0"/>
        <pt x="253" y="772" on="0"/>
      </contour>
      <contour>
        <pt x="416" y="809" on="0"/>
        <pt x="416" y="863" on="0"/>
        <pt x="453" y="901" on="0"/>
        <pt x="507" y="901" on="0"/>
        <pt x="545" y="863" on="0"/>
        <pt x="545" y="809" on="0"/>
        <pt x="507" y="772" on="0"/>
        <pt x="453" y="772" on="0"/>
      </contour>
    </TTGlyph>
    <TTGlyph name="Ugrave" xMin="93" yMin="0" xMax="671" yMax="950">
      <contour>
        <pt x="671" y="289" on="1"/>
        <pt x="671" y="170" on="0"/>
        <pt x="502" y="0" on="0"/>
        <pt x="262" y="0" on="0"/>
        <pt x="93" y="169" on="0"/>
        <pt x="93" y="289" on="1"/>
        <pt x="93" y="645" on="1"/>
        <pt x="93" y="668" on="0"/>
        <pt x="125" y="700" on="0"/>
        <pt x="171" y="700" on="0"/>
        <pt x="204" y="668" on="0"/>
        <pt x="204" y="645" on="1"/>
        <pt x="204" y="289" on="1"/>
        <pt x="204" y="216" on="0"/>
        <pt x="308" y="111" on="0"/>
        <pt x="456" y="111" on="0"/>
        <pt x="560" y="215" on="0"/>
        <pt x="560" y="289" on="1"/>
        <pt x="560" y="645" on="1"/>
        <pt x="560" y="668" on="0"/>
        <pt x="593" y="700" on="0"/>
        <pt x="639" y="700" on="0"/>
        <pt x="671" y="668" on="0"/>
        <pt x="671" y="645" on="1"/>
      </contour>
      <contour>
        <pt x="501" y="811" on="1"/>
        <pt x="501" y="790" on="0"/>
        <pt x="428" y="790" on="0"/>
        <pt x="400" y="817" on="1"/>
        <pt x="332" y="881" on="1"/>
        <pt x="315" y="896" on="0"/>
        <pt x="315" y="925" on="0"/>
        <pt x="362" y="950" on="0"/>
        <pt x="417" y="950" on="0"/>
        <pt x="435" y="921" on="1"/>
        <pt x="492" y="833" on="1"/>
        <pt x="501" y="819" on="0"/>
      </contour>
    </TTGlyph>
    <TTGlyph name="V" xMin="67" yMin="0" xMax="661" yMax="689">
      <contour>
        <pt x="342" y="4" on="1"/>
        <pt x="339" y="4" on="0"/>
        <pt x="333" y="10" on="1"/>
        <pt x="332" y="10" on="1"/>
        <pt x="331" y="11" on="0"/>
        <pt x="325" y="15" on="1"/>
        <pt x="324" y="17" on="0"/>
        <pt x="320" y="22" on="0"/>
        <pt x="318" y="24" on="0"/>
        <pt x="315" y="31" on="0"/>
        <pt x="313" y="33" on="1"/>
        <pt x="68" y="617" on="1"/>
        <pt x="59" y="637" on="0"/>
        <pt x="76" y="680" on="0"/>
        <pt x="98" y="688" on="1"/>
        <pt x="118" y="697" on="0"/>
        <pt x="160" y="680" on="0"/>
        <pt x="169" y="659" on="1"/>
        <pt x="364" y="196" on="1"/>
        <pt x="559" y="659" on="1"/>
        <pt x="568" y="680" on="0"/>
        <pt x="611" y="697" on="0"/>
        <pt x="631" y="688" on="1"/>
        <pt x="652" y="680" on="0"/>
        <pt x="669" y="637" on="0"/>
        <pt x="661" y="617" on="1"/>
        <pt x="414" y="33" on="1"/>
        <pt x="410" y="25" on="1"/>
        <pt x="410" y="24" on="0"/>
        <pt x="409" y="23" on="1"/>
        <pt x="396" y="10" on="1"/>
        <pt x="394" y="8" on="0"/>
        <pt x="385" y="4" on="0"/>
        <pt x="376" y="1" on="1"/>
        <pt x="374" y="1" on="1"/>
        <pt x="370" y="0" on="0"/>
        <pt x="357" y="0" on="0"/>
        <pt x="354" y="1" on="1"/>
        <pt x="352" y="1" on="1"/>
        <pt x="348" y="3" on="0"/>
        <pt x="344" y="3" on="1"/>
        <pt x="343" y="4" on="1"/>
      </contour>
    </TTGlyph>
    <TTGlyph name="W" xMin="71" yMin="0" xMax="1027" yMax="689">
      <contour>
        <pt x="398" y="10" on="1"/>
        <pt x="390" y="4" on="1"/>
        <pt x="389" y="4" on="1"/>
        <pt x="386" y="4" on="0"/>
        <pt x="380" y="1" on="1"/>
        <pt x="377" y="1" on="1"/>
        <pt x="374" y="0" on="0"/>
        <pt x="361" y="0" on="0"/>
        <pt x="358" y="1" on="1"/>
        <pt x="355" y="1" on="1"/>
        <pt x="349" y="3" on="0"/>
        <pt x="347" y="4" on="0"/>
        <pt x="342" y="6" on="0"/>
        <pt x="337" y="10" on="1"/>
        <pt x="336" y="10" on="1"/>
        <pt x="332" y="13" on="0"/>
        <pt x="324" y="22" on="0"/>
        <pt x="322" y="24" on="1"/>
        <pt x="322" y="25" on="1"/>
        <pt x="321" y="26" on="0"/>
        <pt x="318" y="33" on="0"/>
        <pt x="317" y="34" on="1"/>
        <pt x="71" y="617" on="1"/>
        <pt x="63" y="638" on="0"/>
        <pt x="80" y="680" on="0"/>
        <pt x="101" y="688" on="1"/>
        <pt x="121" y="697" on="0"/>
        <pt x="164" y="680" on="0"/>
        <pt x="172" y="659" on="1"/>
        <pt x="368" y="196" on="1"/>
        <pt x="497" y="503" on="1"/>
        <pt x="511" y="537" on="0"/>
        <pt x="586" y="537" on="0"/>
        <pt x="601" y="503" on="1"/>
        <pt x="730" y="196" on="1"/>
        <pt x="925" y="659" on="1"/>
        <pt x="934" y="680" on="0"/>
        <pt x="976" y="697" on="0"/>
        <pt x="1018" y="680" on="0"/>
        <pt x="1035" y="637" on="0"/>
        <pt x="1026" y="617" on="1"/>
        <pt x="781" y="34" on="1"/>
        <pt x="779" y="26" on="0"/>
        <pt x="770" y="18" on="1"/>
        <pt x="770" y="17" on="0"/>
        <pt x="769" y="15" on="1"/>
        <pt x="765" y="13" on="0"/>
        <pt x="762" y="10" on="1"/>
        <pt x="761" y="10" on="1"/>
        <pt x="752" y="4" on="1"/>
        <pt x="751" y="4" on="1"/>
        <pt x="750" y="4" on="0"/>
        <pt x="748" y="3" on="0"/>
        <pt x="742" y="1" on="1"/>
        <pt x="740" y="1" on="1"/>
        <pt x="737" y="0" on="0"/>
        <pt x="724" y="0" on="0"/>
        <pt x="721" y="1" on="1"/>
        <pt x="718" y="1" on="1"/>
        <pt x="712" y="3" on="0"/>
        <pt x="710" y="4" on="0"/>
        <pt x="705" y="5" on="0"/>
        <pt x="700" y="10" on="1"/>
        <pt x="699" y="10" on="1"/>
        <pt x="690" y="16" on="0"/>
        <pt x="686" y="24" on="1"/>
        <pt x="682" y="26" on="0"/>
        <pt x="680" y="34" on="1"/>
        <pt x="549" y="344" on="1"/>
        <pt x="418" y="34" on="1"/>
        <pt x="417" y="31" on="0"/>
        <pt x="414" y="25" on="1"/>
        <pt x="407" y="18" on="1"/>
        <pt x="407" y="17" on="0"/>
        <pt x="406" y="15" on="1"/>
        <pt x="404" y="14" on="0"/>
        <pt x="400" y="10" on="1"/>
      </contour>
    </TTGlyph>
    <TTGlyph name="X" xMin="80" yMin="0" xMax="615" yMax="692">
      <contour>
        <pt x="530" y="688" on="0"/>
        <pt x="574" y="695" on="0"/>
        <pt x="611" y="668" on="0"/>
        <pt x="618" y="624" on="0"/>
        <pt x="605" y="605" on="1"/>
        <pt x="415" y="347" on="1"/>
        <pt x="605" y="87" on="1"/>
        <pt x="624" y="60" on="0"/>
        <pt x="593" y="0" on="0"/>
        <pt x="534" y="0" on="0"/>
        <pt x="516" y="23" on="1"/>
        <pt x="348" y="254" on="1"/>
        <pt x="179" y="23" on="1"/>
        <pt x="161" y="0" on="0"/>
        <pt x="102" y="0" on="0"/>
        <pt x="71" y="60" on="0"/>
        <pt x="90" y="87" on="1"/>
        <pt x="280" y="347" on="1"/>
        <pt x="90" y="605" on="1"/>
        <pt x="77" y="624" on="0"/>
        <pt x="84" y="668" on="0"/>
        <pt x="121" y="695" on="0"/>
        <pt x="166" y="688" on="0"/>
        <pt x="179" y="669" on="1"/>
        <pt x="348" y="439" on="1"/>
        <pt x="516" y="669" on="1"/>
      </contour>
    </TTGlyph>
    <TTGlyph name="Y" xMin="62" yMin="0" xMax="601" yMax="693">
      <contour>
        <pt x="516" y="689" on="0"/>
        <pt x="561" y="696" on="0"/>
        <pt x="597" y="669" on="0"/>
        <pt x="604" y="624" on="0"/>
        <pt x="591" y="606" on="1"/>
        <pt x="386" y="325" on="1"/>
        <pt x="386" y="55" on="1"/>
        <pt x="386" y="32" on="0"/>
        <pt x="354" y="0" on="0"/>
        <pt x="309" y="0" on="0"/>
        <pt x="276" y="32" on="0"/>
        <pt x="276" y="55" on="1"/>
        <pt x="276" y="325" on="1"/>
        <pt x="73" y="606" on="1"/>
        <pt x="59" y="624" on="0"/>
        <pt x="65" y="668" on="0"/>
        <pt x="103" y="696" on="0"/>
        <pt x="147" y="689" on="0"/>
        <pt x="160" y="670" on="1"/>
        <pt x="331" y="436" on="1"/>
        <pt x="502" y="670" on="1"/>
      </contour>
    </TTGlyph>
    <TTGlyph name="Yacute" xMin="62" yMin="0" xMax="601" yMax="950">
      <contour>
        <pt x="516" y="689" on="0"/>
        <pt x="561" y="696" on="0"/>
        <pt x="597" y="669" on="0"/>
        <pt x="604" y="624" on="0"/>
        <pt x="591" y="606" on="1"/>
        <pt x="386" y="325" on="1"/>
        <pt x="386" y="55" on="1"/>
        <pt x="386" y="32" on="0"/>
        <pt x="354" y="0" on="0"/>
        <pt x="309" y="0" on="0"/>
        <pt x="276" y="32" on="0"/>
        <pt x="276" y="55" on="1"/>
        <pt x="276" y="325" on="1"/>
        <pt x="73" y="606" on="1"/>
        <pt x="59" y="624" on="0"/>
        <pt x="65" y="668" on="0"/>
        <pt x="103" y="696" on="0"/>
        <pt x="147" y="689" on="0"/>
        <pt x="160" y="670" on="1"/>
        <pt x="331" y="436" on="1"/>
        <pt x="502" y="670" on="1"/>
      </contour>
      <contour>
        <pt x="455" y="817" on="1"/>
        <pt x="426" y="790" on="0"/>
        <pt x="354" y="790" on="0"/>
        <pt x="354" y="811" on="1"/>
        <pt x="354" y="821" on="0"/>
        <pt x="362" y="833" on="1"/>
        <pt x="419" y="921" on="1"/>
        <pt x="437" y="950" on="0"/>
        <pt x="492" y="950" on="0"/>
        <pt x="539" y="925" on="0"/>
        <pt x="539" y="896" on="0"/>
        <pt x="522" y="881" on="1"/>
      </contour>
    </TTGlyph>
    <TTGlyph name="Ydieresis" xMin="62" yMin="0" xMax="601" yMax="901">
      <contour>
        <pt x="516" y="689" on="0"/>
        <pt x="561" y="696" on="0"/>
        <pt x="597" y="669" on="0"/>
        <pt x="604" y="624" on="0"/>
        <pt x="591" y="606" on="1"/>
        <pt x="386" y="325" on="1"/>
        <pt x="386" y="55" on="1"/>
        <pt x="386" y="32" on="0"/>
        <pt x="354" y="0" on="0"/>
        <pt x="309" y="0" on="0"/>
        <pt x="276" y="32" on="0"/>
        <pt x="276" y="55" on="1"/>
        <pt x="276" y="325" on="1"/>
        <pt x="73" y="606" on="1"/>
        <pt x="59" y="624" on="0"/>
        <pt x="65" y="668" on="0"/>
        <pt x="103" y="696" on="0"/>
        <pt x="147" y="689" on="0"/>
        <pt x="160" y="670" on="1"/>
        <pt x="331" y="436" on="1"/>
        <pt x="502" y="670" on="1"/>
      </contour>
      <contour>
        <pt x="166" y="809" on="0"/>
        <pt x="166" y="863" on="0"/>
        <pt x="203" y="901" on="0"/>
        <pt x="257" y="901" on="0"/>
        <pt x="295" y="863" on="0"/>
        <pt x="295" y="809" on="0"/>
        <pt x="257" y="772" on="0"/>
        <pt x="203" y="772" on="0"/>
      </contour>
      <contour>
        <pt x="366" y="809" on="0"/>
        <pt x="366" y="863" on="0"/>
        <pt x="403" y="901" on="0"/>
        <pt x="457" y="901" on="0"/>
        <pt x="495" y="863" on="0"/>
        <pt x="495" y="809" on="0"/>
        <pt x="457" y="772" on="0"/>
        <pt x="403" y="772" on="0"/>
      </contour>
    </TTGlyph>
    <TTGlyph name="Z" xMin="71" yMin="0" xMax="613" yMax="700">
      <contour>
        <pt x="565" y="700" on="1"/>
        <pt x="579" y="696" on="1"/>
        <pt x="582" y="696" on="0"/>
        <pt x="588" y="690" on="0"/>
        <pt x="589" y="690" on="1"/>
        <pt x="590" y="690" on="1"/>
        <pt x="593" y="689" on="0"/>
        <pt x="599" y="680" on="0"/>
        <pt x="602" y="678" on="0"/>
        <pt x="606" y="671" on="0"/>
        <pt x="607" y="668" on="0"/>
        <pt x="609" y="666" on="1"/>
        <pt x="612" y="655" on="1"/>
        <pt x="613" y="652" on="0"/>
        <pt x="613" y="649" on="1"/>
        <pt x="613" y="638" on="1"/>
        <pt x="612" y="636" on="0"/>
        <pt x="612" y="634" on="1"/>
        <pt x="610" y="628" on="1"/>
        <pt x="603" y="614" on="1"/>
        <pt x="603" y="612" on="1"/>
        <pt x="235" y="111" on="1"/>
        <pt x="557" y="111" on="1"/>
        <pt x="580" y="111" on="0"/>
        <pt x="613" y="78" on="0"/>
        <pt x="613" y="32" on="0"/>
        <pt x="580" y="0" on="0"/>
        <pt x="557" y="0" on="1"/>
        <pt x="126" y="0" on="1"/>
        <pt x="120" y="0" on="0"/>
        <pt x="108" y="1" on="0"/>
        <pt x="103" y="6" on="1"/>
        <pt x="98" y="6" on="0"/>
        <pt x="94" y="10" on="1"/>
        <pt x="94" y="11" on="1"/>
        <pt x="91" y="11" on="0"/>
        <pt x="87" y="18" on="1"/>
        <pt x="80" y="25" on="1"/>
        <pt x="78" y="30" on="1"/>
        <pt x="74" y="37" on="0"/>
        <pt x="74" y="38" on="1"/>
        <pt x="71" y="52" on="1"/>
        <pt x="71" y="56" on="1"/>
        <pt x="71" y="61" on="0"/>
        <pt x="72" y="63" on="1"/>
        <pt x="72" y="68" on="1"/>
        <pt x="75" y="71" on="0"/>
        <pt x="75" y="78" on="1"/>
        <pt x="78" y="80" on="0"/>
        <pt x="79" y="83" on="0"/>
        <pt x="81" y="87" on="1"/>
        <pt x="82" y="87" on="1"/>
        <pt x="449" y="589" on="1"/>
        <pt x="126" y="589" on="1"/>
        <pt x="103" y="589" on="0"/>
        <pt x="71" y="622" on="0"/>
        <pt x="71" y="668" on="0"/>
        <pt x="103" y="700" on="0"/>
        <pt x="126" y="700" on="1"/>
      </contour>
    </TTGlyph>
    <TTGlyph name="a" xMin="40" yMin="0" xMax="516" yMax="500">
      <contour>
        <pt x="177" y="0" on="0"/>
        <pt x="40" y="146" on="0"/>
        <pt x="40" y="353" on="0"/>
        <pt x="177" y="500" on="0"/>
        <pt x="278" y="500" on="1"/>
        <pt x="349" y="500" on="0"/>
        <pt x="411" y="456" on="1"/>
        <pt x="416" y="475" on="0"/>
        <pt x="444" y="500" on="0"/>
        <pt x="485" y="500" on="0"/>
        <pt x="516" y="468" on="0"/>
        <pt x="516" y="446" on="1"/>
        <pt x="516" y="53" on="1"/>
        <pt x="516" y="31" on="0"/>
        <pt x="485" y="0" on="0"/>
        <pt x="444" y="0" on="0"/>
        <pt x="416" y="24" on="0"/>
        <pt x="411" y="43" on="1"/>
        <pt x="350" y="0" on="0"/>
        <pt x="278" y="0" on="1"/>
      </contour>
      <contour>
        <pt x="147" y="189" on="0"/>
        <pt x="220" y="107" on="0"/>
        <pt x="335" y="107" on="0"/>
        <pt x="410" y="189" on="0"/>
        <pt x="410" y="309" on="0"/>
        <pt x="334" y="393" on="0"/>
        <pt x="221" y="393" on="0"/>
        <pt x="147" y="310" on="0"/>
      </contour>
    </TTGlyph>
    <TTGlyph name="aacute" xMin="63" yMin="0" xMax="539" yMax="730">
      <contour>
        <pt x="200" y="0" on="0"/>
        <pt x="63" y="146" on="0"/>
        <pt x="63" y="353" on="0"/>
        <pt x="200" y="500" on="0"/>
        <pt x="301" y="500" on="1"/>
        <pt x="372" y="500" on="0"/>
        <pt x="434" y="456" on="1"/>
        <pt x="439" y="475" on="0"/>
        <pt x="467" y="500" on="0"/>
        <pt x="508" y="500" on="0"/>
        <pt x="539" y="468" on="0"/>
        <pt x="539" y="446" on="1"/>
        <pt x="539" y="53" on="1"/>
        <pt x="539" y="31" on="0"/>
        <pt x="508" y="0" on="0"/>
        <pt x="467" y="0" on="0"/>
        <pt x="439" y="24" on="0"/>
        <pt x="434" y="43" on="1"/>
        <pt x="373" y="0" on="0"/>
        <pt x="301" y="0" on="1"/>
      </contour>
      <contour>
        <pt x="170" y="189" on="0"/>
        <pt x="243" y="107" on="0"/>
        <pt x="358" y="107" on="0"/>
        <pt x="433" y="189" on="0"/>
        <pt x="433" y="309" on="0"/>
        <pt x="357" y="393" on="0"/>
        <pt x="244" y="393" on="0"/>
        <pt x="170" y="310" on="0"/>
      </contour>
      <contour>
        <pt x="424" y="597" on="1"/>
        <pt x="395" y="570" on="0"/>
        <pt x="323" y="570" on="0"/>
        <pt x="323" y="591" on="1"/>
        <pt x="323" y="601" on="0"/>
        <pt x="331" y="613" on="1"/>
        <pt x="388" y="701" on="1"/>
        <pt x="406" y="730" on="0"/>
        <pt x="461" y="730" on="0"/>
        <pt x="508" y="705" on="0"/>
        <pt x="508" y="676" on="0"/>
        <pt x="491" y="661" on="1"/>
      </contour>
    </TTGlyph>
    <TTGlyph name="acircumflex" xMin="63" yMin="0" xMax="539" yMax="726">
      <contour>
        <pt x="200" y="0" on="0"/>
        <pt x="63" y="146" on="0"/>
        <pt x="63" y="353" on="0"/>
        <pt x="200" y="500" on="0"/>
        <pt x="301" y="500" on="1"/>
        <pt x="372" y="500" on="0"/>
        <pt x="434" y="456" on="1"/>
        <pt x="439" y="475" on="0"/>
        <pt x="467" y="500" on="0"/>
        <pt x="508" y="500" on="0"/>
        <pt x="539" y="468" on="0"/>
        <pt x="539" y="446" on="1"/>
        <pt x="539" y="53" on="1"/>
        <pt x="539" y="31" on="0"/>
        <pt x="508" y="0" on="0"/>
        <pt x="467" y="0" on="0"/>
        <pt x="439" y="24" on="0"/>
        <pt x="434" y="43" on="1"/>
        <pt x="373" y="0" on="0"/>
        <pt x="301" y="0" on="1"/>
      </contour>
      <contour>
        <pt x="170" y="189" on="0"/>
        <pt x="243" y="107" on="0"/>
        <pt x="358" y="107" on="0"/>
        <pt x="433" y="189" on="0"/>
        <pt x="433" y="309" on="0"/>
        <pt x="357" y="393" on="0"/>
        <pt x="244" y="393" on="0"/>
        <pt x="170" y="310" on="0"/>
      </contour>
      <contour>
        <pt x="300" y="642" on="1"/>
        <pt x="248" y="597" on="1"/>
        <pt x="216" y="570" on="0"/>
        <pt x="174" y="570" on="1"/>
        <pt x="147" y="570" on="0"/>
        <pt x="147" y="590" on="1"/>
        <pt x="147" y="598" on="0"/>
        <pt x="159" y="614" on="1"/>
        <pt x="225" y="697" on="1"/>
        <pt x="249" y="726" on="0"/>
        <pt x="283" y="726" on="1"/>
        <pt x="319" y="726" on="1"/>
        <pt x="354" y="726" on="0"/>
        <pt x="377" y="697" on="1"/>
        <pt x="443" y="614" on="1"/>
        <pt x="455" y="598" on="0"/>
        <pt x="455" y="590" on="1"/>
        <pt x="455" y="570" on="0"/>
        <pt x="385" y="570" on="0"/>
        <pt x="352" y="597" on="1"/>
      </contour>
    </TTGlyph>
    <TTGlyph name="acute" xMin="201" yMin="590" xMax="386" yMax="750">
      <contour>
        <pt x="302" y="617" on="1"/>
        <pt x="273" y="590" on="0"/>
        <pt x="201" y="590" on="0"/>
        <pt x="201" y="611" on="1"/>
        <pt x="201" y="621" on="0"/>
        <pt x="209" y="633" on="1"/>
        <pt x="266" y="721" on="1"/>
        <pt x="284" y="750" on="0"/>
        <pt x="339" y="750" on="0"/>
        <pt x="386" y="725" on="0"/>
        <pt x="386" y="696" on="0"/>
        <pt x="369" y="681" on="1"/>
      </contour>
    </TTGlyph>
    <TTGlyph name="adieresis" xMin="63" yMin="0" xMax="539" yMax="699">
      <contour>
        <pt x="200" y="0" on="0"/>
        <pt x="63" y="146" on="0"/>
        <pt x="63" y="353" on="0"/>
        <pt x="200" y="500" on="0"/>
        <pt x="301" y="500" on="1"/>
        <pt x="372" y="500" on="0"/>
        <pt x="434" y="456" on="1"/>
        <pt x="439" y="475" on="0"/>
        <pt x="467" y="500" on="0"/>
        <pt x="508" y="500" on="0"/>
        <pt x="539" y="468" on="0"/>
        <pt x="539" y="446" on="1"/>
        <pt x="539" y="53" on="1"/>
        <pt x="539" y="31" on="0"/>
        <pt x="508" y="0" on="0"/>
        <pt x="467" y="0" on="0"/>
        <pt x="439" y="24" on="0"/>
        <pt x="434" y="43" on="1"/>
        <pt x="373" y="0" on="0"/>
        <pt x="301" y="0" on="1"/>
      </contour>
      <contour>
        <pt x="170" y="189" on="0"/>
        <pt x="243" y="107" on="0"/>
        <pt x="358" y="107" on="0"/>
        <pt x="433" y="189" on="0"/>
        <pt x="433" y="309" on="0"/>
        <pt x="357" y="393" on="0"/>
        <pt x="244" y="393" on="0"/>
        <pt x="170" y="310" on="0"/>
      </contour>
      <contour>
        <pt x="137" y="607" on="0"/>
        <pt x="137" y="661" on="0"/>
        <pt x="174" y="699" on="0"/>
        <pt x="228" y="699" on="0"/>
        <pt x="266" y="661" on="0"/>
        <pt x="266" y="607" on="0"/>
        <pt x="228" y="570" on="0"/>
        <pt x="174" y="570" on="0"/>
      </contour>
      <contour>
        <pt x="337" y="607" on="0"/>
        <pt x="337" y="661" on="0"/>
        <pt x="374" y="699" on="0"/>
        <pt x="428" y="699" on="0"/>
        <pt x="466" y="661" on="0"/>
        <pt x="466" y="607" on="0"/>
        <pt x="428" y="570" on="0"/>
        <pt x="374" y="570" on="0"/>
      </contour>
    </TTGlyph>
    <TTGlyph name="ae" xMin="51" yMin="0" xMax="951" yMax="510">
      <contour>
        <pt x="951" y="268" on="1"/>
        <pt x="951" y="246" on="0"/>
        <pt x="921" y="218" on="0"/>
        <pt x="897" y="218" on="1"/>
        <pt x="572" y="218" on="1"/>
        <pt x="581" y="175" on="0"/>
        <pt x="607" y="151" on="1"/>
        <pt x="623" y="133" on="0"/>
        <pt x="678" y="107" on="0"/>
        <pt x="705" y="105" on="1"/>
        <pt x="772" y="100" on="0"/>
        <pt x="811" y="131" on="1"/>
        <pt x="827" y="147" on="0"/>
        <pt x="877" y="147" on="0"/>
        <pt x="888" y="134" on="1"/>
        <pt x="915" y="102" on="0"/>
        <pt x="888" y="67" on="1"/>
        <pt x="815" y="0" on="0"/>
        <pt x="609" y="0" on="0"/>
        <pt x="537" y="67" on="1"/>
        <pt x="537" y="54" on="1"/>
        <pt x="537" y="32" on="0"/>
        <pt x="505" y="0" on="0"/>
        <pt x="463" y="0" on="0"/>
        <pt x="435" y="25" on="0"/>
        <pt x="430" y="44" on="1"/>
        <pt x="369" y="0" on="0"/>
        <pt x="294" y="0" on="1"/>
        <pt x="191" y="0" on="0"/>
        <pt x="51" y="149" on="0"/>
        <pt x="51" y="360" on="0"/>
        <pt x="191" y="510" on="0"/>
        <pt x="294" y="510" on="1"/>
        <pt x="366" y="510" on="0"/>
        <pt x="430" y="466" on="1"/>
        <pt x="435" y="485" on="0"/>
        <pt x="463" y="510" on="0"/>
        <pt x="505" y="510" on="0"/>
        <pt x="537" y="478" on="0"/>
        <pt x="537" y="455" on="1"/>
        <pt x="537" y="443" on="1"/>
        <pt x="609" y="510" on="0"/>
        <pt x="805" y="510" on="0"/>
        <pt x="945" y="376" on="0"/>
        <pt x="951" y="274" on="1"/>
      </contour>
      <contour>
        <pt x="236" y="109" on="0"/>
        <pt x="352" y="109" on="0"/>
        <pt x="429" y="194" on="0"/>
        <pt x="429" y="315" on="0"/>
        <pt x="351" y="401" on="0"/>
        <pt x="236" y="401" on="0"/>
        <pt x="160" y="316" on="0"/>
        <pt x="160" y="193" on="0"/>
      </contour>
      <contour>
        <pt x="705" y="413" on="1"/>
        <pt x="646" y="410" on="0"/>
        <pt x="574" y="343" on="0"/>
        <pt x="567" y="305" on="1"/>
        <pt x="856" y="305" on="1"/>
        <pt x="847" y="341" on="0"/>
        <pt x="766" y="408" on="0"/>
      </contour>
    </TTGlyph>
    <TTGlyph name="agrave" xMin="63" yMin="0" xMax="539" yMax="730">
      <contour>
        <pt x="200" y="0" on="0"/>
        <pt x="63" y="146" on="0"/>
        <pt x="63" y="353" on="0"/>
        <pt x="200" y="500" on="0"/>
        <pt x="301" y="500" on="1"/>
        <pt x="372" y="500" on="0"/>
        <pt x="434" y="456" on="1"/>
        <pt x="439" y="475" on="0"/>
        <pt x="467" y="500" on="0"/>
        <pt x="508" y="500" on="0"/>
        <pt x="539" y="468" on="0"/>
        <pt x="539" y="446" on="1"/>
        <pt x="539" y="53" on="1"/>
        <pt x="539" y="31" on="0"/>
        <pt x="508" y="0" on="0"/>
        <pt x="467" y="0" on="0"/>
        <pt x="439" y="24" on="0"/>
        <pt x="434" y="43" on="1"/>
        <pt x="373" y="0" on="0"/>
        <pt x="301" y="0" on="1"/>
      </contour>
      <contour>
        <pt x="170" y="189" on="0"/>
        <pt x="243" y="107" on="0"/>
        <pt x="358" y="107" on="0"/>
        <pt x="433" y="189" on="0"/>
        <pt x="433" y="309" on="0"/>
        <pt x="357" y="393" on="0"/>
        <pt x="244" y="393" on="0"/>
        <pt x="170" y="310" on="0"/>
      </contour>
      <contour>
        <pt x="418" y="591" on="1"/>
        <pt x="418" y="570" on="0"/>
        <pt x="345" y="570" on="0"/>
        <pt x="317" y="597" on="1"/>
        <pt x="249" y="661" on="1"/>
        <pt x="232" y="676" on="0"/>
        <pt x="232" y="705" on="0"/>
        <pt x="279" y="730" on="0"/>
        <pt x="334" y="730" on="0"/>
        <pt x="352" y="701" on="1"/>
        <pt x="409" y="613" on="1"/>
        <pt x="418" y="600" on="0"/>
      </contour>
    </TTGlyph>
    <TTGlyph name="ampersand" xMin="49" yMin="0" xMax="578" yMax="700">
      <contour>
        <pt x="256" y="379" on="1"/>
        <pt x="254" y="373" on="0"/>
        <pt x="250" y="370" on="0"/>
        <pt x="246" y="366" on="1"/>
        <pt x="241" y="361" on="0"/>
        <pt x="233" y="357" on="1"/>
        <pt x="200" y="341" on="0"/>
        <pt x="160" y="278" on="0"/>
        <pt x="160" y="186" on="0"/>
        <pt x="235" y="111" on="0"/>
        <pt x="343" y="111" on="0"/>
        <pt x="419" y="186" on="0"/>
        <pt x="419" y="240" on="1"/>
        <pt x="419" y="246" on="1"/>
        <pt x="358" y="245" on="0"/>
        <pt x="343" y="227" on="1"/>
        <pt x="335" y="219" on="0"/>
        <pt x="335" y="210" on="1"/>
        <pt x="335" y="202" on="0"/>
        <pt x="336" y="194" on="1"/>
        <pt x="343" y="169" on="0"/>
        <pt x="312" y="123" on="0"/>
        <pt x="283" y="123" on="1"/>
        <pt x="224" y="123" on="0"/>
        <pt x="224" y="205" on="1"/>
        <pt x="222" y="265" on="0"/>
        <pt x="265" y="306" on="1"/>
        <pt x="318" y="357" on="0"/>
        <pt x="421" y="357" on="1"/>
        <pt x="443" y="357" on="0"/>
        <pt x="454" y="356" on="1"/>
        <pt x="458" y="356" on="1"/>
        <pt x="469" y="356" on="0"/>
        <pt x="472" y="359" on="1"/>
        <pt x="472" y="366" on="1"/>
        <pt x="472" y="374" on="0"/>
        <pt x="471" y="381" on="1"/>
        <pt x="465" y="403" on="0"/>
        <pt x="489" y="442" on="0"/>
        <pt x="535" y="452" on="0"/>
        <pt x="574" y="427" on="0"/>
        <pt x="578" y="405" on="1"/>
        <pt x="593" y="358" on="0"/>
        <pt x="572" y="312" on="1"/>
        <pt x="560" y="285" on="0"/>
        <pt x="540" y="270" on="1"/>
        <pt x="535" y="268" on="0"/>
        <pt x="529" y="264" on="1"/>
        <pt x="530" y="256" on="0"/>
        <pt x="530" y="240" on="1"/>
        <pt x="530" y="140" on="0"/>
        <pt x="389" y="0" on="0"/>
        <pt x="189" y="0" on="0"/>
        <pt x="49" y="140" on="0"/>
        <pt x="49" y="346" on="0"/>
        <pt x="127" y="416" on="1"/>
        <pt x="99" y="461" on="0"/>
        <pt x="99" y="514" on="1"/>
        <pt x="99" y="591" on="0"/>
        <pt x="208" y="700" on="0"/>
        <pt x="362" y="700" on="0"/>
        <pt x="471" y="591" on="0"/>
        <pt x="471" y="514" on="1"/>
        <pt x="471" y="491" on="0"/>
        <pt x="439" y="459" on="0"/>
        <pt x="393" y="459" on="0"/>
        <pt x="360" y="491" on="0"/>
        <pt x="360" y="546" on="0"/>
        <pt x="316" y="589" on="0"/>
        <pt x="254" y="589" on="0"/>
        <pt x="210" y="545" on="0"/>
        <pt x="210" y="475" on="0"/>
        <pt x="242" y="453" on="1"/>
        <pt x="259" y="439" on="0"/>
        <pt x="268" y="398" on="0"/>
        <pt x="257" y="379" on="1"/>
      </contour>
    </TTGlyph>
    <TTGlyph name="aring" xMin="51" yMin="0" xMax="527" yMax="818">
      <contour>
        <pt x="341" y="570" on="0"/>
        <pt x="239" y="570" on="0"/>
        <pt x="162" y="644" on="0"/>
        <pt x="162" y="693" on="1"/>
        <pt x="162" y="695" on="1"/>
        <pt x="162" y="745" on="0"/>
        <pt x="239" y="818" on="0"/>
        <pt x="341" y="818" on="0"/>
        <pt x="418" y="745" on="0"/>
        <pt x="418" y="695" on="1"/>
        <pt x="418" y="693" on="1"/>
        <pt x="418" y="644" on="0"/>
      </contour>
      <contour>
        <pt x="270" y="646" on="0"/>
        <pt x="310" y="646" on="0"/>
        <pt x="338" y="673" on="0"/>
        <pt x="338" y="693" on="1"/>
        <pt x="338" y="695" on="1"/>
        <pt x="338" y="715" on="0"/>
        <pt x="310" y="742" on="0"/>
        <pt x="270" y="742" on="0"/>
        <pt x="242" y="715" on="0"/>
        <pt x="242" y="695" on="1"/>
        <pt x="242" y="693" on="1"/>
        <pt x="242" y="673" on="0"/>
      </contour>
      <contour>
        <pt x="188" y="0" on="0"/>
        <pt x="51" y="146" on="0"/>
        <pt x="51" y="353" on="0"/>
        <pt x="188" y="500" on="0"/>
        <pt x="289" y="500" on="1"/>
        <pt x="360" y="500" on="0"/>
        <pt x="422" y="456" on="1"/>
        <pt x="427" y="475" on="0"/>
        <pt x="455" y="500" on="0"/>
        <pt x="496" y="500" on="0"/>
        <pt x="527" y="468" on="0"/>
        <pt x="527" y="446" on="1"/>
        <pt x="527" y="53" on="1"/>
        <pt x="527" y="31" on="0"/>
        <pt x="496" y="0" on="0"/>
        <pt x="455" y="0" on="0"/>
        <pt x="427" y="24" on="0"/>
        <pt x="422" y="43" on="1"/>
        <pt x="361" y="0" on="0"/>
        <pt x="289" y="0" on="1"/>
      </contour>
      <contour>
        <pt x="158" y="189" on="0"/>
        <pt x="231" y="107" on="0"/>
        <pt x="346" y="107" on="0"/>
        <pt x="421" y="189" on="0"/>
        <pt x="421" y="309" on="0"/>
        <pt x="345" y="393" on="0"/>
        <pt x="232" y="393" on="0"/>
        <pt x="158" y="310" on="0"/>
      </contour>
    </TTGlyph>
    <TTGlyph name="asciicircum" xMin="80" yMin="488" xMax="425" yMax="704">
      <contour>
        <pt x="252" y="625" on="1"/>
        <pt x="180" y="532" on="1"/>
        <pt x="160" y="506" on="0"/>
        <pt x="130" y="488" on="0"/>
        <pt x="80" y="488" on="0"/>
        <pt x="80" y="508" on="1"/>
        <pt x="80" y="522" on="0"/>
        <pt x="92" y="538" on="1"/>
        <pt x="187" y="668" on="1"/>
        <pt x="212" y="704" on="0"/>
        <pt x="248" y="704" on="1"/>
        <pt x="257" y="704" on="1"/>
        <pt x="292" y="704" on="0"/>
        <pt x="319" y="668" on="1"/>
        <pt x="414" y="538" on="1"/>
        <pt x="425" y="521" on="0"/>
        <pt x="425" y="508" on="1"/>
        <pt x="425" y="488" on="0"/>
        <pt x="374" y="488" on="0"/>
        <pt x="344" y="506" on="0"/>
        <pt x="324" y="532" on="1"/>
      </contour>
    </TTGlyph>
    <TTGlyph name="asciitilde" xMin="85" yMin="227" xMax="450" yMax="387">
      <contour>
        <pt x="154" y="247" on="1"/>
        <pt x="143" y="227" on="0"/>
        <pt x="107" y="227" on="0"/>
        <pt x="85" y="247" on="0"/>
        <pt x="85" y="275" on="0"/>
        <pt x="89" y="283" on="1"/>
        <pt x="106" y="329" on="0"/>
        <pt x="152" y="374" on="0"/>
        <pt x="221" y="374" on="0"/>
        <pt x="319" y="335" on="0"/>
        <pt x="334" y="335" on="1"/>
        <pt x="364" y="335" on="0"/>
        <pt x="392" y="387" on="0"/>
        <pt x="428" y="387" on="0"/>
        <pt x="450" y="366" on="0"/>
        <pt x="450" y="339" on="0"/>
        <pt x="446" y="330" on="1"/>
        <pt x="429" y="284" on="0"/>
        <pt x="383" y="239" on="0"/>
        <pt x="314" y="239" on="0"/>
        <pt x="216" y="279" on="0"/>
        <pt x="201" y="279" on="1"/>
        <pt x="171" y="279" on="0"/>
      </contour>
    </TTGlyph>
    <TTGlyph name="asterisk" xMin="76" yMin="377" xMax="384" yMax="707">
      <contour>
        <pt x="199" y="414" on="1"/>
        <pt x="209" y="504" on="1"/>
        <pt x="134" y="449" on="1"/>
        <pt x="119" y="439" on="0"/>
        <pt x="96" y="439" on="0"/>
        <pt x="76" y="459" on="0"/>
        <pt x="76" y="494" on="0"/>
        <pt x="99" y="504" on="1"/>
        <pt x="187" y="542" on="1"/>
        <pt x="99" y="581" on="1"/>
        <pt x="76" y="591" on="0"/>
        <pt x="76" y="625" on="0"/>
        <pt x="96" y="645" on="0"/>
        <pt x="121" y="645" on="0"/>
        <pt x="134" y="635" on="1"/>
        <pt x="209" y="580" on="1"/>
        <pt x="199" y="669" on="1"/>
        <pt x="197" y="685" on="0"/>
        <pt x="215" y="707" on="0"/>
        <pt x="245" y="707" on="0"/>
        <pt x="263" y="686" on="0"/>
        <pt x="261" y="670" on="1"/>
        <pt x="251" y="580" on="1"/>
        <pt x="326" y="635" on="1"/>
        <pt x="339" y="645" on="0"/>
        <pt x="364" y="645" on="0"/>
        <pt x="384" y="626" on="0"/>
        <pt x="384" y="591" on="0"/>
        <pt x="361" y="581" on="1"/>
        <pt x="273" y="542" on="1"/>
        <pt x="361" y="504" on="1"/>
        <pt x="384" y="494" on="0"/>
        <pt x="384" y="459" on="0"/>
        <pt x="364" y="439" on="0"/>
        <pt x="341" y="439" on="0"/>
        <pt x="326" y="449" on="1"/>
        <pt x="251" y="504" on="1"/>
        <pt x="261" y="415" on="1"/>
        <pt x="263" y="399" on="0"/>
        <pt x="245" y="377" on="0"/>
        <pt x="215" y="377" on="0"/>
        <pt x="197" y="398" on="0"/>
      </contour>
    </TTGlyph>
    <TTGlyph name="at" xMin="53" yMin="0" xMax="752" yMax="700">
      <contour>
        <pt x="321" y="553" on="0"/>
        <pt x="483" y="553" on="0"/>
        <pt x="596" y="434" on="0"/>
        <pt x="596" y="351" on="1"/>
        <pt x="596" y="220" on="1"/>
        <pt x="597" y="221" on="0"/>
        <pt x="601" y="224" on="0"/>
        <pt x="603" y="226" on="1"/>
        <pt x="641" y="264" on="0"/>
        <pt x="641" y="450" on="0"/>
        <pt x="502" y="589" on="0"/>
        <pt x="304" y="589" on="0"/>
        <pt x="164" y="449" on="0"/>
        <pt x="164" y="252" on="0"/>
        <pt x="304" y="112" on="0"/>
        <pt x="402" y="112" on="1"/>
        <pt x="434" y="112" on="0"/>
        <pt x="484" y="124" on="0"/>
        <pt x="524" y="101" on="0"/>
        <pt x="534" y="56" on="0"/>
        <pt x="511" y="17" on="0"/>
        <pt x="489" y="11" on="1"/>
        <pt x="445" y="0" on="0"/>
        <pt x="402" y="0" on="1"/>
        <pt x="257" y="1" on="0"/>
        <pt x="53" y="206" on="0"/>
        <pt x="53" y="495" on="0"/>
        <pt x="257" y="700" on="0"/>
        <pt x="547" y="700" on="0"/>
        <pt x="752" y="495" on="0"/>
        <pt x="752" y="351" on="1"/>
        <pt x="752" y="262" on="0"/>
        <pt x="713" y="190" on="1"/>
        <pt x="713" y="189" on="1"/>
        <pt x="712" y="188" on="0"/>
        <pt x="709" y="183" on="1"/>
        <pt x="697" y="163" on="0"/>
        <pt x="688" y="154" on="1"/>
        <pt x="637" y="103" on="0"/>
        <pt x="584" y="103" on="1"/>
        <pt x="551" y="102" on="0"/>
        <pt x="501" y="141" on="0"/>
        <pt x="492" y="170" on="1"/>
        <pt x="450" y="148" on="0"/>
        <pt x="402" y="148" on="1"/>
        <pt x="320" y="148" on="0"/>
        <pt x="209" y="267" on="0"/>
        <pt x="209" y="434" on="0"/>
      </contour>
      <contour>
        <pt x="366" y="259" on="0"/>
        <pt x="438" y="259" on="0"/>
        <pt x="485" y="313" on="0"/>
        <pt x="485" y="388" on="0"/>
        <pt x="437" y="442" on="0"/>
        <pt x="367" y="442" on="0"/>
        <pt x="320" y="388" on="0"/>
        <pt x="320" y="313" on="0"/>
      </contour>
    </TTGlyph>
    <TTGlyph name="atilde" xMin="63" yMin="0" xMax="539" yMax="729">
      <contour>
        <pt x="200" y="0" on="0"/>
        <pt x="63" y="146" on="0"/>
        <pt x="63" y="353" on="0"/>
        <pt x="200" y="500" on="0"/>
        <pt x="301" y="500" on="1"/>
        <pt x="372" y="500" on="0"/>
        <pt x="434" y="456" on="1"/>
        <pt x="439" y="475" on="0"/>
        <pt x="467" y="500" on="0"/>
        <pt x="508" y="500" on="0"/>
        <pt x="539" y="468" on="0"/>
        <pt x="539" y="446" on="1"/>
        <pt x="539" y="53" on="1"/>
        <pt x="539" y="31" on="0"/>
        <pt x="508" y="0" on="0"/>
        <pt x="467" y="0" on="0"/>
        <pt x="439" y="24" on="0"/>
        <pt x="434" y="43" on="1"/>
        <pt x="373" y="0" on="0"/>
        <pt x="301" y="0" on="1"/>
      </contour>
      <contour>
        <pt x="170" y="189" on="0"/>
        <pt x="243" y="107" on="0"/>
        <pt x="358" y="107" on="0"/>
        <pt x="433" y="189" on="0"/>
        <pt x="433" y="309" on="0"/>
        <pt x="357" y="393" on="0"/>
        <pt x="244" y="393" on="0"/>
        <pt x="170" y="310" on="0"/>
      </contour>
      <contour>
        <pt x="188" y="590" on="1"/>
        <pt x="175" y="570" on="0"/>
        <pt x="140" y="570" on="0"/>
        <pt x="118" y="590" on="0"/>
        <pt x="118" y="612" on="0"/>
        <pt x="122" y="626" on="1"/>
        <pt x="139" y="672" on="0"/>
        <pt x="186" y="717" on="0"/>
        <pt x="254" y="717" on="0"/>
        <pt x="352" y="677" on="0"/>
        <pt x="368" y="677" on="1"/>
        <pt x="397" y="677" on="0"/>
        <pt x="414" y="709" on="1"/>
        <pt x="427" y="729" on="0"/>
        <pt x="462" y="729" on="0"/>
        <pt x="484" y="709" on="0"/>
        <pt x="484" y="687" on="0"/>
        <pt x="480" y="673" on="1"/>
        <pt x="463" y="627" on="0"/>
        <pt x="416" y="582" on="0"/>
        <pt x="348" y="582" on="0"/>
        <pt x="250" y="622" on="0"/>
        <pt x="234" y="622" on="1"/>
        <pt x="205" y="622" on="0"/>
      </contour>
    </TTGlyph>
    <TTGlyph name="b" xMin="93" yMin="0" xMax="579" yMax="700">
      <contour>
        <pt x="93" y="54" on="1"/>
        <pt x="93" y="646" on="1"/>
        <pt x="93" y="668" on="0"/>
        <pt x="125" y="700" on="0"/>
        <pt x="170" y="700" on="0"/>
        <pt x="202" y="668" on="0"/>
        <pt x="202" y="646" on="1"/>
        <pt x="202" y="458" on="1"/>
        <pt x="262" y="500" on="0"/>
        <pt x="336" y="500" on="1"/>
        <pt x="437" y="500" on="0"/>
        <pt x="579" y="352" on="0"/>
        <pt x="579" y="147" on="0"/>
        <pt x="437" y="0" on="0"/>
        <pt x="336" y="0" on="1"/>
        <pt x="263" y="0" on="0"/>
        <pt x="200" y="43" on="1"/>
        <pt x="196" y="25" on="0"/>
        <pt x="167" y="0" on="0"/>
        <pt x="125" y="0" on="0"/>
        <pt x="93" y="32" on="0"/>
      </contour>
      <contour>
        <pt x="392" y="391" on="0"/>
        <pt x="280" y="391" on="0"/>
        <pt x="202" y="307" on="0"/>
        <pt x="202" y="192" on="0"/>
        <pt x="281" y="109" on="0"/>
        <pt x="391" y="109" on="0"/>
        <pt x="470" y="192" on="0"/>
        <pt x="470" y="307" on="0"/>
      </contour>
    </TTGlyph>
    <TTGlyph name="backslash" xMin="72" yMin="0" xMax="420" yMax="689">
      <contour>
        <pt x="389" y="4" on="1"/>
        <pt x="381" y="0" on="0"/>
        <pt x="369" y="0" on="1"/>
        <pt x="332" y="0" on="0"/>
        <pt x="318" y="33" on="1"/>
        <pt x="73" y="617" on="1"/>
        <pt x="64" y="637" on="0"/>
        <pt x="81" y="680" on="0"/>
        <pt x="123" y="697" on="0"/>
        <pt x="165" y="680" on="0"/>
        <pt x="174" y="659" on="1"/>
        <pt x="419" y="76" on="1"/>
        <pt x="428" y="55" on="0"/>
        <pt x="411" y="12" on="0"/>
      </contour>
    </TTGlyph>
    <TTGlyph name="bar" xMin="121" yMin="-133" xMax="218" yMax="803">
      <contour>
        <pt x="121" y="-85" on="1"/>
        <pt x="121" y="755" on="1"/>
        <pt x="121" y="775" on="0"/>
        <pt x="149" y="803" on="0"/>
        <pt x="189" y="803" on="0"/>
        <pt x="218" y="775" on="0"/>
        <pt x="218" y="755" on="1"/>
        <pt x="218" y="-85" on="1"/>
        <pt x="218" y="-105" on="0"/>
        <pt x="189" y="-133" on="0"/>
        <pt x="149" y="-133" on="0"/>
        <pt x="121" y="-105" on="0"/>
      </contour>
    </TTGlyph>
    <TTGlyph name="braceleft" xMin="55" yMin="-135" xMax="449" yMax="709">
      <contour>
        <pt x="312" y="150" on="1"/>
        <pt x="310" y="76" on="1"/>
        <pt x="310" y="22" on="0"/>
        <pt x="352" y="-32" on="0"/>
        <pt x="421" y="-53" on="1"/>
        <pt x="449" y="-62" on="0"/>
        <pt x="449" y="-116" on="0"/>
        <pt x="417" y="-140" on="0"/>
        <pt x="394" y="-135" on="1"/>
        <pt x="283" y="-111" on="0"/>
        <pt x="198" y="-19" on="0"/>
        <pt x="198" y="59" on="1"/>
        <pt x="200" y="131" on="1"/>
        <pt x="200" y="186" on="0"/>
        <pt x="156" y="238" on="0"/>
        <pt x="106" y="239" on="1"/>
        <pt x="82" y="240" on="0"/>
        <pt x="55" y="267" on="0"/>
        <pt x="55" y="307" on="0"/>
        <pt x="82" y="334" on="0"/>
        <pt x="106" y="335" on="1"/>
        <pt x="157" y="337" on="0"/>
        <pt x="200" y="388" on="0"/>
        <pt x="200" y="444" on="1"/>
        <pt x="198" y="516" on="1"/>
        <pt x="198" y="593" on="0"/>
        <pt x="283" y="685" on="0"/>
        <pt x="394" y="709" on="1"/>
        <pt x="417" y="714" on="0"/>
        <pt x="449" y="690" on="0"/>
        <pt x="449" y="636" on="0"/>
        <pt x="421" y="627" on="1"/>
        <pt x="352" y="606" on="0"/>
        <pt x="310" y="552" on="0"/>
        <pt x="310" y="498" on="1"/>
        <pt x="312" y="424" on="1"/>
        <pt x="312" y="368" on="0"/>
        <pt x="260" y="304" on="0"/>
        <pt x="208" y="287" on="1"/>
        <pt x="261" y="270" on="0"/>
        <pt x="312" y="206" on="0"/>
      </contour>
    </TTGlyph>
    <TTGlyph name="braceright" xMin="53" yMin="-135" xMax="447" yMax="709">
      <contour>
        <pt x="190" y="424" on="1"/>
        <pt x="192" y="498" on="1"/>
        <pt x="192" y="552" on="0"/>
        <pt x="151" y="606" on="0"/>
        <pt x="82" y="627" on="1"/>
        <pt x="53" y="636" on="0"/>
        <pt x="53" y="690" on="0"/>
        <pt x="85" y="714" on="0"/>
        <pt x="108" y="709" on="1"/>
        <pt x="219" y="685" on="0"/>
        <pt x="304" y="593" on="0"/>
        <pt x="304" y="516" on="1"/>
        <pt x="302" y="444" on="1"/>
        <pt x="302" y="388" on="0"/>
        <pt x="346" y="337" on="0"/>
        <pt x="397" y="335" on="1"/>
        <pt x="420" y="334" on="0"/>
        <pt x="447" y="307" on="0"/>
        <pt x="447" y="267" on="0"/>
        <pt x="420" y="240" on="0"/>
        <pt x="397" y="239" on="1"/>
        <pt x="346" y="238" on="0"/>
        <pt x="302" y="186" on="0"/>
        <pt x="302" y="131" on="1"/>
        <pt x="304" y="59" on="1"/>
        <pt x="304" y="-19" on="0"/>
        <pt x="219" y="-111" on="0"/>
        <pt x="108" y="-135" on="1"/>
        <pt x="85" y="-140" on="0"/>
        <pt x="53" y="-116" on="0"/>
        <pt x="53" y="-62" on="0"/>
        <pt x="82" y="-53" on="1"/>
        <pt x="151" y="-32" on="0"/>
        <pt x="192" y="22" on="0"/>
        <pt x="192" y="76" on="1"/>
        <pt x="190" y="150" on="1"/>
        <pt x="190" y="206" on="0"/>
        <pt x="242" y="270" on="0"/>
        <pt x="294" y="287" on="1"/>
        <pt x="241" y="304" on="0"/>
        <pt x="190" y="368" on="0"/>
      </contour>
    </TTGlyph>
    <TTGlyph name="bracketleft" xMin="98" yMin="-130" xMax="411" yMax="700">
      <contour>
        <pt x="98" y="-70" on="1"/>
        <pt x="98" y="640" on="1"/>
        <pt x="98" y="665" on="0"/>
        <pt x="132" y="700" on="0"/>
        <pt x="157" y="700" on="1"/>
        <pt x="363" y="700" on="1"/>
        <pt x="382" y="700" on="0"/>
        <pt x="411" y="672" on="0"/>
        <pt x="411" y="633" on="0"/>
        <pt x="383" y="605" on="0"/>
        <pt x="363" y="605" on="1"/>
        <pt x="214" y="605" on="1"/>
        <pt x="214" y="-35" on="1"/>
        <pt x="363" y="-35" on="1"/>
        <pt x="383" y="-35" on="0"/>
        <pt x="411" y="-63" on="0"/>
        <pt x="411" y="-102" on="0"/>
        <pt x="382" y="-130" on="0"/>
        <pt x="363" y="-130" on="1"/>
        <pt x="157" y="-130" on="1"/>
        <pt x="132" y="-130" on="0"/>
        <pt x="98" y="-95" on="0"/>
      </contour>
    </TTGlyph>
    <TTGlyph name="bracketright" xMin="55" yMin="-130" xMax="368" yMax="700">
      <contour>
        <pt x="368" y="640" on="1"/>
        <pt x="368" y="-70" on="1"/>
        <pt x="368" y="-95" on="0"/>
        <pt x="333" y="-130" on="0"/>
        <pt x="308" y="-130" on="1"/>
        <pt x="102" y="-130" on="1"/>
        <pt x="83" y="-130" on="0"/>
        <pt x="55" y="-102" on="0"/>
        <pt x="55" y="-62" on="0"/>
        <pt x="82" y="-35" on="0"/>
        <pt x="102" y="-35" on="1"/>
        <pt x="252" y="-35" on="1"/>
        <pt x="252" y="605" on="1"/>
        <pt x="102" y="605" on="1"/>
        <pt x="82" y="605" on="0"/>
        <pt x="55" y="632" on="0"/>
        <pt x="55" y="672" on="0"/>
        <pt x="83" y="700" on="0"/>
        <pt x="102" y="700" on="1"/>
        <pt x="308" y="700" on="1"/>
        <pt x="333" y="700" on="0"/>
        <pt x="368" y="665" on="0"/>
      </contour>
    </TTGlyph>
    <TTGlyph name="bullet" xMin="111" yMin="211" xMax="394" yMax="494">
      <contour>
        <pt x="394" y="293" on="0"/>
        <pt x="311" y="211" on="0"/>
        <pt x="194" y="211" on="0"/>
        <pt x="111" y="293" on="0"/>
        <pt x="111" y="351" on="1"/>
        <pt x="111" y="353" on="1"/>
        <pt x="111" y="411" on="0"/>
        <pt x="195" y="494" on="0"/>
        <pt x="310" y="494" on="0"/>
        <pt x="394" y="411" on="0"/>
        <pt x="394" y="353" on="1"/>
        <pt x="394" y="351" on="1"/>
      </contour>
    </TTGlyph>
    <TTGlyph name="c" xMin="58" yMin="0" xMax="491" yMax="500">
      <contour>
        <pt x="208" y="0" on="0"/>
        <pt x="58" y="147" on="0"/>
        <pt x="58" y="353" on="0"/>
        <pt x="208" y="499" on="0"/>
        <pt x="312" y="500" on="1"/>
        <pt x="399" y="500" on="0"/>
        <pt x="471" y="445" on="1"/>
        <pt x="488" y="432" on="0"/>
        <pt x="494" y="387" on="0"/>
        <pt x="467" y="353" on="0"/>
        <pt x="424" y="347" on="0"/>
        <pt x="407" y="361" on="1"/>
        <pt x="363" y="393" on="0"/>
        <pt x="252" y="393" on="0"/>
        <pt x="164" y="307" on="0"/>
        <pt x="164" y="191" on="0"/>
        <pt x="251" y="106" on="0"/>
        <pt x="363" y="106" on="0"/>
        <pt x="407" y="138" on="1"/>
        <pt x="423" y="151" on="0"/>
        <pt x="467" y="145" on="0"/>
        <pt x="494" y="111" on="0"/>
        <pt x="488" y="68" on="0"/>
        <pt x="471" y="53" on="1"/>
        <pt x="397" y="0" on="0"/>
        <pt x="312" y="0" on="1"/>
      </contour>
    </TTGlyph>
    <TTGlyph name="ccedilla" xMin="58" yMin="-160" xMax="491" yMax="500">
      <contour>
        <pt x="208" y="0" on="0"/>
        <pt x="58" y="147" on="0"/>
        <pt x="58" y="353" on="0"/>
        <pt x="208" y="499" on="0"/>
        <pt x="312" y="500" on="1"/>
        <pt x="399" y="500" on="0"/>
        <pt x="471" y="445" on="1"/>
        <pt x="488" y="432" on="0"/>
        <pt x="494" y="387" on="0"/>
        <pt x="467" y="353" on="0"/>
        <pt x="424" y="347" on="0"/>
        <pt x="407" y="361" on="1"/>
        <pt x="363" y="393" on="0"/>
        <pt x="252" y="393" on="0"/>
        <pt x="164" y="307" on="0"/>
        <pt x="164" y="191" on="0"/>
        <pt x="251" y="106" on="0"/>
        <pt x="363" y="106" on="0"/>
        <pt x="407" y="138" on="1"/>
        <pt x="423" y="151" on="0"/>
        <pt x="467" y="145" on="0"/>
        <pt x="494" y="111" on="0"/>
        <pt x="488" y="68" on="0"/>
        <pt x="471" y="53" on="1"/>
        <pt x="397" y="0" on="0"/>
        <pt x="312" y="0" on="1"/>
      </contour>
      <contour>
        <pt x="370" y="10" on="1"/>
        <pt x="309" y="-131" on="1"/>
        <pt x="297" y="-160" on="0"/>
        <pt x="250" y="-160" on="0"/>
        <pt x="200" y="-131" on="0"/>
        <pt x="200" y="-104" on="0"/>
        <pt x="208" y="-93" on="1"/>
        <pt x="279" y="10" on="1"/>
      </contour>
    </TTGlyph>
    <TTGlyph name="cedilla" xMin="170" yMin="-160" xMax="340" yMax="10">
      <contour>
        <pt x="340" y="10" on="1"/>
        <pt x="279" y="-131" on="1"/>
        <pt x="267" y="-160" on="0"/>
        <pt x="220" y="-160" on="0"/>
        <pt x="170" y="-131" on="0"/>
        <pt x="170" y="-104" on="0"/>
        <pt x="178" y="-93" on="1"/>
        <pt x="249" y="10" on="1"/>
      </contour>
    </TTGlyph>
    <TTGlyph name="cent" xMin="62" yMin="-30" xMax="504" yMax="659">
      <contour>
        <pt x="418" y="183" on="1"/>
        <pt x="435" y="197" on="0"/>
        <pt x="479" y="191" on="0"/>
        <pt x="507" y="156" on="0"/>
        <pt x="501" y="112" on="0"/>
        <pt x="484" y="97" on="1"/>
        <pt x="410" y="43" on="0"/>
        <pt x="322" y="43" on="1"/>
        <pt x="277" y="43" on="0"/>
        <pt x="237" y="57" on="1"/>
        <pt x="214" y="3" on="1"/>
        <pt x="200" y="-30" on="0"/>
        <pt x="132" y="-30" on="0"/>
        <pt x="102" y="20" on="0"/>
        <pt x="113" y="46" on="1"/>
        <pt x="142" y="115" on="1"/>
        <pt x="62" y="190" on="0"/>
        <pt x="62" y="403" on="0"/>
        <pt x="215" y="552" on="0"/>
        <pt x="322" y="553" on="1"/>
        <pt x="326" y="553" on="1"/>
        <pt x="358" y="629" on="1"/>
        <pt x="367" y="650" on="0"/>
        <pt x="409" y="667" on="0"/>
        <pt x="451" y="650" on="0"/>
        <pt x="468" y="607" on="0"/>
        <pt x="459" y="587" on="1"/>
        <pt x="434" y="528" on="1"/>
        <pt x="464" y="513" on="0"/>
        <pt x="501" y="484" on="0"/>
        <pt x="507" y="438" on="0"/>
        <pt x="479" y="403" on="0"/>
        <pt x="436" y="398" on="0"/>
        <pt x="410" y="418" on="0"/>
        <pt x="392" y="428" on="1"/>
        <pt x="279" y="157" on="1"/>
        <pt x="299" y="151" on="0"/>
        <pt x="322" y="151" on="1"/>
        <pt x="374" y="151" on="0"/>
      </contour>
      <contour>
        <pt x="230" y="423" on="0"/>
        <pt x="170" y="345" on="0"/>
        <pt x="170" y="260" on="0"/>
        <pt x="189" y="227" on="1"/>
        <pt x="277" y="437" on="1"/>
      </contour>
    </TTGlyph>
    <TTGlyph name="circumflex" xMin="141" yMin="590" xMax="449" yMax="746">
      <contour>
        <pt x="294" y="662" on="1"/>
        <pt x="242" y="617" on="1"/>
        <pt x="210" y="590" on="0"/>
        <pt x="168" y="590" on="1"/>
        <pt x="141" y="590" on="0"/>
        <pt x="141" y="610" on="1"/>
        <pt x="141" y="618" on="0"/>
        <pt x="153" y="634" on="1"/>
        <pt x="219" y="717" on="1"/>
        <pt x="243" y="746" on="0"/>
        <pt x="277" y="746" on="1"/>
        <pt x="313" y="746" on="1"/>
        <pt x="348" y="746" on="0"/>
        <pt x="371" y="717" on="1"/>
        <pt x="437" y="634" on="1"/>
        <pt x="449" y="618" on="0"/>
        <pt x="449" y="610" on="1"/>
        <pt x="449" y="590" on="0"/>
        <pt x="379" y="590" on="0"/>
        <pt x="346" y="617" on="1"/>
      </contour>
    </TTGlyph>
    <TTGlyph name="colon" xMin="87" yMin="-7" xMax="236" yMax="540">
      <contour>
        <pt x="87" y="36" on="0"/>
        <pt x="87" y="98" on="0"/>
        <pt x="130" y="142" on="0"/>
        <pt x="192" y="142" on="0"/>
        <pt x="236" y="98" on="0"/>
        <pt x="236" y="36" on="0"/>
        <pt x="192" y="-7" on="0"/>
        <pt x="130" y="-7" on="0"/>
      </contour>
      <contour>
        <pt x="87" y="434" on="0"/>
        <pt x="87" y="496" on="0"/>
        <pt x="130" y="540" on="0"/>
        <pt x="192" y="540" on="0"/>
        <pt x="236" y="496" on="0"/>
        <pt x="236" y="434" on="0"/>
        <pt x="192" y="391" on="0"/>
        <pt x="130" y="391" on="0"/>
      </contour>
    </TTGlyph>
    <TTGlyph name="comma" xMin="54" yMin="-145" xMax="228" yMax="143">
      <contour>
        <pt x="54" y="-117" on="1"/>
        <pt x="54" y="-95" on="0"/>
        <pt x="77" y="-90" on="1"/>
        <pt x="148" y="-67" on="0"/>
        <pt x="145" y="0" on="1"/>
        <pt x="121" y="7" on="0"/>
        <pt x="88" y="43" on="0"/>
        <pt x="88" y="68" on="1"/>
        <pt x="88" y="76" on="1"/>
        <pt x="88" y="105" on="0"/>
        <pt x="126" y="143" on="0"/>
        <pt x="190" y="143" on="0"/>
        <pt x="228" y="96" on="0"/>
        <pt x="228" y="55" on="1"/>
        <pt x="228" y="44" on="1"/>
        <pt x="228" y="-51" on="0"/>
        <pt x="179" y="-102" on="1"/>
        <pt x="134" y="-145" on="0"/>
        <pt x="85" y="-145" on="1"/>
        <pt x="54" y="-145" on="0"/>
      </contour>
    </TTGlyph>
    <TTGlyph name="copyright" xMin="53" yMin="-12" xMax="777" yMax="712">
      <contour>
        <pt x="565" y="-12" on="0"/>
        <pt x="263" y="-12" on="0"/>
        <pt x="53" y="199" on="0"/>
        <pt x="53" y="348" on="1"/>
        <pt x="53" y="350" on="1"/>
        <pt x="53" y="499" on="0"/>
        <pt x="265" y="712" on="0"/>
        <pt x="567" y="712" on="0"/>
        <pt x="777" y="501" on="0"/>
        <pt x="777" y="352" on="1"/>
        <pt x="777" y="350" on="1"/>
        <pt x="777" y="201" on="0"/>
      </contour>
      <contour>
        <pt x="91" y="213" on="0"/>
        <pt x="277" y="24" on="0"/>
        <pt x="552" y="24" on="0"/>
        <pt x="739" y="215" on="0"/>
        <pt x="739" y="350" on="1"/>
        <pt x="739" y="352" on="1"/>
        <pt x="739" y="487" on="0"/>
        <pt x="553" y="676" on="0"/>
        <pt x="278" y="676" on="0"/>
        <pt x="91" y="485" on="0"/>
        <pt x="91" y="350" on="1"/>
        <pt x="91" y="348" on="1"/>
      </contour>
      <contour>
        <pt x="559" y="212" on="1"/>
        <pt x="498" y="159" on="0"/>
        <pt x="337" y="159" on="0"/>
        <pt x="227" y="271" on="0"/>
        <pt x="227" y="353" on="1"/>
        <pt x="227" y="355" on="1"/>
        <pt x="227" y="437" on="0"/>
        <pt x="337" y="551" on="0"/>
        <pt x="498" y="551" on="0"/>
        <pt x="551" y="508" on="1"/>
        <pt x="567" y="497" on="0"/>
        <pt x="567" y="462" on="0"/>
        <pt x="546" y="441" on="0"/>
        <pt x="520" y="441" on="0"/>
        <pt x="507" y="451" on="1"/>
        <pt x="466" y="483" on="0"/>
        <pt x="371" y="483" on="0"/>
        <pt x="303" y="409" on="0"/>
        <pt x="303" y="356" on="1"/>
        <pt x="303" y="354" on="1"/>
        <pt x="303" y="302" on="0"/>
        <pt x="371" y="227" on="0"/>
        <pt x="471" y="227" on="0"/>
        <pt x="513" y="263" on="1"/>
        <pt x="524" y="272" on="0"/>
        <pt x="549" y="272" on="0"/>
        <pt x="570" y="251" on="0"/>
        <pt x="570" y="221" on="0"/>
      </contour>
    </TTGlyph>
    <TTGlyph name="d" xMin="60" yMin="0" xMax="546" yMax="700">
      <contour>
        <pt x="546" y="54" on="1"/>
        <pt x="546" y="32" on="0"/>
        <pt x="514" y="0" on="0"/>
        <pt x="472" y="0" on="0"/>
        <pt x="443" y="25" on="0"/>
        <pt x="439" y="43" on="1"/>
        <pt x="376" y="0" on="0"/>
        <pt x="303" y="0" on="1"/>
        <pt x="202" y="0" on="0"/>
        <pt x="60" y="147" on="0"/>
        <pt x="60" y="352" on="0"/>
        <pt x="202" y="500" on="0"/>
        <pt x="303" y="500" on="1"/>
        <pt x="377" y="500" on="0"/>
        <pt x="437" y="458" on="1"/>
        <pt x="437" y="646" on="1"/>
        <pt x="437" y="668" on="0"/>
        <pt x="469" y="700" on="0"/>
        <pt x="514" y="700" on="0"/>
        <pt x="546" y="668" on="0"/>
        <pt x="546" y="646" on="1"/>
      </contour>
      <contour>
        <pt x="358" y="109" on="0"/>
        <pt x="437" y="192" on="0"/>
        <pt x="437" y="307" on="0"/>
        <pt x="359" y="391" on="0"/>
        <pt x="247" y="391" on="0"/>
        <pt x="169" y="307" on="0"/>
        <pt x="169" y="192" on="0"/>
        <pt x="248" y="109" on="0"/>
      </contour>
    </TTGlyph>
    <TTGlyph name="degree" xMin="74" yMin="381" xMax="407" yMax="706">
      <contour>
        <pt x="307" y="381" on="0"/>
        <pt x="175" y="381" on="0"/>
        <pt x="74" y="478" on="0"/>
        <pt x="74" y="543" on="1"/>
        <pt x="74" y="545" on="1"/>
        <pt x="74" y="610" on="0"/>
        <pt x="175" y="706" on="0"/>
        <pt x="307" y="706" on="0"/>
        <pt x="407" y="610" on="0"/>
        <pt x="407" y="545" on="1"/>
        <pt x="407" y="543" on="1"/>
        <pt x="407" y="478" on="0"/>
      </contour>
      <contour>
        <pt x="201" y="447" on="0"/>
        <pt x="281" y="447" on="0"/>
        <pt x="335" y="504" on="0"/>
        <pt x="335" y="543" on="1"/>
        <pt x="335" y="545" on="1"/>
        <pt x="335" y="584" on="0"/>
        <pt x="281" y="640" on="0"/>
        <pt x="200" y="640" on="0"/>
        <pt x="146" y="584" on="0"/>
        <pt x="146" y="545" on="1"/>
        <pt x="146" y="543" on="1"/>
        <pt x="146" y="504" on="0"/>
      </contour>
    </TTGlyph>
    <TTGlyph name="dieresis" xMin="133" yMin="572" xMax="462" yMax="701">
      <contour>
        <pt x="133" y="609" on="0"/>
        <pt x="133" y="663" on="0"/>
        <pt x="170" y="701" on="0"/>
        <pt x="224" y="701" on="0"/>
        <pt x="262" y="663" on="0"/>
        <pt x="262" y="609" on="0"/>
        <pt x="224" y="572" on="0"/>
        <pt x="170" y="572" on="0"/>
      </contour>
      <contour>
        <pt x="333" y="609" on="0"/>
        <pt x="333" y="663" on="0"/>
        <pt x="370" y="701" on="0"/>
        <pt x="424" y="701" on="0"/>
        <pt x="462" y="663" on="0"/>
        <pt x="462" y="609" on="0"/>
        <pt x="424" y="572" on="0"/>
        <pt x="370" y="572" on="0"/>
      </contour>
    </TTGlyph>
    <TTGlyph name="divide" xMin="64" yMin="75" xMax="572" yMax="629">
      <contour>
        <pt x="520" y="300" on="1"/>
        <pt x="116" y="300" on="1"/>
        <pt x="94" y="300" on="0"/>
        <pt x="64" y="331" on="0"/>
        <pt x="64" y="373" on="0"/>
        <pt x="94" y="404" on="0"/>
        <pt x="116" y="404" on="1"/>
        <pt x="520" y="404" on="1"/>
        <pt x="542" y="404" on="0"/>
        <pt x="572" y="373" on="0"/>
        <pt x="572" y="331" on="0"/>
        <pt x="542" y="300" on="0"/>
      </contour>
      <contour>
        <pt x="290" y="629" on="0"/>
        <pt x="346" y="629" on="0"/>
        <pt x="387" y="590" on="0"/>
        <pt x="387" y="563" on="1"/>
        <pt x="387" y="558" on="1"/>
        <pt x="387" y="530" on="0"/>
        <pt x="347" y="491" on="0"/>
        <pt x="289" y="491" on="0"/>
        <pt x="249" y="530" on="0"/>
        <pt x="249" y="558" on="1"/>
        <pt x="249" y="563" on="1"/>
        <pt x="249" y="590" on="0"/>
      </contour>
      <contour>
        <pt x="289" y="213" on="0"/>
        <pt x="347" y="213" on="0"/>
        <pt x="387" y="174" on="0"/>
        <pt x="387" y="146" on="1"/>
        <pt x="387" y="141" on="1"/>
        <pt x="387" y="113" on="0"/>
        <pt x="347" y="75" on="0"/>
        <pt x="289" y="75" on="0"/>
        <pt x="249" y="113" on="0"/>
        <pt x="249" y="141" on="1"/>
        <pt x="249" y="146" on="1"/>
        <pt x="249" y="174" on="0"/>
      </contour>
    </TTGlyph>
    <TTGlyph name="dollar" xMin="61" yMin="-103" xMax="593" yMax="763">
      <contour>
        <pt x="293" y="720" on="1"/>
        <pt x="293" y="738" on="0"/>
        <pt x="319" y="763" on="0"/>
        <pt x="355" y="763" on="0"/>
        <pt x="380" y="738" on="0"/>
        <pt x="380" y="720" on="1"/>
        <pt x="380" y="698" on="1"/>
        <pt x="463" y="688" on="0"/>
        <pt x="535" y="643" on="1"/>
        <pt x="565" y="626" on="0"/>
        <pt x="565" y="572" on="0"/>
        <pt x="532" y="540" on="0"/>
        <pt x="494" y="540" on="0"/>
        <pt x="479" y="549" on="1"/>
        <pt x="425" y="582" on="0"/>
        <pt x="376" y="593" on="1"/>
        <pt x="376" y="401" on="1"/>
        <pt x="490" y="372" on="0"/>
        <pt x="593" y="275" on="0"/>
        <pt x="593" y="114" on="0"/>
        <pt x="477" y="9" on="0"/>
        <pt x="380" y="0" on="1"/>
        <pt x="380" y="-60" on="1"/>
        <pt x="380" y="-78" on="0"/>
        <pt x="355" y="-103" on="0"/>
        <pt x="319" y="-103" on="0"/>
        <pt x="293" y="-78" on="0"/>
        <pt x="293" y="-60" on="1"/>
        <pt x="293" y="2" on="1"/>
        <pt x="182" y="14" on="0"/>
        <pt x="88" y="80" on="1"/>
        <pt x="61" y="97" on="0"/>
        <pt x="61" y="151" on="0"/>
        <pt x="93" y="183" on="0"/>
        <pt x="135" y="183" on="0"/>
        <pt x="149" y="172" on="1"/>
        <pt x="223" y="118" on="0"/>
        <pt x="297" y="105" on="1"/>
        <pt x="297" y="302" on="1"/>
        <pt x="185" y="331" on="0"/>
        <pt x="83" y="425" on="0"/>
        <pt x="83" y="588" on="0"/>
        <pt x="199" y="691" on="0"/>
        <pt x="293" y="699" on="1"/>
      </contour>
      <contour>
        <pt x="424" y="106" on="0"/>
        <pt x="475" y="152" on="0"/>
        <pt x="475" y="222" on="0"/>
        <pt x="432" y="266" on="0"/>
        <pt x="376" y="283" on="1"/>
        <pt x="376" y="101" on="1"/>
      </contour>
      <contour>
        <pt x="250" y="595" on="0"/>
        <pt x="201" y="549" on="0"/>
        <pt x="201" y="482" on="0"/>
        <pt x="241" y="440" on="0"/>
        <pt x="297" y="422" on="1"/>
        <pt x="297" y="599" on="1"/>
      </contour>
    </TTGlyph>
    <TTGlyph name="e" xMin="58" yMin="0" xMax="543" yMax="500">
      <contour>
        <pt x="543" y="263" on="1"/>
        <pt x="543" y="241" on="0"/>
        <pt x="514" y="214" on="0"/>
        <pt x="490" y="214" on="1"/>
        <pt x="172" y="214" on="1"/>
        <pt x="181" y="171" on="0"/>
        <pt x="206" y="148" on="1"/>
        <pt x="238" y="111" on="0"/>
        <pt x="361" y="96" on="0"/>
        <pt x="406" y="128" on="1"/>
        <pt x="421" y="144" on="0"/>
        <pt x="471" y="144" on="0"/>
        <pt x="481" y="131" on="1"/>
        <pt x="509" y="100" on="0"/>
        <pt x="481" y="66" on="1"/>
        <pt x="409" y="0" on="0"/>
        <pt x="200" y="1" on="0"/>
        <pt x="59" y="147" on="0"/>
        <pt x="58" y="250" on="1"/>
        <pt x="59" y="353" on="0"/>
        <pt x="200" y="500" on="0"/>
        <pt x="400" y="500" on="0"/>
        <pt x="537" y="369" on="0"/>
        <pt x="543" y="268" on="1"/>
      </contour>
      <contour>
        <pt x="302" y="405" on="1"/>
        <pt x="244" y="402" on="0"/>
        <pt x="174" y="336" on="0"/>
        <pt x="167" y="299" on="1"/>
        <pt x="450" y="299" on="1"/>
        <pt x="441" y="334" on="0"/>
        <pt x="362" y="400" on="0"/>
      </contour>
    </TTGlyph>
    <TTGlyph name="eacute" xMin="58" yMin="0" xMax="543" yMax="730">
      <contour>
        <pt x="543" y="263" on="1"/>
        <pt x="543" y="241" on="0"/>
        <pt x="514" y="214" on="0"/>
        <pt x="490" y="214" on="1"/>
        <pt x="172" y="214" on="1"/>
        <pt x="181" y="171" on="0"/>
        <pt x="206" y="148" on="1"/>
        <pt x="238" y="111" on="0"/>
        <pt x="361" y="96" on="0"/>
        <pt x="406" y="128" on="1"/>
        <pt x="421" y="144" on="0"/>
        <pt x="471" y="144" on="0"/>
        <pt x="481" y="131" on="1"/>
        <pt x="509" y="100" on="0"/>
        <pt x="481" y="66" on="1"/>
        <pt x="409" y="0" on="0"/>
        <pt x="200" y="1" on="0"/>
        <pt x="59" y="147" on="0"/>
        <pt x="58" y="250" on="1"/>
        <pt x="59" y="353" on="0"/>
        <pt x="200" y="500" on="0"/>
        <pt x="400" y="500" on="0"/>
        <pt x="537" y="369" on="0"/>
        <pt x="543" y="268" on="1"/>
      </contour>
      <contour>
        <pt x="302" y="405" on="1"/>
        <pt x="244" y="402" on="0"/>
        <pt x="174" y="336" on="0"/>
        <pt x="167" y="299" on="1"/>
        <pt x="450" y="299" on="1"/>
        <pt x="441" y="334" on="0"/>
        <pt x="362" y="400" on="0"/>
      </contour>
      <contour>
        <pt x="426" y="597" on="1"/>
        <pt x="397" y="570" on="0"/>
        <pt x="325" y="570" on="0"/>
        <pt x="325" y="591" on="1"/>
        <pt x="325" y="601" on="0"/>
        <pt x="333" y="613" on="1"/>
        <pt x="390" y="701" on="1"/>
        <pt x="408" y="730" on="0"/>
        <pt x="463" y="730" on="0"/>
        <pt x="510" y="705" on="0"/>
        <pt x="510" y="676" on="0"/>
        <pt x="493" y="661" on="1"/>
      </contour>
    </TTGlyph>
    <TTGlyph name="ecircumflex" xMin="58" yMin="0" xMax="543" yMax="726">
      <component glyphName="e" x="0" y="0" flags="0x1004"/>
      <component glyphName="circumflex" x="6" y="-20" flags="0x1004"/>
    </TTGlyph>
    <TTGlyph name="edieresis" xMin="61" yMin="0" xMax="546" yMax="699">
      <contour>
        <pt x="546" y="263" on="1"/>
        <pt x="546" y="241" on="0"/>
        <pt x="517" y="214" on="0"/>
        <pt x="493" y="214" on="1"/>
        <pt x="175" y="214" on="1"/>
        <pt x="184" y="171" on="0"/>
        <pt x="209" y="148" on="1"/>
        <pt x="241" y="111" on="0"/>
        <pt x="364" y="96" on="0"/>
        <pt x="409" y="128" on="1"/>
        <pt x="424" y="144" on="0"/>
        <pt x="474" y="144" on="0"/>
        <pt x="484" y="131" on="1"/>
        <pt x="512" y="100" on="0"/>
        <pt x="484" y="66" on="1"/>
        <pt x="412" y="0" on="0"/>
        <pt x="203" y="1" on="0"/>
        <pt x="62" y="147" on="0"/>
        <pt x="61" y="250" on="1"/>
        <pt x="62" y="353" on="0"/>
        <pt x="203" y="500" on="0"/>
        <pt x="403" y="500" on="0"/>
        <pt x="540" y="369" on="0"/>
        <pt x="546" y="268" on="1"/>
      </contour>
      <contour>
        <pt x="305" y="405" on="1"/>
        <pt x="247" y="402" on="0"/>
        <pt x="177" y="336" on="0"/>
        <pt x="170" y="299" on="1"/>
        <pt x="453" y="299" on="1"/>
        <pt x="444" y="334" on="0"/>
        <pt x="365" y="400" on="0"/>
      </contour>
      <contour>
        <pt x="139" y="607" on="0"/>
        <pt x="139" y="661" on="0"/>
        <pt x="176" y="699" on="0"/>
        <pt x="230" y="699" on="0"/>
        <pt x="268" y="661" on="0"/>
        <pt x="268" y="607" on="0"/>
        <pt x="230" y="570" on="0"/>
        <pt x="176" y="570" on="0"/>
      </contour>
      <contour>
        <pt x="339" y="607" on="0"/>
        <pt x="339" y="661" on="0"/>
        <pt x="376" y="699" on="0"/>
        <pt x="430" y="699" on="0"/>
        <pt x="468" y="661" on="0"/>
        <pt x="468" y="607" on="0"/>
        <pt x="430" y="570" on="0"/>
        <pt x="376" y="570" on="0"/>
      </contour>
    </TTGlyph>
    <TTGlyph name="egrave" xMin="58" yMin="0" xMax="543" yMax="730">
      <component glyphName="e" x="0" y="0" flags="0x1004"/>
      <component glyphName="grave" x="69" y="-20" flags="0x1004"/>
    </TTGlyph>
    <TTGlyph name="eight" xMin="55" yMin="0" xMax="533" yMax="700">
      <contour>
        <pt x="426" y="437" on="1"/>
        <pt x="475" y="404" on="0"/>
        <pt x="533" y="299" on="0"/>
        <pt x="533" y="238" on="1"/>
        <pt x="533" y="140" on="0"/>
        <pt x="393" y="0" on="0"/>
        <pt x="196" y="0" on="0"/>
        <pt x="55" y="140" on="0"/>
        <pt x="55" y="238" on="1"/>
        <pt x="55" y="299" on="0"/>
        <pt x="112" y="404" on="0"/>
        <pt x="162" y="437" on="1"/>
        <pt x="129" y="479" on="0"/>
        <pt x="129" y="604" on="0"/>
        <pt x="226" y="700" on="0"/>
        <pt x="362" y="700" on="0"/>
        <pt x="459" y="604" on="0"/>
        <pt x="459" y="479" on="0"/>
      </contour>
      <contour>
        <pt x="350" y="558" on="0"/>
        <pt x="318" y="591" on="0"/>
        <pt x="271" y="591" on="0"/>
        <pt x="238" y="559" on="0"/>
        <pt x="238" y="513" on="0"/>
        <pt x="271" y="479" on="0"/>
        <pt x="317" y="479" on="0"/>
        <pt x="350" y="513" on="0"/>
      </contour>
      <contour>
        <pt x="165" y="185" on="0"/>
        <pt x="241" y="109" on="0"/>
        <pt x="348" y="109" on="0"/>
        <pt x="424" y="185" on="0"/>
        <pt x="424" y="291" on="0"/>
        <pt x="348" y="368" on="0"/>
        <pt x="241" y="368" on="0"/>
        <pt x="165" y="292" on="0"/>
        <pt x="164" y="238" on="1"/>
      </contour>
    </TTGlyph>
    <TTGlyph name="ellipsis" xMin="82" yMin="-7" xMax="805" yMax="142">
      <contour>
        <pt x="82" y="36" on="0"/>
        <pt x="82" y="98" on="0"/>
        <pt x="125" y="142" on="0"/>
        <pt x="187" y="142" on="0"/>
        <pt x="231" y="98" on="0"/>
        <pt x="231" y="36" on="0"/>
        <pt x="187" y="-7" on="0"/>
        <pt x="125" y="-7" on="0"/>
      </contour>
      <contour>
        <pt x="369" y="36" on="0"/>
        <pt x="369" y="98" on="0"/>
        <pt x="412" y="142" on="0"/>
        <pt x="474" y="142" on="0"/>
        <pt x="518" y="98" on="0"/>
        <pt x="518" y="36" on="0"/>
        <pt x="474" y="-7" on="0"/>
        <pt x="412" y="-7" on="0"/>
      </contour>
      <contour>
        <pt x="656" y="36" on="0"/>
        <pt x="656" y="98" on="0"/>
        <pt x="699" y="142" on="0"/>
        <pt x="761" y="142" on="0"/>
        <pt x="805" y="98" on="0"/>
        <pt x="805" y="36" on="0"/>
        <pt x="761" y="-7" on="0"/>
        <pt x="699" y="-7" on="0"/>
      </contour>
    </TTGlyph>
    <TTGlyph name="emdash" xMin="66" yMin="249" xMax="862" yMax="364">
      <contour>
        <pt x="123" y="249" on="1"/>
        <pt x="100" y="249" on="0"/>
        <pt x="66" y="283" on="0"/>
        <pt x="66" y="330" on="0"/>
        <pt x="100" y="364" on="0"/>
        <pt x="123" y="364" on="1"/>
        <pt x="805" y="364" on="1"/>
        <pt x="828" y="364" on="0"/>
        <pt x="862" y="330" on="0"/>
        <pt x="862" y="283" on="0"/>
        <pt x="828" y="249" on="0"/>
        <pt x="805" y="249" on="1"/>
      </contour>
    </TTGlyph>
    <TTGlyph name="endash" xMin="66" yMin="249" xMax="492" yMax="364">
      <contour>
        <pt x="123" y="249" on="1"/>
        <pt x="100" y="249" on="0"/>
        <pt x="66" y="283" on="0"/>
        <pt x="66" y="330" on="0"/>
        <pt x="100" y="364" on="0"/>
        <pt x="123" y="364" on="1"/>
        <pt x="435" y="364" on="1"/>
        <pt x="458" y="364" on="0"/>
        <pt x="492" y="330" on="0"/>
        <pt x="492" y="283" on="0"/>
        <pt x="458" y="249" on="0"/>
        <pt x="435" y="249" on="1"/>
      </contour>
    </TTGlyph>
    <TTGlyph name="equal" xMin="79" yMin="259" xMax="336" yMax="442">
      <contour>
        <pt x="79" y="280" on="0"/>
        <pt x="79" y="310" on="0"/>
        <pt x="100" y="331" on="0"/>
        <pt x="115" y="331" on="1"/>
        <pt x="301" y="331" on="1"/>
        <pt x="316" y="331" on="0"/>
        <pt x="336" y="310" on="0"/>
        <pt x="336" y="280" on="0"/>
        <pt x="316" y="259" on="0"/>
        <pt x="301" y="259" on="1"/>
        <pt x="115" y="259" on="1"/>
        <pt x="100" y="259" on="0"/>
      </contour>
      <contour>
        <pt x="100" y="372" on="0"/>
        <pt x="79" y="392" on="0"/>
        <pt x="79" y="421" on="0"/>
        <pt x="100" y="442" on="0"/>
        <pt x="115" y="442" on="1"/>
        <pt x="301" y="442" on="1"/>
        <pt x="316" y="442" on="0"/>
        <pt x="336" y="421" on="0"/>
        <pt x="336" y="392" on="0"/>
        <pt x="316" y="372" on="0"/>
        <pt x="301" y="372" on="1"/>
        <pt x="115" y="372" on="1"/>
      </contour>
    </TTGlyph>
    <TTGlyph name="eth" xMin="58" yMin="-12" xMax="604" yMax="738">
      <contour>
        <pt x="429" y="445" on="1"/>
        <pt x="325" y="588" on="1"/>
        <pt x="216" y="540" on="1"/>
        <pt x="208" y="537" on="0"/>
        <pt x="183" y="537" on="0"/>
        <pt x="161" y="559" on="0"/>
        <pt x="161" y="575" on="1"/>
        <pt x="161" y="601" on="0"/>
        <pt x="188" y="611" on="1"/>
        <pt x="279" y="651" on="1"/>
        <pt x="269" y="665" on="0"/>
        <pt x="269" y="706" on="0"/>
        <pt x="301" y="738" on="0"/>
        <pt x="353" y="738" on="0"/>
        <pt x="372" y="711" on="1"/>
        <pt x="383" y="695" on="1"/>
        <pt x="470" y="733" on="1"/>
        <pt x="482" y="737" on="0"/>
        <pt x="503" y="737" on="0"/>
        <pt x="525" y="714" on="0"/>
        <pt x="525" y="698" on="1"/>
        <pt x="525" y="672" on="0"/>
        <pt x="499" y="662" on="1"/>
        <pt x="427" y="631" on="1"/>
        <pt x="517" y="503" on="1"/>
        <pt x="563" y="436" on="0"/>
        <pt x="604" y="324" on="0"/>
        <pt x="604" y="259" on="1"/>
        <pt x="604" y="145" on="0"/>
        <pt x="453" y="-12" on="0"/>
        <pt x="212" y="-12" on="0"/>
        <pt x="58" y="140" on="0"/>
        <pt x="58" y="354" on="0"/>
        <pt x="190" y="486" on="0"/>
        <pt x="290" y="486" on="1"/>
        <pt x="361" y="486" on="0"/>
      </contour>
      <contour>
        <pt x="400" y="91" on="0"/>
        <pt x="485" y="181" on="0"/>
        <pt x="485" y="310" on="0"/>
        <pt x="397" y="397" on="0"/>
        <pt x="260" y="397" on="0"/>
        <pt x="177" y="312" on="0"/>
        <pt x="177" y="182" on="0"/>
        <pt x="265" y="91" on="0"/>
      </contour>
    </TTGlyph>
    <TTGlyph name="exclam" xMin="93" yMin="0" xMax="202" yMax="700">
      <contour>
        <pt x="171" y="186" on="0"/>
        <pt x="125" y="186" on="0"/>
        <pt x="93" y="218" on="0"/>
        <pt x="93" y="241" on="1"/>
        <pt x="93" y="645" on="1"/>
        <pt x="93" y="668" on="0"/>
        <pt x="126" y="700" on="0"/>
        <pt x="170" y="700" on="0"/>
        <pt x="202" y="668" on="0"/>
        <pt x="202" y="645" on="1"/>
        <pt x="202" y="241" on="1"/>
        <pt x="202" y="218" on="0"/>
      </contour>
      <contour>
        <pt x="202" y="55" on="1"/>
        <pt x="202" y="32" on="0"/>
        <pt x="171" y="0" on="0"/>
        <pt x="125" y="0" on="0"/>
        <pt x="93" y="32" on="0"/>
        <pt x="93" y="55" on="1"/>
        <pt x="93" y="75" on="1"/>
        <pt x="93" y="98" on="0"/>
        <pt x="126" y="130" on="0"/>
        <pt x="170" y="130" on="0"/>
        <pt x="202" y="98" on="0"/>
        <pt x="202" y="75" on="1"/>
      </contour>
    </TTGlyph>
    <TTGlyph name="exclamdown" xMin="93" yMin="0" xMax="202" yMax="700">
      <contour>
        <pt x="125" y="514" on="0"/>
        <pt x="171" y="514" on="0"/>
        <pt x="202" y="482" on="0"/>
        <pt x="202" y="459" on="1"/>
        <pt x="202" y="55" on="1"/>
        <pt x="202" y="32" on="0"/>
        <pt x="170" y="0" on="0"/>
        <pt x="126" y="0" on="0"/>
        <pt x="93" y="32" on="0"/>
        <pt x="93" y="55" on="1"/>
        <pt x="93" y="459" on="1"/>
        <pt x="93" y="482" on="0"/>
      </contour>
      <contour>
        <pt x="202" y="645" on="1"/>
        <pt x="202" y="625" on="1"/>
        <pt x="202" y="602" on="0"/>
        <pt x="170" y="570" on="0"/>
        <pt x="126" y="570" on="0"/>
        <pt x="93" y="602" on="0"/>
        <pt x="93" y="625" on="1"/>
        <pt x="93" y="645" on="1"/>
        <pt x="93" y="668" on="0"/>
        <pt x="125" y="700" on="0"/>
        <pt x="171" y="700" on="0"/>
        <pt x="202" y="668" on="0"/>
      </contour>
    </TTGlyph>
    <TTGlyph name="f" xMin="65" yMin="1" xMax="353" yMax="701">
      <contour>
        <pt x="353" y="623" on="0"/>
        <pt x="321" y="590" on="0"/>
        <pt x="272" y="590" on="0"/>
        <pt x="266" y="584" on="1"/>
        <pt x="262" y="584" on="0"/>
        <pt x="257" y="550" on="0"/>
        <pt x="257" y="533" on="1"/>
        <pt x="257" y="519" on="1"/>
        <pt x="287" y="519" on="1"/>
        <pt x="310" y="519" on="0"/>
        <pt x="342" y="487" on="0"/>
        <pt x="342" y="442" on="0"/>
        <pt x="310" y="409" on="0"/>
        <pt x="287" y="409" on="1"/>
        <pt x="257" y="409" on="1"/>
        <pt x="257" y="56" on="1"/>
        <pt x="257" y="33" on="0"/>
        <pt x="225" y="1" on="0"/>
        <pt x="179" y="1" on="0"/>
        <pt x="147" y="33" on="0"/>
        <pt x="147" y="56" on="1"/>
        <pt x="147" y="409" on="1"/>
        <pt x="121" y="409" on="1"/>
        <pt x="98" y="409" on="0"/>
        <pt x="65" y="441" on="0"/>
        <pt x="65" y="487" on="0"/>
        <pt x="98" y="519" on="0"/>
        <pt x="121" y="519" on="1"/>
        <pt x="147" y="519" on="1"/>
        <pt x="147" y="533" on="1"/>
        <pt x="147" y="701" on="0"/>
        <pt x="298" y="701" on="1"/>
        <pt x="320" y="701" on="0"/>
        <pt x="353" y="668" on="0"/>
      </contour>
    </TTGlyph>
    <TTGlyph name="five" xMin="66" yMin="0" xMax="507" yMax="700">
      <contour>
        <pt x="69" y="365" on="1"/>
        <pt x="68" y="372" on="1"/>
        <pt x="64" y="380" on="0"/>
        <pt x="67" y="391" on="1"/>
        <pt x="97" y="650" on="1"/>
        <pt x="102" y="676" on="0"/>
        <pt x="122" y="690" on="1"/>
        <pt x="142" y="700" on="0"/>
        <pt x="155" y="700" on="1"/>
        <pt x="450" y="700" on="1"/>
        <pt x="474" y="700" on="0"/>
        <pt x="507" y="667" on="0"/>
        <pt x="507" y="620" on="0"/>
        <pt x="474" y="587" on="0"/>
        <pt x="450" y="587" on="1"/>
        <pt x="204" y="587" on="1"/>
        <pt x="192" y="488" on="1"/>
        <pt x="225" y="497" on="0"/>
        <pt x="259" y="497" on="1"/>
        <pt x="362" y="497" on="0"/>
        <pt x="507" y="352" on="0"/>
        <pt x="507" y="146" on="0"/>
        <pt x="362" y="0" on="0"/>
        <pt x="259" y="0" on="1"/>
        <pt x="257" y="0" on="1"/>
        <pt x="153" y="0" on="0"/>
        <pt x="83" y="73" on="1"/>
        <pt x="66" y="89" on="0"/>
        <pt x="66" y="136" on="0"/>
        <pt x="99" y="170" on="0"/>
        <pt x="146" y="170" on="0"/>
        <pt x="163" y="153" on="1"/>
        <pt x="202" y="113" on="0"/>
        <pt x="315" y="113" on="0"/>
        <pt x="394" y="193" on="0"/>
        <pt x="394" y="305" on="0"/>
        <pt x="316" y="383" on="0"/>
        <pt x="201" y="383" on="0"/>
        <pt x="163" y="344" on="1"/>
        <pt x="146" y="328" on="0"/>
        <pt x="123" y="328" on="1"/>
        <pt x="95" y="328" on="0"/>
        <pt x="78" y="350" on="1"/>
        <pt x="74" y="355" on="0"/>
        <pt x="72" y="357" on="1"/>
        <pt x="72" y="362" on="0"/>
      </contour>
    </TTGlyph>
    <TTGlyph name="florin" xMin="56" yMin="-7" xMax="511" yMax="706">
      <contour>
        <pt x="461" y="602" on="1"/>
        <pt x="437" y="604" on="1"/>
        <pt x="402" y="604" on="0"/>
        <pt x="363" y="567" on="0"/>
        <pt x="356" y="526" on="1"/>
        <pt x="344" y="457" on="1"/>
        <pt x="425" y="457" on="1"/>
        <pt x="447" y="457" on="0"/>
        <pt x="476" y="427" on="0"/>
        <pt x="476" y="385" on="0"/>
        <pt x="447" y="356" on="0"/>
        <pt x="425" y="356" on="1"/>
        <pt x="326" y="356" on="1"/>
        <pt x="288" y="143" on="1"/>
        <pt x="274" y="64" on="0"/>
        <pt x="192" y="-7" on="0"/>
        <pt x="121" y="-7" on="1"/>
        <pt x="91" y="-7" on="0"/>
        <pt x="56" y="21" on="0"/>
        <pt x="56" y="64" on="0"/>
        <pt x="84" y="93" on="0"/>
        <pt x="106" y="94" on="1"/>
        <pt x="158" y="98" on="0"/>
        <pt x="169" y="161" on="1"/>
        <pt x="204" y="356" on="1"/>
        <pt x="170" y="356" on="1"/>
        <pt x="149" y="356" on="0"/>
        <pt x="119" y="385" on="0"/>
        <pt x="119" y="427" on="0"/>
        <pt x="149" y="457" on="0"/>
        <pt x="170" y="457" on="1"/>
        <pt x="221" y="457" on="1"/>
        <pt x="239" y="551" on="1"/>
        <pt x="254" y="629" on="0"/>
        <pt x="335" y="706" on="0"/>
        <pt x="414" y="706" on="1"/>
        <pt x="440" y="706" on="0"/>
        <pt x="485" y="701" on="0"/>
        <pt x="511" y="672" on="0"/>
        <pt x="511" y="631" on="0"/>
        <pt x="482" y="602" on="0"/>
      </contour>
    </TTGlyph>
    <TTGlyph name="four" xMin="54" yMin="0" xMax="600" yMax="700">
      <contour>
        <pt x="492" y="699" on="1"/>
        <pt x="494" y="697" on="0"/>
        <pt x="498" y="697" on="1"/>
        <pt x="502" y="696" on="1"/>
        <pt x="506" y="692" on="0"/>
        <pt x="513" y="689" on="0"/>
        <pt x="513" y="688" on="1"/>
        <pt x="516" y="688" on="0"/>
        <pt x="516" y="686" on="1"/>
        <pt x="523" y="679" on="0"/>
        <pt x="527" y="673" on="1"/>
        <pt x="531" y="663" on="1"/>
        <pt x="533" y="655" on="0"/>
        <pt x="533" y="653" on="1"/>
        <pt x="534" y="648" on="1"/>
        <pt x="534" y="241" on="1"/>
        <pt x="544" y="241" on="1"/>
        <pt x="567" y="241" on="0"/>
        <pt x="600" y="209" on="0"/>
        <pt x="600" y="163" on="0"/>
        <pt x="567" y="131" on="0"/>
        <pt x="544" y="131" on="1"/>
        <pt x="534" y="131" on="1"/>
        <pt x="534" y="55" on="1"/>
        <pt x="534" y="32" on="0"/>
        <pt x="502" y="0" on="0"/>
        <pt x="456" y="0" on="0"/>
        <pt x="424" y="32" on="0"/>
        <pt x="424" y="55" on="1"/>
        <pt x="424" y="131" on="1"/>
        <pt x="109" y="131" on="1"/>
        <pt x="88" y="131" on="0"/>
        <pt x="75" y="143" on="1"/>
        <pt x="56" y="157" on="0"/>
        <pt x="52" y="202" on="0"/>
        <pt x="66" y="220" on="1"/>
        <pt x="436" y="680" on="1"/>
        <pt x="438" y="680" on="0"/>
        <pt x="441" y="686" on="1"/>
        <pt x="443" y="687" on="0"/>
        <pt x="452" y="694" on="0"/>
        <pt x="456" y="694" on="1"/>
        <pt x="458" y="697" on="0"/>
        <pt x="460" y="697" on="1"/>
        <pt x="466" y="699" on="1"/>
        <pt x="469" y="699" on="0"/>
        <pt x="470" y="700" on="1"/>
        <pt x="487" y="700" on="1"/>
        <pt x="489" y="699" on="0"/>
      </contour>
      <contour>
        <pt x="424" y="241" on="1"/>
        <pt x="424" y="488" on="1"/>
        <pt x="225" y="241" on="1"/>
      </contour>
    </TTGlyph>
    <TTGlyph name="g" xMin="60" yMin="-179" xMax="540" yMax="500">
      <contour>
        <pt x="130" y="72" on="1"/>
        <pt x="60" y="144" on="0"/>
        <pt x="60" y="351" on="0"/>
        <pt x="200" y="500" on="0"/>
        <pt x="300" y="500" on="1"/>
        <pt x="376" y="500" on="0"/>
        <pt x="434" y="458" on="1"/>
        <pt x="438" y="476" on="0"/>
        <pt x="468" y="500" on="0"/>
        <pt x="509" y="500" on="0"/>
        <pt x="540" y="469" on="0"/>
        <pt x="540" y="447" on="1"/>
        <pt x="540" y="61" on="1"/>
        <pt x="540" y="-38" on="0"/>
        <pt x="399" y="-179" on="0"/>
        <pt x="300" y="-179" on="1"/>
        <pt x="243" y="-179" on="0"/>
        <pt x="195" y="-154" on="1"/>
        <pt x="175" y="-145" on="0"/>
        <pt x="161" y="-102" on="0"/>
        <pt x="181" y="-62" on="0"/>
        <pt x="222" y="-48" on="0"/>
        <pt x="243" y="-57" on="1"/>
        <pt x="269" y="-71" on="0"/>
        <pt x="348" y="-71" on="0"/>
        <pt x="421" y="-10" on="0"/>
        <pt x="431" y="36" on="1"/>
        <pt x="373" y="-4" on="0"/>
        <pt x="300" y="-4" on="1"/>
        <pt x="200" y="-4" on="0"/>
      </contour>
      <contour>
        <pt x="168" y="188" on="0"/>
        <pt x="244" y="104" on="0"/>
        <pt x="357" y="104" on="0"/>
        <pt x="433" y="186" on="0"/>
        <pt x="433" y="308" on="0"/>
        <pt x="356" y="393" on="0"/>
        <pt x="246" y="393" on="0"/>
        <pt x="168" y="306" on="0"/>
      </contour>
    </TTGlyph>
    <TTGlyph name="germandbls" xMin="93" yMin="-5" xMax="588" yMax="737">
      <contour>
        <pt x="308" y="47" on="1"/>
        <pt x="308" y="85" on="0"/>
        <pt x="351" y="95" on="1"/>
        <pt x="467" y="113" on="0"/>
        <pt x="467" y="199" on="1"/>
        <pt x="467" y="201" on="1"/>
        <pt x="467" y="278" on="0"/>
        <pt x="352" y="307" on="1"/>
        <pt x="308" y="320" on="0"/>
        <pt x="308" y="393" on="0"/>
        <pt x="334" y="410" on="1"/>
        <pt x="426" y="461" on="0"/>
        <pt x="426" y="536" on="1"/>
        <pt x="426" y="538" on="1"/>
        <pt x="426" y="581" on="0"/>
        <pt x="371" y="634" on="0"/>
        <pt x="275" y="634" on="0"/>
        <pt x="213" y="564" on="0"/>
        <pt x="213" y="506" on="1"/>
        <pt x="213" y="54" on="1"/>
        <pt x="213" y="29" on="0"/>
        <pt x="178" y="-5" on="0"/>
        <pt x="127" y="-5" on="0"/>
        <pt x="93" y="29" on="0"/>
        <pt x="93" y="54" on="1"/>
        <pt x="93" y="502" on="1"/>
        <pt x="93" y="611" on="0"/>
        <pt x="221" y="737" on="0"/>
        <pt x="430" y="737" on="0"/>
        <pt x="547" y="630" on="0"/>
        <pt x="547" y="549" on="1"/>
        <pt x="547" y="547" on="1"/>
        <pt x="547" y="437" on="0"/>
        <pt x="436" y="376" on="1"/>
        <pt x="588" y="325" on="0"/>
        <pt x="588" y="198" on="1"/>
        <pt x="588" y="196" on="1"/>
        <pt x="588" y="104" on="0"/>
        <pt x="455" y="-1" on="0"/>
        <pt x="363" y="-3" on="1"/>
        <pt x="338" y="-3" on="0"/>
        <pt x="308" y="25" on="0"/>
      </contour>
    </TTGlyph>
    <TTGlyph name="grave" xMin="163" yMin="590" xMax="349" yMax="750">
      <contour>
        <pt x="349" y="611" on="1"/>
        <pt x="349" y="590" on="0"/>
        <pt x="276" y="590" on="0"/>
        <pt x="248" y="617" on="1"/>
        <pt x="180" y="681" on="1"/>
        <pt x="163" y="696" on="0"/>
        <pt x="163" y="725" on="0"/>
        <pt x="210" y="750" on="0"/>
        <pt x="265" y="750" on="0"/>
        <pt x="283" y="721" on="1"/>
        <pt x="340" y="633" on="1"/>
        <pt x="349" y="620" on="0"/>
      </contour>
    </TTGlyph>
    <TTGlyph name="greater" xMin="95" yMin="0" xMax="504" yMax="694">
      <contour>
        <pt x="503" y="334" on="1"/>
        <pt x="498" y="324" on="0"/>
        <pt x="498" y="320" on="1"/>
        <pt x="493" y="311" on="1"/>
        <pt x="493" y="310" on="0"/>
        <pt x="492" y="310" on="1"/>
        <pt x="204" y="18" on="1"/>
        <pt x="186" y="0" on="0"/>
        <pt x="134" y="0" on="0"/>
        <pt x="114" y="18" on="1"/>
        <pt x="95" y="37" on="0"/>
        <pt x="95" y="88" on="0"/>
        <pt x="114" y="108" on="1"/>
        <pt x="351" y="347" on="1"/>
        <pt x="114" y="586" on="1"/>
        <pt x="95" y="605" on="0"/>
        <pt x="95" y="657" on="0"/>
        <pt x="132" y="694" on="0"/>
        <pt x="185" y="694" on="0"/>
        <pt x="204" y="676" on="1"/>
        <pt x="492" y="384" on="1"/>
        <pt x="494" y="380" on="0"/>
        <pt x="497" y="375" on="0"/>
        <pt x="498" y="372" on="0"/>
        <pt x="499" y="372" on="0"/>
        <pt x="499" y="371" on="1"/>
        <pt x="503" y="359" on="1"/>
        <pt x="503" y="352" on="1"/>
        <pt x="504" y="348" on="0"/>
        <pt x="504" y="347" on="1"/>
        <pt x="503" y="342" on="1"/>
      </contour>
    </TTGlyph>
    <TTGlyph name="guillemotleft" xMin="55" yMin="42" xMax="542" yMax="486">
      <contour>
        <pt x="541" y="71" on="0"/>
        <pt x="513" y="42" on="0"/>
        <pt x="466" y="42" on="0"/>
        <pt x="450" y="63" on="1"/>
        <pt x="321" y="229" on="1"/>
        <pt x="306" y="249" on="0"/>
        <pt x="306" y="281" on="0"/>
        <pt x="321" y="299" on="1"/>
        <pt x="447" y="462" on="1"/>
        <pt x="464" y="486" on="0"/>
        <pt x="513" y="486" on="0"/>
        <pt x="541" y="457" on="0"/>
        <pt x="541" y="418" on="0"/>
        <pt x="527" y="402" on="1"/>
        <pt x="422" y="265" on="1"/>
        <pt x="529" y="125" on="1"/>
        <pt x="542" y="109" on="0"/>
      </contour>
      <contour>
        <pt x="290" y="71" on="0"/>
        <pt x="261" y="42" on="0"/>
        <pt x="214" y="42" on="0"/>
        <pt x="198" y="63" on="1"/>
        <pt x="69" y="229" on="1"/>
        <pt x="55" y="248" on="0"/>
        <pt x="55" y="282" on="0"/>
        <pt x="69" y="299" on="1"/>
        <pt x="195" y="462" on="1"/>
        <pt x="214" y="486" on="0"/>
        <pt x="261" y="486" on="0"/>
        <pt x="289" y="456" on="0"/>
        <pt x="289" y="419" on="0"/>
        <pt x="276" y="402" on="1"/>
        <pt x="170" y="265" on="1"/>
        <pt x="278" y="125" on="1"/>
        <pt x="290" y="110" on="0"/>
      </contour>
    </TTGlyph>
    <TTGlyph name="guillemotright" xMin="67" yMin="42" xMax="554" yMax="486">
      <contour>
        <pt x="553" y="71" on="0"/>
        <pt x="525" y="42" on="0"/>
        <pt x="478" y="42" on="0"/>
        <pt x="462" y="63" on="1"/>
        <pt x="333" y="229" on="1"/>
        <pt x="318" y="249" on="0"/>
        <pt x="318" y="281" on="0"/>
        <pt x="333" y="299" on="1"/>
        <pt x="459" y="462" on="1"/>
        <pt x="476" y="486" on="0"/>
        <pt x="525" y="486" on="0"/>
        <pt x="553" y="457" on="0"/>
        <pt x="553" y="418" on="0"/>
        <pt x="539" y="402" on="1"/>
        <pt x="434" y="265" on="1"/>
        <pt x="541" y="125" on="1"/>
        <pt x="554" y="109" on="0"/>
      </contour>
      <contour>
        <pt x="302" y="71" on="0"/>
        <pt x="273" y="42" on="0"/>
        <pt x="226" y="42" on="0"/>
        <pt x="210" y="63" on="1"/>
        <pt x="81" y="229" on="1"/>
        <pt x="67" y="248" on="0"/>
        <pt x="67" y="282" on="0"/>
        <pt x="81" y="299" on="1"/>
        <pt x="207" y="462" on="1"/>
        <pt x="226" y="486" on="0"/>
        <pt x="273" y="486" on="0"/>
        <pt x="301" y="456" on="0"/>
        <pt x="301" y="419" on="0"/>
        <pt x="288" y="402" on="1"/>
        <pt x="182" y="265" on="1"/>
        <pt x="290" y="125" on="1"/>
        <pt x="302" y="110" on="0"/>
      </contour>
    </TTGlyph>
    <TTGlyph name="guilsinglleft" xMin="55" yMin="42" xMax="291" yMax="486">
      <contour>
        <pt x="199" y="464" on="1"/>
        <pt x="216" y="486" on="0"/>
        <pt x="262" y="486" on="0"/>
        <pt x="290" y="457" on="0"/>
        <pt x="291" y="418" on="0"/>
        <pt x="278" y="402" on="1"/>
        <pt x="171" y="262" on="1"/>
        <pt x="276" y="126" on="1"/>
        <pt x="290" y="110" on="0"/>
        <pt x="290" y="71" on="0"/>
        <pt x="262" y="42" on="0"/>
        <pt x="213" y="42" on="0"/>
        <pt x="196" y="66" on="1"/>
        <pt x="70" y="228" on="1"/>
        <pt x="55" y="248" on="0"/>
        <pt x="55" y="279" on="0"/>
        <pt x="70" y="299" on="1"/>
      </contour>
    </TTGlyph>
    <TTGlyph name="guilsinglright" xMin="67" yMin="42" xMax="303" yMax="486">
      <contour>
        <pt x="68" y="457" on="0"/>
        <pt x="96" y="486" on="0"/>
        <pt x="142" y="486" on="0"/>
        <pt x="159" y="464" on="1"/>
        <pt x="288" y="299" on="1"/>
        <pt x="303" y="279" on="0"/>
        <pt x="303" y="248" on="0"/>
        <pt x="288" y="228" on="1"/>
        <pt x="162" y="66" on="1"/>
        <pt x="145" y="42" on="0"/>
        <pt x="96" y="42" on="0"/>
        <pt x="68" y="71" on="0"/>
        <pt x="68" y="110" on="0"/>
        <pt x="82" y="126" on="1"/>
        <pt x="187" y="262" on="1"/>
        <pt x="80" y="402" on="1"/>
        <pt x="67" y="418" on="0"/>
      </contour>
    </TTGlyph>
    <TTGlyph name="h" xMin="93" yMin="0" xMax="529" yMax="700">
      <contour>
        <pt x="204" y="32" on="0"/>
        <pt x="171" y="0" on="0"/>
        <pt x="126" y="0" on="0"/>
        <pt x="93" y="32" on="0"/>
        <pt x="93" y="55" on="1"/>
        <pt x="93" y="645" on="1"/>
        <pt x="93" y="668" on="0"/>
        <pt x="125" y="700" on="0"/>
        <pt x="171" y="700" on="0"/>
        <pt x="204" y="668" on="0"/>
        <pt x="204" y="645" on="1"/>
        <pt x="204" y="471" on="1"/>
        <pt x="259" y="500" on="0"/>
        <pt x="311" y="500" on="1"/>
        <pt x="401" y="500" on="0"/>
        <pt x="529" y="371" on="0"/>
        <pt x="529" y="281" on="1"/>
        <pt x="529" y="55" on="1"/>
        <pt x="529" y="32" on="0"/>
        <pt x="497" y="0" on="0"/>
        <pt x="451" y="0" on="0"/>
        <pt x="419" y="32" on="0"/>
        <pt x="419" y="55" on="1"/>
        <pt x="419" y="281" on="1"/>
        <pt x="419" y="325" on="0"/>
        <pt x="356" y="388" on="0"/>
        <pt x="311" y="389" on="1"/>
        <pt x="267" y="388" on="0"/>
        <pt x="205" y="325" on="0"/>
        <pt x="204" y="281" on="1"/>
        <pt x="204" y="55" on="1"/>
      </contour>
    </TTGlyph>
    <TTGlyph name="hyphen" xMin="66" yMin="247" xMax="372" yMax="366">
      <contour>
        <pt x="125" y="247" on="1"/>
        <pt x="101" y="247" on="0"/>
        <pt x="66" y="282" on="0"/>
        <pt x="66" y="331" on="0"/>
        <pt x="101" y="366" on="0"/>
        <pt x="125" y="366" on="1"/>
        <pt x="313" y="366" on="1"/>
        <pt x="337" y="366" on="0"/>
        <pt x="372" y="331" on="0"/>
        <pt x="372" y="282" on="0"/>
        <pt x="337" y="247" on="0"/>
        <pt x="313" y="247" on="1"/>
      </contour>
    </TTGlyph>
    <TTGlyph name="i" xMin="94" yMin="0" xMax="202" yMax="700">
      <contour>
        <pt x="125" y="499" on="0"/>
        <pt x="171" y="499" on="0"/>
        <pt x="202" y="468" on="0"/>
        <pt x="202" y="444" on="1"/>
        <pt x="202" y="54" on="1"/>
        <pt x="202" y="31" on="0"/>
        <pt x="171" y="0" on="0"/>
        <pt x="126" y="0" on="0"/>
        <pt x="94" y="32" on="0"/>
        <pt x="94" y="54" on="1"/>
        <pt x="94" y="444" on="1"/>
        <pt x="94" y="468" on="0"/>
      </contour>
      <contour>
        <pt x="202" y="646" on="1"/>
        <pt x="202" y="625" on="1"/>
        <pt x="202" y="602" on="0"/>
        <pt x="171" y="570" on="0"/>
        <pt x="126" y="570" on="0"/>
        <pt x="94" y="602" on="0"/>
        <pt x="94" y="625" on="1"/>
        <pt x="94" y="646" on="1"/>
        <pt x="94" y="668" on="0"/>
        <pt x="126" y="700" on="0"/>
        <pt x="171" y="700" on="0"/>
        <pt x="202" y="669" on="0"/>
      </contour>
    </TTGlyph>
    <TTGlyph name="iacute" xMin="50" yMin="0" xMax="313" yMax="730">
      <contour>
        <pt x="81" y="499" on="0"/>
        <pt x="127" y="499" on="0"/>
        <pt x="158" y="468" on="0"/>
        <pt x="158" y="444" on="1"/>
        <pt x="158" y="54" on="1"/>
        <pt x="158" y="31" on="0"/>
        <pt x="127" y="0" on="0"/>
        <pt x="82" y="0" on="0"/>
        <pt x="50" y="32" on="0"/>
        <pt x="50" y="54" on="1"/>
        <pt x="50" y="444" on="1"/>
        <pt x="50" y="468" on="0"/>
      </contour>
      <contour>
        <pt x="229" y="597" on="1"/>
        <pt x="200" y="570" on="0"/>
        <pt x="128" y="570" on="0"/>
        <pt x="128" y="591" on="1"/>
        <pt x="128" y="601" on="0"/>
        <pt x="136" y="613" on="1"/>
        <pt x="193" y="701" on="1"/>
        <pt x="211" y="730" on="0"/>
        <pt x="266" y="730" on="0"/>
        <pt x="313" y="705" on="0"/>
        <pt x="313" y="676" on="0"/>
        <pt x="296" y="661" on="1"/>
      </contour>
    </TTGlyph>
    <TTGlyph name="icircumflex" xMin="9" yMin="0" xMax="317" yMax="726">
      <contour>
        <pt x="140" y="499" on="0"/>
        <pt x="186" y="499" on="0"/>
        <pt x="217" y="468" on="0"/>
        <pt x="217" y="444" on="1"/>
        <pt x="217" y="54" on="1"/>
        <pt x="217" y="31" on="0"/>
        <pt x="186" y="0" on="0"/>
        <pt x="140" y="0" on="0"/>
        <pt x="109" y="32" on="0"/>
        <pt x="109" y="54" on="1"/>
        <pt x="109" y="444" on="1"/>
        <pt x="109" y="468" on="0"/>
      </contour>
      <contour>
        <pt x="162" y="642" on="1"/>
        <pt x="110" y="597" on="1"/>
        <pt x="78" y="570" on="0"/>
        <pt x="36" y="570" on="1"/>
        <pt x="9" y="570" on="0"/>
        <pt x="9" y="590" on="1"/>
        <pt x="9" y="598" on="0"/>
        <pt x="21" y="614" on="1"/>
        <pt x="87" y="697" on="1"/>
        <pt x="111" y="726" on="0"/>
        <pt x="145" y="726" on="1"/>
        <pt x="181" y="726" on="1"/>
        <pt x="216" y="726" on="0"/>
        <pt x="239" y="697" on="1"/>
        <pt x="305" y="614" on="1"/>
        <pt x="317" y="598" on="0"/>
        <pt x="317" y="590" on="1"/>
        <pt x="317" y="570" on="0"/>
        <pt x="247" y="570" on="0"/>
        <pt x="214" y="597" on="1"/>
      </contour>
    </TTGlyph>
    <TTGlyph name="idieresis" xMin="-6" yMin="0" xMax="323" yMax="699">
      <contour>
        <pt x="136" y="499" on="0"/>
        <pt x="182" y="499" on="0"/>
        <pt x="213" y="468" on="0"/>
        <pt x="213" y="444" on="1"/>
        <pt x="213" y="54" on="1"/>
        <pt x="213" y="31" on="0"/>
        <pt x="182" y="0" on="0"/>
        <pt x="136" y="0" on="0"/>
        <pt x="105" y="32" on="0"/>
        <pt x="105" y="54" on="1"/>
        <pt x="105" y="444" on="1"/>
        <pt x="105" y="468" on="0"/>
      </contour>
      <contour>
        <pt x="-6" y="607" on="0"/>
        <pt x="-6" y="661" on="0"/>
        <pt x="31" y="699" on="0"/>
        <pt x="85" y="699" on="0"/>
        <pt x="123" y="661" on="0"/>
        <pt x="123" y="607" on="0"/>
        <pt x="85" y="570" on="0"/>
        <pt x="31" y="570" on="0"/>
      </contour>
      <contour>
        <pt x="194" y="607" on="0"/>
        <pt x="194" y="661" on="0"/>
        <pt x="231" y="699" on="0"/>
        <pt x="285" y="699" on="0"/>
        <pt x="323" y="661" on="0"/>
        <pt x="323" y="607" on="0"/>
        <pt x="285" y="570" on="0"/>
        <pt x="231" y="570" on="0"/>
      </contour>
    </TTGlyph>
    <TTGlyph name="igrave" xMin="50" yMin="0" xMax="236" yMax="730">
      <contour>
        <pt x="95" y="499" on="0"/>
        <pt x="141" y="499" on="0"/>
        <pt x="172" y="468" on="0"/>
        <pt x="172" y="444" on="1"/>
        <pt x="172" y="54" on="1"/>
        <pt x="172" y="31" on="0"/>
        <pt x="141" y="0" on="0"/>
        <pt x="96" y="0" on="0"/>
        <pt x="64" y="32" on="0"/>
        <pt x="64" y="54" on="1"/>
        <pt x="64" y="444" on="1"/>
        <pt x="64" y="468" on="0"/>
      </contour>
      <contour>
        <pt x="236" y="591" on="1"/>
        <pt x="236" y="570" on="0"/>
        <pt x="163" y="570" on="0"/>
        <pt x="135" y="597" on="1"/>
        <pt x="67" y="661" on="1"/>
        <pt x="50" y="676" on="0"/>
        <pt x="50" y="705" on="0"/>
        <pt x="97" y="730" on="0"/>
        <pt x="152" y="730" on="0"/>
        <pt x="170" y="701" on="1"/>
        <pt x="227" y="613" on="1"/>
        <pt x="236" y="600" on="0"/>
      </contour>
    </TTGlyph>
    <TTGlyph name="j" xMin="-5" yMin="-177" xMax="160" yMax="699">
      <contour>
        <pt x="128" y="569" on="0"/>
        <pt x="84" y="569" on="0"/>
        <pt x="51" y="602" on="0"/>
        <pt x="51" y="624" on="1"/>
        <pt x="51" y="644" on="1"/>
        <pt x="51" y="668" on="0"/>
        <pt x="83" y="699" on="0"/>
        <pt x="129" y="699" on="0"/>
        <pt x="160" y="668" on="0"/>
        <pt x="160" y="644" on="1"/>
        <pt x="160" y="624" on="1"/>
        <pt x="160" y="602" on="0"/>
      </contour>
      <contour>
        <pt x="50" y="-177" on="1"/>
        <pt x="26" y="-177" on="0"/>
        <pt x="-5" y="-146" on="0"/>
        <pt x="-5" y="-100" on="0"/>
        <pt x="26" y="-69" on="0"/>
        <pt x="50" y="-69" on="1"/>
        <pt x="50" y="445" on="1"/>
        <pt x="50" y="468" on="0"/>
        <pt x="82" y="500" on="0"/>
        <pt x="127" y="500" on="0"/>
        <pt x="158" y="468" on="0"/>
        <pt x="158" y="445" on="1"/>
        <pt x="158" y="-69" on="1"/>
        <pt x="158" y="-113" on="0"/>
        <pt x="95" y="-177" on="0"/>
      </contour>
    </TTGlyph>
    <TTGlyph name="k" xMin="93" yMin="0" xMax="504" yMax="700">
      <contour>
        <pt x="171" y="0" on="0"/>
        <pt x="125" y="0" on="0"/>
        <pt x="93" y="32" on="0"/>
        <pt x="93" y="55" on="1"/>
        <pt x="93" y="645" on="1"/>
        <pt x="93" y="668" on="0"/>
        <pt x="125" y="700" on="0"/>
        <pt x="171" y="700" on="0"/>
        <pt x="204" y="668" on="0"/>
        <pt x="204" y="645" on="1"/>
        <pt x="204" y="299" on="1"/>
        <pt x="409" y="504" on="1"/>
        <pt x="425" y="520" on="0"/>
        <pt x="471" y="520" on="0"/>
        <pt x="504" y="488" on="0"/>
        <pt x="504" y="442" on="0"/>
        <pt x="487" y="426" on="1"/>
        <pt x="337" y="276" on="1"/>
        <pt x="491" y="91" on="1"/>
        <pt x="513" y="63" on="0"/>
        <pt x="481" y="0" on="0"/>
        <pt x="421" y="0" on="0"/>
        <pt x="406" y="20" on="1"/>
        <pt x="259" y="198" on="1"/>
        <pt x="204" y="143" on="1"/>
        <pt x="204" y="55" on="1"/>
        <pt x="204" y="32" on="0"/>
      </contour>
    </TTGlyph>
    <TTGlyph name="l" xMin="100" yMin="0" xMax="211" yMax="700">
      <contour>
        <pt x="100" y="645" on="1"/>
        <pt x="100" y="668" on="0"/>
        <pt x="132" y="700" on="0"/>
        <pt x="178" y="700" on="0"/>
        <pt x="211" y="668" on="0"/>
        <pt x="211" y="645" on="1"/>
        <pt x="211" y="55" on="1"/>
        <pt x="211" y="32" on="0"/>
        <pt x="178" y="0" on="0"/>
        <pt x="132" y="0" on="0"/>
        <pt x="100" y="32" on="0"/>
        <pt x="100" y="55" on="1"/>
      </contour>
    </TTGlyph>
    <TTGlyph name="less" xMin="60" yMin="0" xMax="469" yMax="694">
      <contour>
        <pt x="66" y="373" on="1"/>
        <pt x="71" y="382" on="1"/>
        <pt x="71" y="384" on="0"/>
        <pt x="73" y="384" on="1"/>
        <pt x="75" y="388" on="0"/>
        <pt x="79" y="391" on="1"/>
        <pt x="360" y="676" on="1"/>
        <pt x="379" y="694" on="0"/>
        <pt x="432" y="694" on="0"/>
        <pt x="469" y="657" on="0"/>
        <pt x="469" y="605" on="0"/>
        <pt x="450" y="586" on="1"/>
        <pt x="213" y="347" on="1"/>
        <pt x="450" y="108" on="1"/>
        <pt x="469" y="88" on="0"/>
        <pt x="469" y="37" on="0"/>
        <pt x="450" y="18" on="1"/>
        <pt x="430" y="0" on="0"/>
        <pt x="380" y="0" on="0"/>
        <pt x="360" y="18" on="1"/>
        <pt x="79" y="303" on="1"/>
        <pt x="76" y="304" on="0"/>
        <pt x="74" y="309" on="1"/>
        <pt x="70" y="312" on="0"/>
        <pt x="68" y="319" on="1"/>
        <pt x="65" y="320" on="0"/>
        <pt x="65" y="327" on="0"/>
        <pt x="63" y="329" on="1"/>
        <pt x="63" y="331" on="0"/>
        <pt x="61" y="334" on="1"/>
        <pt x="61" y="341" on="1"/>
        <pt x="60" y="347" on="1"/>
        <pt x="61" y="352" on="1"/>
        <pt x="61" y="359" on="1"/>
        <pt x="64" y="367" on="1"/>
        <pt x="64" y="372" on="0"/>
        <pt x="66" y="372" on="0"/>
      </contour>
    </TTGlyph>
    <TTGlyph name="m" xMin="93" yMin="0" xMax="823" yMax="500">
      <contour>
        <pt x="146" y="0" on="1"/>
        <pt x="136" y="1" on="1"/>
        <pt x="117" y="6" on="0"/>
        <pt x="93" y="34" on="0"/>
        <pt x="93" y="53" on="1"/>
        <pt x="93" y="446" on="1"/>
        <pt x="93" y="469" on="0"/>
        <pt x="124" y="500" on="0"/>
        <pt x="146" y="500" on="1"/>
        <pt x="181" y="500" on="0"/>
        <pt x="194" y="470" on="1"/>
        <pt x="245" y="500" on="0"/>
        <pt x="301" y="500" on="1"/>
        <pt x="397" y="500" on="0"/>
        <pt x="458" y="431" on="1"/>
        <pt x="517" y="500" on="0"/>
        <pt x="701" y="500" on="0"/>
        <pt x="823" y="377" on="0"/>
        <pt x="823" y="290" on="1"/>
        <pt x="823" y="53" on="1"/>
        <pt x="823" y="31" on="0"/>
        <pt x="792" y="0" on="0"/>
        <pt x="748" y="0" on="0"/>
        <pt x="716" y="31" on="0"/>
        <pt x="716" y="53" on="1"/>
        <pt x="716" y="290" on="1"/>
        <pt x="716" y="333" on="0"/>
        <pt x="656" y="393" on="0"/>
        <pt x="573" y="393" on="0"/>
        <pt x="513" y="335" on="0"/>
        <pt x="511" y="293" on="1"/>
        <pt x="511" y="53" on="1"/>
        <pt x="511" y="31" on="0"/>
        <pt x="480" y="0" on="0"/>
        <pt x="437" y="0" on="0"/>
        <pt x="404" y="32" on="0"/>
        <pt x="404" y="53" on="1"/>
        <pt x="404" y="293" on="1"/>
        <pt x="403" y="334" on="0"/>
        <pt x="343" y="393" on="0"/>
        <pt x="260" y="393" on="0"/>
        <pt x="200" y="333" on="0"/>
        <pt x="200" y="290" on="1"/>
        <pt x="200" y="53" on="1"/>
        <pt x="199" y="46" on="1"/>
        <pt x="199" y="43" on="1"/>
        <pt x="196" y="37" on="1"/>
        <pt x="196" y="32" on="1"/>
        <pt x="180" y="0" on="0"/>
      </contour>
    </TTGlyph>
    <TTGlyph name="multiply" xMin="100" yMin="131" xMax="542" yMax="573">
      <contour>
        <pt x="524" y="481" on="1"/>
        <pt x="394" y="353" on="1"/>
        <pt x="525" y="225" on="1"/>
        <pt x="542" y="208" on="0"/>
        <pt x="542" y="162" on="0"/>
        <pt x="510" y="131" on="0"/>
        <pt x="466" y="131" on="0"/>
        <pt x="448" y="147" on="1"/>
        <pt x="320" y="279" on="1"/>
        <pt x="191" y="148" on="1"/>
        <pt x="176" y="131" on="0"/>
        <pt x="130" y="131" on="0"/>
        <pt x="100" y="161" on="0"/>
        <pt x="100" y="207" on="0"/>
        <pt x="118" y="223" on="1"/>
        <pt x="248" y="351" on="1"/>
        <pt x="116" y="479" on="1"/>
        <pt x="100" y="497" on="0"/>
        <pt x="100" y="542" on="0"/>
        <pt x="132" y="573" on="0"/>
        <pt x="177" y="573" on="0"/>
        <pt x="194" y="556" on="1"/>
        <pt x="322" y="425" on="1"/>
        <pt x="451" y="556" on="1"/>
        <pt x="466" y="573" on="0"/>
        <pt x="512" y="573" on="0"/>
        <pt x="542" y="542" on="0"/>
        <pt x="542" y="497" on="0"/>
      </contour>
    </TTGlyph>
    <TTGlyph name="n" xMin="93" yMin="0" xMax="510" yMax="500">
      <contour>
        <pt x="201" y="53" on="1"/>
        <pt x="201" y="31" on="0"/>
        <pt x="167" y="0" on="0"/>
        <pt x="124" y="0" on="0"/>
        <pt x="93" y="31" on="0"/>
        <pt x="93" y="53" on="1"/>
        <pt x="93" y="447" on="1"/>
        <pt x="93" y="469" on="0"/>
        <pt x="124" y="500" on="0"/>
        <pt x="146" y="500" on="1"/>
        <pt x="180" y="500" on="0"/>
        <pt x="195" y="469" on="1"/>
        <pt x="244" y="500" on="0"/>
        <pt x="301" y="500" on="1"/>
        <pt x="388" y="500" on="0"/>
        <pt x="510" y="377" on="0"/>
        <pt x="510" y="292" on="1"/>
        <pt x="510" y="53" on="1"/>
        <pt x="510" y="31" on="0"/>
        <pt x="480" y="0" on="0"/>
        <pt x="437" y="0" on="0"/>
        <pt x="405" y="31" on="0"/>
        <pt x="405" y="53" on="1"/>
        <pt x="405" y="292" on="1"/>
        <pt x="405" y="334" on="0"/>
        <pt x="344" y="393" on="0"/>
        <pt x="259" y="393" on="0"/>
        <pt x="201" y="334" on="0"/>
        <pt x="201" y="292" on="1"/>
      </contour>
    </TTGlyph>
    <TTGlyph name="nine" xMin="66" yMin="1" xMax="553" yMax="700">
      <contour>
        <pt x="550" y="483" on="1"/>
        <pt x="553" y="424" on="1"/>
        <pt x="553" y="299" on="0"/>
        <pt x="469" y="101" on="0"/>
        <pt x="389" y="48" on="1"/>
        <pt x="323" y="4" on="0"/>
        <pt x="239" y="1" on="1"/>
        <pt x="216" y="0" on="0"/>
        <pt x="183" y="31" on="0"/>
        <pt x="180" y="76" on="0"/>
        <pt x="212" y="110" on="0"/>
        <pt x="235" y="112" on="1"/>
        <pt x="286" y="113" on="0"/>
        <pt x="377" y="172" on="0"/>
        <pt x="405" y="236" on="1"/>
        <pt x="360" y="216" on="0"/>
        <pt x="309" y="216" on="1"/>
        <pt x="208" y="216" on="0"/>
        <pt x="66" y="358" on="0"/>
        <pt x="66" y="558" on="0"/>
        <pt x="208" y="700" on="0"/>
        <pt x="403" y="700" on="0"/>
        <pt x="541" y="575" on="0"/>
      </contour>
      <contour>
        <pt x="364" y="589" on="0"/>
        <pt x="254" y="589" on="0"/>
        <pt x="177" y="513" on="0"/>
        <pt x="177" y="404" on="0"/>
        <pt x="254" y="326" on="0"/>
        <pt x="363" y="326" on="0"/>
        <pt x="440" y="404" on="0"/>
        <pt x="440" y="513" on="0"/>
      </contour>
    </TTGlyph>
    <TTGlyph name="ntilde" xMin="94" yMin="0" xMax="511" yMax="729">
      <contour>
        <pt x="202" y="53" on="1"/>
        <pt x="202" y="31" on="0"/>
        <pt x="168" y="0" on="0"/>
        <pt x="125" y="0" on="0"/>
        <pt x="94" y="31" on="0"/>
        <pt x="94" y="53" on="1"/>
        <pt x="94" y="447" on="1"/>
        <pt x="94" y="469" on="0"/>
        <pt x="125" y="500" on="0"/>
        <pt x="147" y="500" on="1"/>
        <pt x="181" y="500" on="0"/>
        <pt x="196" y="469" on="1"/>
        <pt x="245" y="500" on="0"/>
        <pt x="302" y="500" on="1"/>
        <pt x="389" y="500" on="0"/>
        <pt x="511" y="377" on="0"/>
        <pt x="511" y="292" on="1"/>
        <pt x="511" y="53" on="1"/>
        <pt x="511" y="31" on="0"/>
        <pt x="481" y="0" on="0"/>
        <pt x="438" y="0" on="0"/>
        <pt x="406" y="31" on="0"/>
        <pt x="406" y="53" on="1"/>
        <pt x="406" y="292" on="1"/>
        <pt x="406" y="334" on="0"/>
        <pt x="345" y="393" on="0"/>
        <pt x="260" y="393" on="0"/>
        <pt x="202" y="334" on="0"/>
        <pt x="202" y="292" on="1"/>
      </contour>
      <contour>
        <pt x="189" y="590" on="1"/>
        <pt x="176" y="570" on="0"/>
        <pt x="141" y="570" on="0"/>
        <pt x="119" y="590" on="0"/>
        <pt x="119" y="612" on="0"/>
        <pt x="123" y="626" on="1"/>
        <pt x="140" y="672" on="0"/>
        <pt x="187" y="717" on="0"/>
        <pt x="255" y="717" on="0"/>
        <pt x="353" y="677" on="0"/>
        <pt x="369" y="677" on="1"/>
        <pt x="398" y="677" on="0"/>
        <pt x="415" y="709" on="1"/>
        <pt x="428" y="729" on="0"/>
        <pt x="463" y="729" on="0"/>
        <pt x="485" y="709" on="0"/>
        <pt x="485" y="687" on="0"/>
        <pt x="481" y="673" on="1"/>
        <pt x="464" y="627" on="0"/>
        <pt x="417" y="582" on="0"/>
        <pt x="349" y="582" on="0"/>
        <pt x="251" y="622" on="0"/>
        <pt x="235" y="622" on="1"/>
        <pt x="206" y="622" on="0"/>
      </contour>
    </TTGlyph>
    <TTGlyph name="numbersign" xMin="45" yMin="-5" xMax="677" yMax="705">
      <contour>
        <pt x="125" y="56" on="1"/>
        <pt x="143" y="161" on="1"/>
        <pt x="97" y="161" on="1"/>
        <pt x="75" y="161" on="0"/>
        <pt x="45" y="191" on="0"/>
        <pt x="45" y="234" on="0"/>
        <pt x="75" y="265" on="0"/>
        <pt x="97" y="265" on="1"/>
        <pt x="161" y="265" on="1"/>
        <pt x="191" y="439" on="1"/>
        <pt x="133" y="439" on="1"/>
        <pt x="112" y="439" on="0"/>
        <pt x="81" y="470" on="0"/>
        <pt x="81" y="512" on="0"/>
        <pt x="112" y="543" on="0"/>
        <pt x="133" y="543" on="1"/>
        <pt x="209" y="543" on="1"/>
        <pt x="229" y="662" on="1"/>
        <pt x="232" y="681" on="0"/>
        <pt x="261" y="705" on="0"/>
        <pt x="305" y="705" on="0"/>
        <pt x="336" y="668" on="0"/>
        <pt x="333" y="644" on="1"/>
        <pt x="315" y="543" on="1"/>
        <pt x="472" y="543" on="1"/>
        <pt x="492" y="662" on="1"/>
        <pt x="495" y="681" on="0"/>
        <pt x="525" y="705" on="0"/>
        <pt x="569" y="705" on="0"/>
        <pt x="600" y="667" on="0"/>
        <pt x="596" y="644" on="1"/>
        <pt x="579" y="543" on="1"/>
        <pt x="625" y="543" on="1"/>
        <pt x="646" y="543" on="0"/>
        <pt x="677" y="513" on="0"/>
        <pt x="677" y="470" on="0"/>
        <pt x="646" y="439" on="0"/>
        <pt x="625" y="439" on="1"/>
        <pt x="561" y="439" on="1"/>
        <pt x="531" y="265" on="1"/>
        <pt x="588" y="265" on="1"/>
        <pt x="610" y="265" on="0"/>
        <pt x="640" y="235" on="0"/>
        <pt x="640" y="192" on="0"/>
        <pt x="610" y="161" on="0"/>
        <pt x="588" y="161" on="1"/>
        <pt x="513" y="161" on="1"/>
        <pt x="492" y="38" on="1"/>
        <pt x="489" y="19" on="0"/>
        <pt x="460" y="-5" on="0"/>
        <pt x="416" y="-5" on="0"/>
        <pt x="384" y="32" on="0"/>
        <pt x="388" y="56" on="1"/>
        <pt x="407" y="161" on="1"/>
        <pt x="250" y="161" on="1"/>
        <pt x="229" y="38" on="1"/>
        <pt x="226" y="20" on="0"/>
        <pt x="197" y="-5" on="0"/>
        <pt x="152" y="-5" on="0"/>
        <pt x="121" y="31" on="0"/>
      </contour>
      <contour>
        <pt x="268" y="265" on="1"/>
        <pt x="424" y="265" on="1"/>
        <pt x="454" y="439" on="1"/>
        <pt x="298" y="439" on="1"/>
      </contour>
    </TTGlyph>
    <TTGlyph name="o" xMin="70" yMin="-3" xMax="548" yMax="500">
      <contour>
        <pt x="412" y="-3" on="0"/>
        <pt x="210" y="-3" on="0"/>
        <pt x="70" y="145" on="0"/>
        <pt x="70" y="351" on="0"/>
        <pt x="211" y="500" on="0"/>
        <pt x="409" y="500" on="0"/>
        <pt x="548" y="349" on="0"/>
        <pt x="548" y="141" on="0"/>
        <pt x="478" y="73" on="1"/>
      </contour>
      <contour>
        <pt x="215" y="353" on="1"/>
        <pt x="179" y="311" on="0"/>
        <pt x="179" y="187" on="0"/>
        <pt x="215" y="143" on="1"/>
        <pt x="254" y="106" on="0"/>
        <pt x="364" y="106" on="0"/>
        <pt x="403" y="143" on="1"/>
        <pt x="442" y="187" on="0"/>
        <pt x="442" y="311" on="0"/>
        <pt x="403" y="353" on="1"/>
        <pt x="360" y="391" on="0"/>
        <pt x="258" y="391" on="0"/>
      </contour>
    </TTGlyph>
    <TTGlyph name="oacute" xMin="58" yMin="-3" xMax="536" yMax="730">
      <contour>
        <pt x="400" y="-3" on="0"/>
        <pt x="198" y="-3" on="0"/>
        <pt x="58" y="145" on="0"/>
        <pt x="58" y="351" on="0"/>
        <pt x="199" y="500" on="0"/>
        <pt x="397" y="500" on="0"/>
        <pt x="536" y="349" on="0"/>
        <pt x="536" y="141" on="0"/>
        <pt x="466" y="73" on="1"/>
      </contour>
      <contour>
        <pt x="203" y="353" on="1"/>
        <pt x="167" y="311" on="0"/>
        <pt x="167" y="187" on="0"/>
        <pt x="203" y="143" on="1"/>
        <pt x="242" y="106" on="0"/>
        <pt x="352" y="106" on="0"/>
        <pt x="391" y="143" on="1"/>
        <pt x="430" y="187" on="0"/>
        <pt x="430" y="311" on="0"/>
        <pt x="391" y="353" on="1"/>
        <pt x="348" y="391" on="0"/>
        <pt x="246" y="391" on="0"/>
      </contour>
      <contour>
        <pt x="423" y="597" on="1"/>
        <pt x="394" y="570" on="0"/>
        <pt x="322" y="570" on="0"/>
        <pt x="322" y="591" on="1"/>
        <pt x="322" y="601" on="0"/>
        <pt x="330" y="613" on="1"/>
        <pt x="387" y="701" on="1"/>
        <pt x="405" y="730" on="0"/>
        <pt x="460" y="730" on="0"/>
        <pt x="507" y="705" on="0"/>
        <pt x="507" y="676" on="0"/>
        <pt x="490" y="661" on="1"/>
      </contour>
    </TTGlyph>
    <TTGlyph name="ocircumflex" xMin="58" yMin="-3" xMax="536" yMax="726">
      <contour>
        <pt x="400" y="-3" on="0"/>
        <pt x="198" y="-3" on="0"/>
        <pt x="58" y="145" on="0"/>
        <pt x="58" y="351" on="0"/>
        <pt x="199" y="500" on="0"/>
        <pt x="397" y="500" on="0"/>
        <pt x="536" y="349" on="0"/>
        <pt x="536" y="141" on="0"/>
        <pt x="466" y="73" on="1"/>
      </contour>
      <contour>
        <pt x="203" y="353" on="1"/>
        <pt x="167" y="311" on="0"/>
        <pt x="167" y="187" on="0"/>
        <pt x="203" y="143" on="1"/>
        <pt x="242" y="106" on="0"/>
        <pt x="352" y="106" on="0"/>
        <pt x="391" y="143" on="1"/>
        <pt x="430" y="187" on="0"/>
        <pt x="430" y="311" on="0"/>
        <pt x="391" y="353" on="1"/>
        <pt x="348" y="391" on="0"/>
        <pt x="246" y="391" on="0"/>
      </contour>
      <contour>
        <pt x="296" y="642" on="1"/>
        <pt x="244" y="597" on="1"/>
        <pt x="212" y="570" on="0"/>
        <pt x="170" y="570" on="1"/>
        <pt x="143" y="570" on="0"/>
        <pt x="143" y="590" on="1"/>
        <pt x="143" y="598" on="0"/>
        <pt x="155" y="614" on="1"/>
        <pt x="221" y="697" on="1"/>
        <pt x="245" y="726" on="0"/>
        <pt x="279" y="726" on="1"/>
        <pt x="315" y="726" on="1"/>
        <pt x="350" y="726" on="0"/>
        <pt x="373" y="697" on="1"/>
        <pt x="439" y="614" on="1"/>
        <pt x="451" y="598" on="0"/>
        <pt x="451" y="590" on="1"/>
        <pt x="451" y="570" on="0"/>
        <pt x="381" y="570" on="0"/>
        <pt x="348" y="597" on="1"/>
      </contour>
    </TTGlyph>
    <TTGlyph name="odieresis" xMin="58" yMin="-3" xMax="536" yMax="699">
      <contour>
        <pt x="400" y="-3" on="0"/>
        <pt x="198" y="-3" on="0"/>
        <pt x="58" y="145" on="0"/>
        <pt x="58" y="351" on="0"/>
        <pt x="199" y="500" on="0"/>
        <pt x="397" y="500" on="0"/>
        <pt x="536" y="349" on="0"/>
        <pt x="536" y="141" on="0"/>
        <pt x="466" y="73" on="1"/>
      </contour>
      <contour>
        <pt x="203" y="353" on="1"/>
        <pt x="167" y="311" on="0"/>
        <pt x="167" y="187" on="0"/>
        <pt x="203" y="143" on="1"/>
        <pt x="242" y="106" on="0"/>
        <pt x="352" y="106" on="0"/>
        <pt x="391" y="143" on="1"/>
        <pt x="430" y="187" on="0"/>
        <pt x="430" y="311" on="0"/>
        <pt x="391" y="353" on="1"/>
        <pt x="348" y="391" on="0"/>
        <pt x="246" y="391" on="0"/>
      </contour>
      <contour>
        <pt x="135" y="607" on="0"/>
        <pt x="135" y="661" on="0"/>
        <pt x="172" y="699" on="0"/>
        <pt x="226" y="699" on="0"/>
        <pt x="264" y="661" on="0"/>
        <pt x="264" y="607" on="0"/>
        <pt x="226" y="570" on="0"/>
        <pt x="172" y="570" on="0"/>
      </contour>
      <contour>
        <pt x="335" y="607" on="0"/>
        <pt x="335" y="661" on="0"/>
        <pt x="372" y="699" on="0"/>
        <pt x="426" y="699" on="0"/>
        <pt x="464" y="661" on="0"/>
        <pt x="464" y="607" on="0"/>
        <pt x="426" y="570" on="0"/>
        <pt x="372" y="570" on="0"/>
      </contour>
    </TTGlyph>
    <TTGlyph name="oe" xMin="58" yMin="-3" xMax="962" yMax="510">
      <contour>
        <pt x="962" y="268" on="1"/>
        <pt x="962" y="246" on="0"/>
        <pt x="932" y="218" on="0"/>
        <pt x="908" y="218" on="1"/>
        <pt x="583" y="218" on="1"/>
        <pt x="592" y="175" on="0"/>
        <pt x="618" y="151" on="1"/>
        <pt x="634" y="133" on="0"/>
        <pt x="689" y="107" on="0"/>
        <pt x="716" y="105" on="1"/>
        <pt x="783" y="100" on="0"/>
        <pt x="822" y="131" on="1"/>
        <pt x="838" y="147" on="0"/>
        <pt x="888" y="147" on="0"/>
        <pt x="900" y="134" on="1"/>
        <pt x="926" y="102" on="0"/>
        <pt x="899" y="67" on="1"/>
        <pt x="826" y="0" on="0"/>
        <pt x="716" y="0" on="1"/>
        <pt x="651" y="0" on="0"/>
        <pt x="542" y="62" on="0"/>
        <pt x="508" y="115" on="1"/>
        <pt x="492" y="91" on="0"/>
        <pt x="475" y="74" on="1"/>
        <pt x="408" y="-3" on="0"/>
        <pt x="200" y="-3" on="0"/>
        <pt x="58" y="148" on="0"/>
        <pt x="58" y="358" on="0"/>
        <pt x="201" y="510" on="0"/>
        <pt x="303" y="510" on="1"/>
        <pt x="367" y="510" on="0"/>
        <pt x="475" y="444" on="0"/>
        <pt x="506" y="392" on="1"/>
        <pt x="540" y="446" on="0"/>
        <pt x="650" y="510" on="0"/>
        <pt x="716" y="510" on="1"/>
        <pt x="816" y="510" on="0"/>
        <pt x="956" y="376" on="0"/>
        <pt x="962" y="274" on="1"/>
      </contour>
      <contour>
        <pt x="438" y="313" on="0"/>
        <pt x="360" y="400" on="0"/>
        <pt x="245" y="400" on="0"/>
        <pt x="168" y="315" on="0"/>
        <pt x="168" y="192" on="0"/>
        <pt x="207" y="147" on="1"/>
        <pt x="247" y="107" on="0"/>
        <pt x="361" y="107" on="0"/>
        <pt x="438" y="194" on="0"/>
      </contour>
      <contour>
        <pt x="716" y="413" on="1"/>
        <pt x="657" y="410" on="0"/>
        <pt x="585" y="343" on="0"/>
        <pt x="578" y="305" on="1"/>
        <pt x="867" y="305" on="1"/>
        <pt x="858" y="341" on="0"/>
        <pt x="777" y="408" on="0"/>
      </contour>
    </TTGlyph>
    <TTGlyph name="ograve" xMin="58" yMin="-3" xMax="536" yMax="730">
      <contour>
        <pt x="400" y="-3" on="0"/>
        <pt x="198" y="-3" on="0"/>
        <pt x="58" y="145" on="0"/>
        <pt x="58" y="351" on="0"/>
        <pt x="199" y="500" on="0"/>
        <pt x="397" y="500" on="0"/>
        <pt x="536" y="349" on="0"/>
        <pt x="536" y="141" on="0"/>
        <pt x="466" y="73" on="1"/>
      </contour>
      <contour>
        <pt x="203" y="353" on="1"/>
        <pt x="167" y="311" on="0"/>
        <pt x="167" y="187" on="0"/>
        <pt x="203" y="143" on="1"/>
        <pt x="242" y="106" on="0"/>
        <pt x="352" y="106" on="0"/>
        <pt x="391" y="143" on="1"/>
        <pt x="430" y="187" on="0"/>
        <pt x="430" y="311" on="0"/>
        <pt x="391" y="353" on="1"/>
        <pt x="348" y="391" on="0"/>
        <pt x="246" y="391" on="0"/>
      </contour>
      <contour>
        <pt x="416" y="591" on="1"/>
        <pt x="416" y="570" on="0"/>
        <pt x="343" y="570" on="0"/>
        <pt x="315" y="597" on="1"/>
        <pt x="247" y="661" on="1"/>
        <pt x="230" y="676" on="0"/>
        <pt x="230" y="705" on="0"/>
        <pt x="277" y="730" on="0"/>
        <pt x="332" y="730" on="0"/>
        <pt x="350" y="701" on="1"/>
        <pt x="407" y="613" on="1"/>
        <pt x="416" y="600" on="0"/>
      </contour>
    </TTGlyph>
    <TTGlyph name="one" xMin="39" yMin="0" xMax="273" yMax="700">
      <contour>
        <pt x="235" y="697" on="1"/>
        <pt x="245" y="693" on="1"/>
        <pt x="254" y="686" on="1"/>
        <pt x="268" y="673" on="0"/>
        <pt x="268" y="662" on="0"/>
        <pt x="270" y="659" on="0"/>
        <pt x="271" y="650" on="0"/>
        <pt x="273" y="648" on="1"/>
        <pt x="273" y="55" on="1"/>
        <pt x="273" y="32" on="0"/>
        <pt x="240" y="0" on="0"/>
        <pt x="194" y="0" on="0"/>
        <pt x="162" y="32" on="0"/>
        <pt x="162" y="55" on="1"/>
        <pt x="162" y="547" on="1"/>
        <pt x="122" y="524" on="1"/>
        <pt x="110" y="516" on="0"/>
        <pt x="94" y="516" on="1"/>
        <pt x="63" y="516" on="0"/>
        <pt x="47" y="544" on="1"/>
        <pt x="34" y="563" on="0"/>
        <pt x="45" y="608" on="0"/>
        <pt x="65" y="619" on="1"/>
        <pt x="188" y="692" on="1"/>
        <pt x="192" y="694" on="1"/>
        <pt x="197" y="697" on="1"/>
        <pt x="203" y="698" on="1"/>
        <pt x="205" y="700" on="0"/>
        <pt x="214" y="700" on="1"/>
        <pt x="225" y="700" on="1"/>
        <pt x="226" y="699" on="0"/>
        <pt x="231" y="699" on="0"/>
      </contour>
    </TTGlyph>
    <TTGlyph name="ordfeminine" xMin="58" yMin="296" xMax="350" yMax="701">
      <contour>
        <pt x="142" y="398" on="0"/>
        <pt x="58" y="487" on="0"/>
        <pt x="58" y="612" on="0"/>
        <pt x="141" y="701" on="0"/>
        <pt x="202" y="701" on="1"/>
        <pt x="246" y="701" on="0"/>
        <pt x="283" y="675" on="1"/>
        <pt x="288" y="701" on="0"/>
        <pt x="314" y="701" on="1"/>
        <pt x="328" y="701" on="0"/>
        <pt x="347" y="682" on="0"/>
        <pt x="347" y="669" on="1"/>
        <pt x="347" y="431" on="1"/>
        <pt x="347" y="417" on="0"/>
        <pt x="328" y="398" on="0"/>
        <pt x="302" y="398" on="0"/>
        <pt x="285" y="413" on="0"/>
        <pt x="283" y="425" on="1"/>
        <pt x="246" y="398" on="0"/>
        <pt x="202" y="398" on="1"/>
      </contour>
      <contour>
        <pt x="167" y="636" on="0"/>
        <pt x="123" y="586" on="0"/>
        <pt x="123" y="513" on="0"/>
        <pt x="167" y="463" on="0"/>
        <pt x="232" y="463" on="0"/>
        <pt x="259" y="486" on="1"/>
        <pt x="282" y="512" on="0"/>
        <pt x="282" y="587" on="0"/>
        <pt x="237" y="636" on="0"/>
      </contour>
      <contour>
        <pt x="99" y="296" on="1"/>
        <pt x="85" y="296" on="0"/>
        <pt x="65" y="316" on="0"/>
        <pt x="65" y="344" on="0"/>
        <pt x="85" y="364" on="0"/>
        <pt x="99" y="364" on="1"/>
        <pt x="317" y="364" on="1"/>
        <pt x="331" y="364" on="0"/>
        <pt x="350" y="344" on="0"/>
        <pt x="350" y="316" on="0"/>
        <pt x="331" y="296" on="0"/>
        <pt x="317" y="296" on="1"/>
      </contour>
    </TTGlyph>
    <TTGlyph name="oslash" xMin="64" yMin="0" xMax="614" yMax="513">
      <contour>
        <pt x="95" y="257" on="1"/>
        <pt x="95" y="361" on="0"/>
        <pt x="238" y="513" on="0"/>
        <pt x="433" y="513" on="0"/>
        <pt x="500" y="449" on="1"/>
        <pt x="534" y="480" on="1"/>
        <pt x="551" y="494" on="0"/>
        <pt x="592" y="502" on="0"/>
        <pt x="616" y="485" on="0"/>
        <pt x="611" y="453" on="0"/>
        <pt x="596" y="438" on="1"/>
        <pt x="546" y="393" on="1"/>
        <pt x="583" y="331" on="0"/>
        <pt x="583" y="257" on="1"/>
        <pt x="583" y="148" on="0"/>
        <pt x="512" y="77" on="1"/>
        <pt x="445" y="0" on="0"/>
        <pt x="248" y="0" on="0"/>
        <pt x="178" y="64" on="1"/>
        <pt x="144" y="34" on="1"/>
        <pt x="104" y="1" on="0"/>
        <pt x="75" y="20" on="1"/>
        <pt x="62" y="29" on="0"/>
        <pt x="67" y="62" on="0"/>
        <pt x="83" y="78" on="1"/>
        <pt x="132" y="121" on="1"/>
        <pt x="95" y="181" on="0"/>
      </contour>
      <contour>
        <pt x="418" y="376" on="1"/>
        <pt x="383" y="403" on="0"/>
        <pt x="282" y="403" on="0"/>
        <pt x="205" y="318" on="0"/>
        <pt x="205" y="257" on="1"/>
        <pt x="205" y="225" on="0"/>
        <pt x="216" y="197" on="1"/>
      </contour>
      <contour>
        <pt x="259" y="137" on="1"/>
        <pt x="296" y="110" on="0"/>
        <pt x="398" y="110" on="0"/>
        <pt x="475" y="197" on="0"/>
        <pt x="475" y="257" on="1"/>
        <pt x="475" y="290" on="0"/>
        <pt x="463" y="319" on="1"/>
      </contour>
    </TTGlyph>
    <TTGlyph name="otilde" xMin="58" yMin="-3" xMax="536" yMax="729">
      <contour>
        <pt x="400" y="-3" on="0"/>
        <pt x="198" y="-3" on="0"/>
        <pt x="58" y="145" on="0"/>
        <pt x="58" y="351" on="0"/>
        <pt x="199" y="500" on="0"/>
        <pt x="397" y="500" on="0"/>
        <pt x="536" y="349" on="0"/>
        <pt x="536" y="141" on="0"/>
        <pt x="466" y="73" on="1"/>
      </contour>
      <contour>
        <pt x="203" y="353" on="1"/>
        <pt x="167" y="311" on="0"/>
        <pt x="167" y="187" on="0"/>
        <pt x="203" y="143" on="1"/>
        <pt x="242" y="106" on="0"/>
        <pt x="352" y="106" on="0"/>
        <pt x="391" y="143" on="1"/>
        <pt x="430" y="187" on="0"/>
        <pt x="430" y="311" on="0"/>
        <pt x="391" y="353" on="1"/>
        <pt x="348" y="391" on="0"/>
        <pt x="246" y="391" on="0"/>
      </contour>
      <contour>
        <pt x="185" y="590" on="1"/>
        <pt x="172" y="570" on="0"/>
        <pt x="137" y="570" on="0"/>
        <pt x="115" y="590" on="0"/>
        <pt x="115" y="612" on="0"/>
        <pt x="119" y="626" on="1"/>
        <pt x="136" y="672" on="0"/>
        <pt x="183" y="717" on="0"/>
        <pt x="251" y="717" on="0"/>
        <pt x="349" y="677" on="0"/>
        <pt x="365" y="677" on="1"/>
        <pt x="394" y="677" on="0"/>
        <pt x="411" y="709" on="1"/>
        <pt x="424" y="729" on="0"/>
        <pt x="459" y="729" on="0"/>
        <pt x="481" y="709" on="0"/>
        <pt x="481" y="687" on="0"/>
        <pt x="477" y="673" on="1"/>
        <pt x="460" y="627" on="0"/>
        <pt x="413" y="582" on="0"/>
        <pt x="345" y="582" on="0"/>
        <pt x="247" y="622" on="0"/>
        <pt x="231" y="622" on="1"/>
        <pt x="202" y="622" on="0"/>
      </contour>
    </TTGlyph>
    <TTGlyph name="p" xMin="93" yMin="-188" xMax="579" yMax="500">
      <contour>
        <pt x="203" y="-155" on="0"/>
        <pt x="170" y="-188" on="0"/>
        <pt x="125" y="-188" on="0"/>
        <pt x="93" y="-155" on="0"/>
        <pt x="93" y="-134" on="1"/>
        <pt x="93" y="447" on="1"/>
        <pt x="93" y="469" on="0"/>
        <pt x="124" y="500" on="0"/>
        <pt x="167" y="500" on="0"/>
        <pt x="198" y="476" on="0"/>
        <pt x="201" y="459" on="1"/>
        <pt x="264" y="500" on="0"/>
        <pt x="337" y="500" on="1"/>
        <pt x="437" y="500" on="0"/>
        <pt x="579" y="352" on="0"/>
        <pt x="579" y="146" on="0"/>
        <pt x="437" y="1" on="0"/>
        <pt x="337" y="1" on="1"/>
        <pt x="260" y="1" on="0"/>
        <pt x="203" y="42" on="1"/>
        <pt x="203" y="-134" on="1"/>
      </contour>
      <contour>
        <pt x="431" y="350" on="1"/>
        <pt x="392" y="391" on="0"/>
        <pt x="280" y="391" on="0"/>
        <pt x="203" y="308" on="0"/>
        <pt x="203" y="184" on="0"/>
        <pt x="242" y="149" on="1"/>
        <pt x="280" y="107" on="0"/>
        <pt x="391" y="107" on="0"/>
        <pt x="470" y="191" on="0"/>
        <pt x="470" y="306" on="0"/>
      </contour>
    </TTGlyph>
    <TTGlyph name="parenleft" xMin="71" yMin="-94" xMax="373" yMax="706">
      <contour>
        <pt x="308" y="-94" on="1"/>
        <pt x="241" y="-94" on="0"/>
        <pt x="193" y="-56" on="1"/>
        <pt x="71" y="42" on="0"/>
        <pt x="71" y="306" on="1"/>
        <pt x="71" y="572" on="0"/>
        <pt x="191" y="666" on="1"/>
        <pt x="242" y="706" on="0"/>
        <pt x="310" y="706" on="1"/>
        <pt x="336" y="706" on="0"/>
        <pt x="373" y="669" on="0"/>
        <pt x="373" y="617" on="0"/>
        <pt x="336" y="579" on="0"/>
        <pt x="285" y="579" on="0"/>
        <pt x="249" y="552" on="0"/>
        <pt x="233" y="517" on="1"/>
        <pt x="196" y="442" on="0"/>
        <pt x="198" y="306" on="1"/>
        <pt x="196" y="206" on="0"/>
        <pt x="237" y="69" on="0"/>
        <pt x="268" y="46" on="1"/>
        <pt x="285" y="33" on="0"/>
        <pt x="336" y="32" on="0"/>
        <pt x="373" y="-5" on="0"/>
        <pt x="373" y="-57" on="0"/>
        <pt x="336" y="-94" on="0"/>
        <pt x="310" y="-94" on="1"/>
      </contour>
    </TTGlyph>
    <TTGlyph name="parenright" xMin="60" yMin="-94" xMax="362" yMax="706">
      <contour>
        <pt x="242" y="-55" on="1"/>
        <pt x="192" y="-94" on="0"/>
        <pt x="125" y="-94" on="1"/>
        <pt x="123" y="-94" on="1"/>
        <pt x="97" y="-94" on="0"/>
        <pt x="60" y="-57" on="0"/>
        <pt x="60" y="-5" on="0"/>
        <pt x="97" y="32" on="0"/>
        <pt x="148" y="33" on="0"/>
        <pt x="165" y="46" on="1"/>
        <pt x="196" y="69" on="0"/>
        <pt x="237" y="206" on="0"/>
        <pt x="235" y="306" on="1"/>
        <pt x="237" y="442" on="0"/>
        <pt x="200" y="517" on="1"/>
        <pt x="184" y="552" on="0"/>
        <pt x="148" y="579" on="0"/>
        <pt x="97" y="579" on="0"/>
        <pt x="60" y="617" on="0"/>
        <pt x="60" y="669" on="0"/>
        <pt x="97" y="706" on="0"/>
        <pt x="123" y="706" on="1"/>
        <pt x="191" y="706" on="0"/>
        <pt x="242" y="666" on="1"/>
        <pt x="362" y="572" on="0"/>
        <pt x="362" y="39" on="0"/>
      </contour>
    </TTGlyph>
    <TTGlyph name="percent" xMin="55" yMin="-8" xMax="808" yMax="708">
      <contour>
        <pt x="385" y="454" on="0"/>
        <pt x="292" y="350" on="0"/>
        <pt x="147" y="350" on="0"/>
        <pt x="55" y="453" on="0"/>
        <pt x="55" y="527" on="1"/>
        <pt x="55" y="529" on="1"/>
        <pt x="55" y="604" on="0"/>
        <pt x="148" y="708" on="0"/>
        <pt x="294" y="708" on="0"/>
        <pt x="385" y="605" on="0"/>
        <pt x="385" y="531" on="1"/>
        <pt x="385" y="529" on="1"/>
      </contour>
      <contour>
        <pt x="184" y="-5" on="0"/>
        <pt x="161" y="18" on="0"/>
        <pt x="161" y="47" on="0"/>
        <pt x="170" y="60" on="1"/>
        <pt x="629" y="687" on="1"/>
        <pt x="640" y="705" on="0"/>
        <pt x="680" y="705" on="0"/>
        <pt x="703" y="682" on="0"/>
        <pt x="703" y="653" on="0"/>
        <pt x="694" y="640" on="1"/>
        <pt x="235" y="13" on="1"/>
        <pt x="223" y="-5" on="0"/>
      </contour>
      <contour>
        <pt x="808" y="97" on="0"/>
        <pt x="715" y="-8" on="0"/>
        <pt x="570" y="-8" on="0"/>
        <pt x="478" y="95" on="0"/>
        <pt x="478" y="169" on="1"/>
        <pt x="478" y="171" on="1"/>
        <pt x="478" y="246" on="0"/>
        <pt x="571" y="350" on="0"/>
        <pt x="716" y="350" on="0"/>
        <pt x="808" y="247" on="0"/>
        <pt x="808" y="173" on="1"/>
        <pt x="808" y="171" on="1"/>
      </contour>
      <contour>
        <pt x="144" y="486" on="0"/>
        <pt x="188" y="427" on="0"/>
        <pt x="255" y="427" on="0"/>
        <pt x="296" y="485" on="0"/>
        <pt x="296" y="527" on="1"/>
        <pt x="296" y="529" on="1"/>
        <pt x="296" y="572" on="0"/>
        <pt x="252" y="631" on="0"/>
        <pt x="185" y="631" on="0"/>
        <pt x="144" y="573" on="0"/>
        <pt x="144" y="531" on="1"/>
        <pt x="144" y="529" on="1"/>
      </contour>
      <contour>
        <pt x="567" y="128" on="0"/>
        <pt x="611" y="69" on="0"/>
        <pt x="678" y="69" on="0"/>
        <pt x="719" y="127" on="0"/>
        <pt x="719" y="169" on="1"/>
        <pt x="719" y="171" on="1"/>
        <pt x="719" y="214" on="0"/>
        <pt x="675" y="273" on="0"/>
        <pt x="608" y="273" on="0"/>
        <pt x="567" y="215" on="0"/>
        <pt x="567" y="173" on="1"/>
        <pt x="567" y="171" on="1"/>
      </contour>
    </TTGlyph>
    <TTGlyph name="period" xMin="82" yMin="-7" xMax="231" yMax="142">
      <contour>
        <pt x="82" y="36" on="0"/>
        <pt x="82" y="98" on="0"/>
        <pt x="125" y="142" on="0"/>
        <pt x="187" y="142" on="0"/>
        <pt x="231" y="98" on="0"/>
        <pt x="231" y="36" on="0"/>
        <pt x="187" y="-7" on="0"/>
        <pt x="125" y="-7" on="0"/>
      </contour>
    </TTGlyph>
    <TTGlyph name="plus" xMin="64" yMin="101" xMax="572" yMax="603">
      <contour>
        <pt x="261" y="158" on="1"/>
        <pt x="261" y="297" on="1"/>
        <pt x="119" y="297" on="1"/>
        <pt x="96" y="297" on="0"/>
        <pt x="64" y="329" on="0"/>
        <pt x="64" y="374" on="0"/>
        <pt x="96" y="407" on="0"/>
        <pt x="119" y="407" on="1"/>
        <pt x="261" y="407" on="1"/>
        <pt x="261" y="546" on="1"/>
        <pt x="261" y="570" on="0"/>
        <pt x="294" y="603" on="0"/>
        <pt x="341" y="603" on="0"/>
        <pt x="375" y="570" on="0"/>
        <pt x="375" y="546" on="1"/>
        <pt x="375" y="407" on="1"/>
        <pt x="517" y="407" on="1"/>
        <pt x="540" y="407" on="0"/>
        <pt x="572" y="374" on="0"/>
        <pt x="572" y="329" on="0"/>
        <pt x="540" y="297" on="0"/>
        <pt x="517" y="297" on="1"/>
        <pt x="375" y="297" on="1"/>
        <pt x="375" y="158" on="1"/>
        <pt x="375" y="134" on="0"/>
        <pt x="341" y="101" on="0"/>
        <pt x="294" y="101" on="0"/>
        <pt x="261" y="134" on="0"/>
      </contour>
    </TTGlyph>
</ttFont>
